SplineFontDB: 3.0
FontName: Boton-Regular
FullName: Boton Regular
FamilyName: Boton
Weight: Regular
Copyright: Copyright (c) 1992 Adobe Systems Incorporated.  All Rights Reserved.Boton is a trademark of H. Berthold AG.
Version: 001.000
ItalicAngle: 0
UnderlinePosition: -75
UnderlineWidth: 50
Ascent: 800
Descent: 200
sfntRevision: 0x00010000
LayerCount: 2
Layer: 0 0 "Back"  1
Layer: 1 0 "Fore"  0
XUID: [1021 588 1133928653 5763052]
UniqueID: 40009
FSType: 0
OS2Version: 2
OS2_WeightWidthSlopeOnly: 0
OS2_UseTypoMetrics: 1
CreationTime: 1178615231
ModificationTime: 1359118521
PfmFamily: 81
TTFWeight: 500
TTFWidth: 5
LineGap: 0
VLineGap: 0
Panose: 0 0 0 0 0 0 0 0 0 0
OS2TypoAscent: -94
OS2TypoAOffset: 1
OS2TypoDescent: -3
OS2TypoDOffset: 1
OS2TypoLinegap: 69
OS2WinAscent: 0
OS2WinAOffset: 1
OS2WinDescent: 0
OS2WinDOffset: 1
HheadAscent: 0
HheadAOffset: 1
HheadDescent: 0
HheadDOffset: 1
OS2SubXSize: 650
OS2SubYSize: 650
OS2SubXOff: 0
OS2SubYOff: 150
OS2SupXSize: 650
OS2SupYSize: 650
OS2SupXOff: 0
OS2SupYOff: 500
OS2StrikeYSize: 50
OS2StrikeYPos: 225
OS2CodePages: 20000111.41000000
OS2UnicodeRanges: 8000002f.40000048.00000000.00000000
Lookup: 258 0 0 "'kern' Horizontal Kerning in Latin lookup 0"  {"'kern' Horizontal Kerning in Latin lookup 0 subtable"  } ['kern' ('latn' <'dflt' > ) ]
MarkAttachClasses: 1
DEI: 91125
LangName: 1033 "" "" "" "" "" "" "" "" "" "" "Boton-Regular" "" "" "" "" "" "" "" "Regular" "" "Boton Regular" 
Encoding: UnicodeBmp
UnicodeInterp: none
NameList: Adobe Glyph List
DisplaySize: -36
AntiAlias: 1
FitToEm: 1
WinInfo: 64 32 13
BeginPrivate: 11
BlueValues 23 [-16 0 706 724 521 534]
OtherBlues 11 [-223 -203]
FamilyBlues 23 [-16 0 706 724 521 534]
FamilyOtherBlues 11 [-223 -203]
BlueScale 8 0.047958
BlueShift 1 4
StdHW 4 [63]
StdVW 4 [84]
StemSnapH 4 [63]
StemSnapV 4 [84]
ExpansionFactor 4 0.06
EndPrivate
BeginChars: 65537 229

StartChar: exclam
Encoding: 33 33 2
Width: 292
Flags: MW
HStem: 0 105<115 218 115 218> 687 20<115 218 218 218>
VStem: 115 103<0 105 0 105> 120 94
LayerCount: 2
Fore
SplineSet
125 181 m 1xf0
 115 707 l 1
 218 707 l 1
 210 181 l 1
 125 181 l 1xf0
115 105 m 1xe0
 218 105 l 1
 218 0 l 1
 115 0 l 1
 115 105 l 1xe0
EndSplineSet
EndChar

StartChar: quotedbl
Encoding: 34 34 3
Width: 396
Flags: MW
HStem: 445 304<96 113 94 116.5 283.5 301 96 281>
VStem: 61 275<701.5 704.5 700 720> 248 88<701.5 704.5 700 720>
LayerCount: 2
Fore
SplineSet
336 700 m 1xe0
 301 445 l 1
 281 445 l 1
 249 687 l 2
 248 695 248 699 248 704 c 0
 248 736 273 749 294 749 c 0
 314 749 327 738 332 727 c 0
 337 717 336 709 336 700 c 1xe0
149 700 m 1
 113 445 l 1
 94 445 l 1
 62 687 l 2
 61 695 61 699 61 704 c 0
 61 736 85 749 107 749 c 0
 126 749 140 738 145 727 c 0
 150 717 149 709 149 700 c 1
EndSplineSet
EndChar

StartChar: numbersign
Encoding: 35 35 4
Width: 667
Flags: MW
HStem: 0 21<173 231 173 173 332 393 332 332> 259 54<41 209 41 217 276 370 41 269 436 604> 410 57<63 230 63 237 63 290 297 390 456 624> 688 20<269 332 332 332 430 489 489 489>
VStem: 41 583<259 467 313 467>
LayerCount: 2
Fore
SplineSet
430 259 m 1
 393 0 l 1
 332 0 l 1
 370 259 l 1
 269 259 l 1
 231 0 l 1
 173 0 l 1
 209 259 l 1
 41 259 l 1
 41 313 l 1
 217 313 l 1
 230 410 l 1
 63 410 l 1
 63 467 l 1
 237 467 l 1
 269 708 l 1
 332 708 l 1
 297 467 l 1
 398 467 l 1
 430 708 l 1
 489 708 l 1
 456 467 l 1
 624 467 l 1
 624 410 l 1
 449 410 l 1
 436 313 l 1
 604 313 l 1
 604 259 l 1
 430 259 l 1
276 313 m 1
 377 313 l 1
 390 410 l 1
 290 410 l 1
 276 313 l 1
EndSplineSet
EndChar

StartChar: dollar
Encoding: 36 36 5
Width: 542
Flags: MW
HStem: -13 21 -7 21 0 21<47 116 47 47> 0 239<47 116 47 121> 482 225<417 485 417 485 411 485> 657 65<243 243> 702 20
VStem: 47 71 58 77<504 560.5> 241 68<-31.5 -13 -36 -7> 242 71 243 63<59 310 51 333 51 333> 416 69 419 81<157.5 221.5>
LayerCount: 2
Fore
SplineSet
243 59 m 1x2318
 243 333 l 1x2494
 204 348 169 362 140 381 c 0
 112 400 58 447 58 533 c 0
 58 588 80 643 126 680 c 0
 171 717 218 720 242 722 c 1
 241 765 241 786 240 820 c 1
 313 820 l 1
 312 764 312 758 311 711 c 1
 345 702 382 684 415 631 c 1x22a8
 417 707 l 1
 485 707 l 1
 485 482 l 1
 411 482 l 1x2918
 405 528 393 616 308 649 c 1
 308 397 l 1x2314
 388 367 500 324 500 184 c 0
 500 121 476 45 395 7 c 0
 361 -9 334 -11 309 -13 c 1
 309 -59 310 -71 312 -111 c 1
 238 -111 l 1x8344
 240 -69 241 -56 241 -7 c 1
 214 1 164 16 120 78 c 1x4348
 116 0 l 1
 47 0 l 1
 47 239 l 1
 121 239 l 1x1318
 125 205 138 88 243 59 c 1x2318
243 419 m 1
 243 657 l 1
 222 654 191 649 166 622 c 0
 155 611 135 585 135 541 c 0
 135 467 184 445 243 419 c 1
306 310 m 1
 306 51 l 1
 327 55 352 59 377 81 c 0
 403 103 419 137 419 178 c 0
 419 265 346 294 306 310 c 1
EndSplineSet
EndChar

StartChar: percent
Encoding: 37 37 6
Width: 875
Flags: MW
HStem: -9 45<665.5 695.5 665.5 701.5> 0 21<268 268 268 326> 256 45<166.5 196.5 166.5 200> 407 45<642 704 638.5 719.5> 671 45<143 204.5 139 220.5> 686 20<541 598 598 598>
VStem: 22 57<481.5 508.5> 294 57<460 539.5> 521 57<216.5 244> 793 57<194.5 275>
LayerCount: 2
Fore
SplineSet
521 221 m 0xbbc0
 521 267 528 320 545 359 c 0
 553 378 589 452 688 452 c 0
 720 452 850 442 850 220 c 0
 850 169 844 118 821 73 c 1
 782 1 718 -9 685 -9 c 0
 620 -9 583 27 563 56 c 0
 530 104 521 172 521 221 c 0xbbc0
685 407 m 0xbbc0
 599 407 578 303 578 227 c 0
 578 206 580 164 590 128 c 0
 606 68 644 36 687 36 c 0
 704 36 722 41 736 52 c 1
 757 66 793 108 793 217 c 0
 793 333 754 407 685 407 c 0xbbc0
22 486 m 0xbbc0
 22 531 29 585 46 623 c 0
 54 642 90 716 188 716 c 0
 221 716 351 706 351 485 c 0
 351 435 345 383 321 338 c 0
 282 264 215 256 185 256 c 0
 118 256 81 295 64 321 c 0
 31 369 22 437 22 486 c 0xbbc0
186 671 m 0xbbc0
 100 671 79 568 79 492 c 0
 79 471 81 429 91 394 c 0
 107 333 145 301 188 301 c 0
 205 301 223 307 237 317 c 0
 258 332 294 373 294 482 c 0
 294 597 255 671 186 671 c 0xbbc0
268 0 m 1x77c0
 541 706 l 1
 598 706 l 1
 326 0 l 1
 268 0 l 1x77c0
EndSplineSet
EndChar

StartChar: ampersand
Encoding: 38 38 7
Width: 688
Flags: MW
HStem: -11 64<251.5 346.5 251.5 354> 0 21<567 567 567 686> 658 63<285 320.5>
VStem: 44 83<174.5 267 174.5 270> 114 81<536 596 536 603> 410 82<562 590> 512 80<313 313>
LayerCount: 2
Fore
SplineSet
567 0 m 1xf6
 500 65 l 1
 473 41 413 -11 295 -11 c 0
 144 -11 44 90 44 216 c 0xb6
 44 324 106 377 168 410 c 1
 144 446 114 492 114 553 c 0
 114 653 191 721 313 721 c 0
 343 721 365 718 384 712 c 0
 436 697 492 653 492 579 c 0
 492 545 480 517 464 497 c 1xac
 433 454 387 435 335 413 c 0
 317 405 299 397 281 389 c 1
 331 337 348 320 444 225 c 1
 489 183 l 1
 502 214 509 258 512 313 c 1
 592 313 l 1
 587 206 573 174 549 127 c 1
 686 0 l 1
 567 0 l 1xf6
239 445 m 1xac
 265 456 291 467 317 479 c 0
 350 494 410 521 410 580 c 0
 410 600 401 619 390 631 c 0
 364 657 328 658 313 658 c 0
 257 658 195 634 195 558 c 0
 195 514 218 478 239 445 c 1xac
317 244 m 1
 210 356 l 1
 190 345 127 312 127 222 c 0xb4
 127 127 200 53 303 53 c 0
 390 53 429 92 449 113 c 1
 317 244 l 1
EndSplineSet
EndChar

StartChar: quoteright
Encoding: 8217 8217 8
Width: 250
Flags: MW
HStem: 486 221<22 209 88 94> 687 20<88 209 209 209>
VStem: 22 187
LayerCount: 2
Fore
SplineSet
22 486 m 1xe0
 88 707 l 1
 209 707 l 1
 94 486 l 1
 22 486 l 1xe0
EndSplineSet
EndChar

StartChar: parenleft
Encoding: 40 40 9
Width: 292
Flags: MW
HStem: 703 20<164 237 237 237>
VStem: 82 98<238 318>
LayerCount: 2
Fore
SplineSet
238 -193 m 1
 164 -193 l 1
 135 -114 82 31 82 265 c 0
 82 371 95 467 108 535 c 0
 127 637 146 679 164 723 c 1
 237 723 l 1
 223 676 213 642 201 565 c 0
 187 473 180 381 180 288 c 0
 180 188 188 88 202 -12 c 1
 213 -100 222 -132 238 -193 c 1
EndSplineSet
EndChar

StartChar: parenright
Encoding: 41 41 10
Width: 292
Flags: MW
HStem: 702 20<53 127 127 127>
VStem: 111 98<214 304>
LayerCount: 2
Fore
SplineSet
127 -193 m 1
 53 -193 l 1
 60 -169 67 -145 73 -121 c 0
 88 -61 111 81 111 247 c 0
 111 361 100 475 83 588 c 0
 72 657 65 681 53 722 c 1
 127 722 l 1
 144 676 161 632 176 561 c 1
 197 468 209 357 209 264 c 0
 209 164 196 51 174 -45 c 0
 158 -118 144 -153 127 -193 c 1
EndSplineSet
EndChar

StartChar: asterisk
Encoding: 42 42 11
Width: 396
Flags: MW
HStem: 510 20<263 263> 511 20<136 136> 686 20<163 229 229 229>
VStem: 163 66<352 474 474 474 587 706>
LayerCount: 2
Fore
SplineSet
163 587 m 1x70
 163 706 l 1
 229 706 l 1
 229 585 l 1
 339 651 l 1
 372 593 l 1
 263 530 l 1
 372 471 l 1xb0
 339 411 l 1
 229 476 l 1
 229 352 l 1
 163 352 l 1
 163 474 l 1
 60 411 l 1
 25 466 l 1
 136 531 l 1
 25 592 l 1
 55 650 l 1
 163 587 l 1x70
EndSplineSet
EndChar

StartChar: plus
Encoding: 43 43 12
Width: 667
Flags: MW
HStem: 0 21<304 364 304 304> 261 60<42 304 42 304 364 625>
VStem: 304 60<0 261 0 261 321 581>
LayerCount: 2
Fore
SplineSet
364 261 m 1
 364 0 l 1
 304 0 l 1
 304 261 l 1
 42 261 l 1
 42 321 l 1
 304 321 l 1
 304 581 l 1
 364 581 l 1
 364 321 l 1
 625 321 l 1
 625 261 l 1
 364 261 l 1
EndSplineSet
EndChar

StartChar: comma
Encoding: 44 44 13
Width: 250
Flags: MW
HStem: -107 206<31 211 86 100>
VStem: 31 180
LayerCount: 2
Fore
SplineSet
31 -107 m 1
 86 99 l 1
 211 99 l 1
 100 -107 l 1
 31 -107 l 1
EndSplineSet
EndChar

StartChar: hyphen
Encoding: 45 45 14
Width: 437
Flags: MW
HStem: 245 79<34 402 34 402>
VStem: 34 368<245 324 245 324>
LayerCount: 2
Fore
SplineSet
34 245 m 1
 34 324 l 1
 402 324 l 1
 402 245 l 1
 34 245 l 1
EndSplineSet
EndChar

StartChar: period
Encoding: 46 46 15
Width: 250
Flags: MW
HStem: 0 106<71 178 71 178>
VStem: 71 107<0 106 0 106>
LayerCount: 2
Fore
SplineSet
71 0 m 1
 71 106 l 1
 178 106 l 1
 178 0 l 1
 71 0 l 1
EndSplineSet
EndChar

StartChar: slash
Encoding: 47 47 16
Width: 375
Flags: MW
HStem: -104 917<-6 378 -6 378>
VStem: -6 384
LayerCount: 2
Fore
SplineSet
-6 -104 m 1
 300 813 l 1
 378 813 l 1
 74 -104 l 1
 -6 -104 l 1
EndSplineSet
EndChar

StartChar: zero
Encoding: 48 48 17
Width: 583
Flags: MW
HStem: -16 66<255.5 306 255.5 306> 655 67<275 296 275 342.5>
VStem: 29 84<338.5 396> 468 85<312.5 371.5>
LayerCount: 2
Fore
SplineSet
29 355 m 0
 29 437 41 511 65 567 c 0
 99 645 156 685 188 700 c 0
 218 714 259 722 291 722 c 0
 301 722 312 721 323 720 c 0
 365 715 401 704 441 670 c 0
 531 595 553 472 553 355 c 0
 553 266 540 191 516 138 c 1
 492 82 451 37 409 14 c 0
 374 -5 326 -16 286 -16 c 0
 206 -16 148 21 111 64 c 0
 34 154 29 285 29 355 c 0
292 655 m 0
 247 655 220 641 201 625 c 0
 152 586 113 496 113 360 c 0
 113 317 116 261 129 209 c 0
 157 100 220 50 291 50 c 0
 321 50 351 60 375 77 c 0
 456 135 468 275 468 350 c 0
 468 393 465 436 456 479 c 0
 439 558 393 655 292 655 c 0
EndSplineSet
EndChar

StartChar: one
Encoding: 49 49 18
Width: 583
Flags: MW
HStem: 0 63<190 263 347 422 190 263> 686 20<291 347 347 347>
VStem: 263 84<63 631 631 631>
LayerCount: 2
Fore
SplineSet
291 706 m 1
 347 706 l 1
 347 63 l 1
 422 63 l 1
 422 0 l 1
 190 0 l 1
 190 63 l 1
 263 63 l 1
 263 631 l 1
 172 599 l 1
 172 667 l 1
 291 706 l 1
EndSplineSet
EndChar

StartChar: two
Encoding: 50 50 19
Width: 583
Flags: MW
HStem: 0 64<144 417 144 495> 656 66<256 320>
VStem: 64 80<521 521> 405 79<512.5 567> 417 78<64 194 0 194>
LayerCount: 2
Fore
SplineSet
144 521 m 1xe8
 64 521 l 1
 71 568 79 629 132 674 c 0
 172 709 226 722 279 722 c 0
 403 722 484 655 484 542 c 0
 484 483 464 443 441 407 c 0xf0
 390 329 235 161 144 64 c 1
 417 64 l 1
 417 194 l 1
 495 194 l 1
 495 0 l 1xe8
 50 0 l 1
 50 63 l 1
 99 119 148 174 198 230 c 0
 234 270 270 311 304 353 c 0
 372 434 405 485 405 538 c 0xf0
 405 596 364 656 276 656 c 0
 236 656 209 642 191 627 c 0
 156 596 149 554 144 521 c 1xe8
EndSplineSet
EndChar

StartChar: three
Encoding: 51 51 20
Width: 583
Flags: MW
HStem: -15 66<255.5 333.5 255.5 352.5> 333 67<225 250.5> 655 67<216 317>
VStem: 33 86<192 192> 414 86<509 548.5 504.5 571> 429 90<155 211>
LayerCount: 2
Fore
SplineSet
134 530 m 1xe8
 51 530 l 1
 59 635 125 722 276 722 c 0
 496 722 500 560 500 537 c 0xe8
 500 472 465 409 394 381 c 0
 382 377 370 373 357 370 c 1
 365 368 372 367 380 365 c 0
 459 343 519 282 519 194 c 0
 519 68 424 -15 281 -15 c 0
 213 -15 143 2 94 49 c 0
 42 99 36 160 33 192 c 1
 119 192 l 1
 120 174 123 148 140 119 c 1
 170 72 227 51 284 51 c 0
 383 51 429 118 429 192 c 0
 429 230 419 264 389 293 c 0xf4
 345 334 289 334 225 333 c 1
 225 400 l 1
 276 400 320 399 358 422 c 0
 396 446 414 486 414 532 c 0
 414 610 355 655 279 655 c 0
 153 655 138 558 134 530 c 1xe8
EndSplineSet
EndChar

StartChar: four
Encoding: 52 52 21
Width: 583
Flags: MW
HStem: 0 63<258 335 417 490 258 335> 197 64<119 335 35 35 417 555> 654 55<338 338>
VStem: 35 84<197 261 261 261> 335 82<63 197 63 197 261 577 577 583.5>
LayerCount: 2
Fore
SplineSet
288 709 m 1
 417 709 l 1
 417 261 l 1
 555 261 l 1
 555 197 l 1
 417 197 l 1
 417 63 l 1
 490 63 l 1
 490 0 l 1
 258 0 l 1
 258 63 l 1
 335 63 l 1
 335 197 l 1
 35 197 l 1
 35 261 l 1
 288 709 l 1
335 261 m 1
 335 577 l 2
 335 590 335 602 336 614 c 1
 336 628 337 641 338 654 c 1
 119 261 l 1
 335 261 l 1
EndSplineSet
EndChar

StartChar: five
Encoding: 53 53 22
Width: 583
Flags: MW
HStem: -16 65<272 322.5 272 373> 399 63<267.5 334> 643 63<184 417 184 184>
VStem: 58 86<193 193> 417 74<542 643 643 643> 438 81<188.5 272>
LayerCount: 2
Fore
SplineSet
83 335 m 1xe8
 113 706 l 1
 491 706 l 1
 491 542 l 1
 417 542 l 1
 417 643 l 1xe8
 184 643 l 1
 164 408 l 1
 185 426 226 462 309 462 c 0
 432 462 519 375 519 222 c 0
 519 104 458 -16 288 -16 c 0
 220 -16 163 5 125 40 c 0
 68 91 61 161 58 193 c 1
 144 193 l 1
 148 152 159 117 188 88 c 0
 213 63 251 49 293 49 c 0
 352 49 381 73 398 93 c 1
 426 123 438 160 438 217 c 0xf4
 438 327 377 399 291 399 c 0
 218 399 184 351 164 323 c 1
 83 335 l 1xe8
EndSplineSet
EndChar

StartChar: six
Encoding: 54 54 23
Width: 583
Flags: MW
HStem: -16 68<258.5 344.5 258.5 353> 395 65<261.5 341.5> 659 63<289.5 318>
VStem: 56 88<261 278 174 381> 459 81<168.5 279.5>
LayerCount: 2
Fore
SplineSet
519 545 m 1
 436 545 l 1
 419 654 330 659 306 659 c 0
 168 659 140 473 137 377 c 1
 162 405 209 460 314 460 c 0
 474 460 540 339 540 231 c 0
 540 51 407 -16 299 -16 c 0
 209 -16 149 25 116 70 c 0
 80 118 56 193 56 329 c 0
 56 433 69 563 141 648 c 0
 200 717 271 722 308 722 c 0
 395 722 438 687 455 672 c 0
 493 639 508 600 519 545 c 1
303 395 m 0
 218 395 144 331 144 225 c 0
 144 123 214 52 303 52 c 0
 386 52 459 116 459 221 c 0
 459 338 380 395 303 395 c 0
EndSplineSet
EndChar

StartChar: seven
Encoding: 55 55 24
Width: 583
Flags: MW
HStem: 0 63<154 229 313 388 154 229> 641 65<146 422 146 146>
VStem: 72 74<528 641 528 706 528 706> 154 234<0 63 0 63>
LayerCount: 2
Fore
SplineSet
72 706 m 1
 507 706 l 1
 507 643 l 1
 313 63 l 1
 388 63 l 1
 388 0 l 1
 154 0 l 1
 154 63 l 1
 229 63 l 1
 422 641 l 1
 146 641 l 1
 146 528 l 1
 72 528 l 1
 72 706 l 1
EndSplineSet
EndChar

StartChar: eight
Encoding: 56 56 25
Width: 583
Flags: MW
HStem: -16 64<265 321.5> 331 71<258.5 327> 659 64<262 327.5>
VStem: 46 88<168 192> 70 83<487 568> 433 83<490 571.5> 445 90<162.5 212.5 162.5 240>
LayerCount: 2
Fore
SplineSet
372 369 m 1xec
 380 367 389 365 396 362 c 1
 408 359 419 356 430 351 c 0
 515 315 535 237 535 188 c 0
 535 137 516 87 480 51 c 0
 426 -5 350 -16 293 -16 c 0
 237 -16 181 -7 134 22 c 0
 55 72 46 151 46 185 c 0
 46 199 48 224 58 253 c 0
 77 303 110 328 138 344 c 0xf2
 171 362 194 365 215 369 c 1
 126 391 70 441 70 533 c 0
 70 603 101 654 146 684 c 0
 179 707 230 723 294 723 c 0
 416 723 516 658 516 533 c 0
 516 447 464 395 391 374 c 0
 385 372 379 370 372 369 c 1xec
294 659 m 0
 225 659 153 616 153 529 c 0
 153 438 224 402 293 402 c 0
 377 402 433 449 433 527 c 0
 433 616 361 659 294 659 c 0
445 192 m 0xf2
 445 288 365 331 289 331 c 0
 194 331 134 273 134 190 c 0
 134 115 184 48 290 48 c 0
 384 48 445 108 445 192 c 0xf2
EndSplineSet
EndChar

StartChar: nine
Encoding: 57 57 26
Width: 583
Flags: MW
HStem: -15 63<245.5 300 240 374.5> 246 68<238 314.5 238 323.5> 656 66<227.5 292.5 203.5 344>
VStem: 40 86<192 192> 41 81<427.5 526.5 427.5 544.5> 449 81
LayerCount: 2
Fore
SplineSet
40 192 m 1xfc
 126 192 l 1
 127 179 129 165 137 144 c 0xf4
 159 83 208 48 272 48 c 0
 328 48 365 77 386 101 c 0
 444 169 447 285 449 336 c 1
 430 312 380 246 267 246 c 0
 156 246 41 318 41 480 c 0xec
 41 609 126 722 281 722 c 0
 304 722 326 719 348 714 c 0
 375 707 436 688 479 615 c 0
 513 558 530 467 530 379 c 0
 530 173 476 -15 273 -15 c 0
 218 -15 164 -2 125 25 c 0
 52 76 43 160 40 192 c 1xfc
279 656 m 0xec
 176 656 122 570 122 483 c 0
 122 372 198 314 278 314 c 0
 351 314 440 363 440 484 c 0
 440 541 409 656 279 656 c 0xec
EndSplineSet
EndChar

StartChar: colon
Encoding: 58 58 27
Width: 292
Flags: MW
HStem: 0 105<113 219 113 219> 416 105<113 219 113 219>
VStem: 113 106<0 105 0 105 416 521>
LayerCount: 2
Fore
SplineSet
113 416 m 1
 113 521 l 1
 219 521 l 1
 219 416 l 1
 113 416 l 1
113 0 m 1
 113 105 l 1
 219 105 l 1
 219 0 l 1
 113 0 l 1
EndSplineSet
EndChar

StartChar: semicolon
Encoding: 59 59 28
Width: 292
Flags: MW
HStem: -107 206<71 252 126 142> 417 104<126 231 126 231>
VStem: 126 105<417 521 417 521>
LayerCount: 2
Fore
SplineSet
126 417 m 1
 126 521 l 1
 231 521 l 1
 231 417 l 1
 126 417 l 1
71 -107 m 1
 126 99 l 1
 252 99 l 1
 142 -107 l 1
 71 -107 l 1
EndSplineSet
EndChar

StartChar: less
Encoding: 60 60 29
Width: 667
Flags: MW
HStem: -3 21<667 667> 689 20<667 667>
VStem: 0 667<-3 389 -3 389>
LayerCount: 2
Fore
SplineSet
667 61 m 1
 667 -3 l 1
 0 319 l 1
 0 389 l 1
 667 709 l 1
 667 645 l 1
 67 354 l 1
 667 61 l 1
EndSplineSet
EndChar

StartChar: equal
Encoding: 61 61 30
Width: 667
Flags: MW
HStem: 173 58<0 667 0 667> 349 59<0 667 0 667>
VStem: 0 667<173 231 173 231 349 408 173 408>
LayerCount: 2
Fore
SplineSet
667 231 m 1
 667 173 l 1
 0 173 l 1
 0 231 l 1
 667 231 l 1
667 408 m 1
 667 349 l 1
 0 349 l 1
 0 408 l 1
 667 408 l 1
EndSplineSet
EndChar

StartChar: greater
Encoding: 62 62 31
Width: 667
Flags: MW
HStem: -3 21<0 0> 689 20<0 0>
VStem: 0 667<-3 319 61 319 319 709 319 709>
LayerCount: 2
Fore
SplineSet
667 319 m 1
 0 -3 l 1
 0 61 l 1
 600 354 l 1
 0 645 l 1
 0 709 l 1
 667 389 l 1
 667 319 l 1
EndSplineSet
EndChar

StartChar: question
Encoding: 63 63 32
Width: 479
Flags: MW
HStem: 0 103<173 277 173 277> 653 68<234.5 274.5>
VStem: 13 85<481 499.5> 173 104<0 103 0 103> 184 83<175 231 231 237 175 256> 357 83<535.5 583.5>
LayerCount: 2
Fore
SplineSet
267 237 m 1xfc
 267 175 l 1
 184 175 l 1
 184 231 l 2
 184 281 188 300 242 362 c 0
 323 454 357 493 357 552 c 0
 357 615 304 653 245 653 c 0
 224 653 188 648 160 630 c 0
 99 590 98 518 98 481 c 1
 13 481 l 1
 14 512 15 580 53 637 c 0
 86 686 146 721 237 721 c 0
 374 721 440 638 440 553 c 0
 440 518 429 488 419 466 c 1
 398 425 371 396 303 321 c 0
 272 287 268 275 267 237 c 1xfc
173 0 m 1xf4
 173 103 l 1
 277 103 l 1
 277 0 l 1
 173 0 l 1xf4
EndSplineSet
EndChar

StartChar: at
Encoding: 64 64 33
Width: 896
Flags: MW
HStem: -124 40<365 521.5> 69 44<619.5 662 619.5 667> 71 45<411.5 416.5> 489 36<469.5 502.5 432 517.5> 673 39<450 586>
VStem: 69 69<146.5 288 146.5 357> 268 72<206 254.5 206 318> 537 63 573 23<372 441> 784 42<309.5 465>
LayerCount: 2
Fore
SplineSet
800 55 m 1xdf40
 824 25 l 1
 810 11 784 -17 739 -46 c 0
 665 -95 577 -124 466 -124 c 0
 217 -124 69 27 69 243 c 0
 69 471 250 712 505 712 c 0
 707 712 826 558 826 385 c 0
 826 216 719 69 615 69 c 0
 603 69 565 70 545 111 c 0
 535 132 536 151 537 167 c 1xdf40
 528 151 520 138 505 121 c 1xbf40
 475 90 435 71 398 71 c 0
 335 71 268 123 268 242 c 0
 268 394 378 525 486 525 c 0
 519 525 547 512 567 492 c 0
 584 475 590 457 596 441 c 1
 609 497 l 1
 668 497 l 1xbec0
 638 362 l 2
 629 320 600 190 600 156 c 0
 600 134 607 113 632 113 c 0
 692 113 784 236 784 383 c 0
 784 547 668 673 504 673 c 0
 396 673 305 621 244 547 c 0
 175 462 138 338 138 238 c 0
 138 55 256 -84 474 -84 c 0
 662 -84 763 17 800 55 c 1xdf40
573 392 m 0xbec0
 573 454 539 489 496 489 c 0
 443 489 412 441 402 424 c 0
 370 373 340 292 340 217 c 0
 340 195 342 182 344 174 c 0
 358 116 408 116 415 116 c 0
 462 116 498 154 521 197 c 0
 555 261 573 352 573 392 c 0xbec0
EndSplineSet
EndChar

StartChar: A
Encoding: 65 65 34
Width: 625
Flags: MW
HStem: 0 63<3 60 141 204 3 60 410 478 564 620> 224 61<206 415 206 430 187 415> 643 63<187 444 187 240 388 388 388 444>
VStem: 3 201<0 63 0 63> 187 257<643 706 643 706> 410 210<0 63 0 63>
LayerCount: 2
Fore
SplineSet
187 643 m 1xfc
 187 706 l 1
 444 706 l 1
 444 643 l 1
 388 643 l 1xe8
 564 63 l 1
 620 63 l 1
 620 0 l 1
 410 0 l 1
 410 63 l 1
 478 63 l 1
 430 224 l 1
 187 224 l 1
 141 63 l 1
 204 63 l 1
 204 0 l 1
 3 0 l 1
 3 63 l 1
 60 63 l 1xf4
 240 643 l 1
 187 643 l 1xfc
415 285 m 1
 312 633 l 1
 206 285 l 1
 415 285 l 1
EndSplineSet
EndChar

StartChar: B
Encoding: 66 66 35
Width: 583
Flags: MW
HStem: 0 63<20 94 178 280 280 302 20 94> 329 66<178 251 251 279 178 297 178 251> 643 63<20 307 20 94> 646 60<178 289 178 178>
VStem: 94 84<63 329 395 643 643 643> 431 85<513 535> 446 85<172.5 212.5>
LayerCount: 2
Fore
SplineSet
20 643 m 1xfe
 20 706 l 1
 307 706 l 1
 353 705 412 705 457 668 c 0
 493 639 516 584 516 527 c 0xdc
 516 411 438 378 413 368 c 1
 426 364 435 361 449 353 c 0
 500 323 531 268 531 197 c 0
 531 148 518 106 496 75 c 0
 446 3 373 1 304 0 c 1
 20 0 l 1
 20 63 l 1
 94 63 l 1
 94 643 l 1
 20 643 l 1xfe
289 646 m 1
 178 646 l 1
 178 395 l 1
 251 395 l 2
 307 395 368 395 406 443 c 0
 425 468 431 501 431 525 c 0
 431 545 427 567 416 587 c 0
 386 642 329 644 289 646 c 1
297 329 m 1
 178 329 l 1
 178 63 l 1
 280 63 l 2
 324 63 365 64 393 81 c 0
 420 98 446 138 446 197 c 0
 446 228 438 259 418 284 c 0xda
 384 326 334 328 297 329 c 1
EndSplineSet
EndChar

StartChar: C
Encoding: 67 67 36
Width: 583
Flags: MW
HStem: -13 63<262.5 322 262.5 361> 483 224<471 537 471 537 464 537> 659 63<299.5 345>
VStem: 45 86<321 357.5 321 359.5> 464 80<236 236> 470 67
LayerCount: 2
Fore
SplineSet
464 236 m 1xbc
 544 236 l 1
 539 184 533 114 478 54 c 0xb8
 459 33 411 -13 311 -13 c 0
 101 -13 45 164 45 343 c 0
 45 376 47 409 51 442 c 0
 57 484 73 595 145 662 c 0
 179 694 234 722 302 722 c 0
 395 722 448 681 469 642 c 1xb4
 471 707 l 1
 537 707 l 1
 537 483 l 1
 464 483 l 1xd4
 460 511 456 533 448 556 c 0xb4
 427 615 379 659 311 659 c 0
 288 659 264 655 244 644 c 0
 196 620 170 571 154 520 c 0
 133 451 131 373 131 342 c 0
 131 300 135 217 164 151 c 0
 182 111 219 50 306 50 c 0
 338 50 372 60 398 81 c 0
 455 125 461 201 464 236 c 1xbc
EndSplineSet
EndChar

StartChar: D
Encoding: 68 68 37
Width: 625
Flags: MW
HStem: 0 63<18 92 175 247 247 254 18 92> 643 63<18 274 18 92 175 175 175 270>
VStem: 92 83<63 643 63 643> 494 86<350 389>
LayerCount: 2
Fore
SplineSet
18 643 m 1
 18 706 l 1
 274 706 l 1
 354 704 451 703 519 604 c 0
 563 540 580 448 580 364 c 0
 580 336 578 307 574 279 c 0
 568 235 555 162 513 102 c 0
 446 5 358 2 289 0 c 1
 18 0 l 1
 18 63 l 1
 92 63 l 1
 92 643 l 1
 18 643 l 1
270 643 m 1
 175 643 l 1
 175 63 l 1
 247 63 l 2
 261 63 274 64 288 64 c 0
 317 65 358 67 397 93 c 0
 480 149 494 283 494 355 c 0
 494 423 486 491 453 550 c 0
 404 639 331 641 270 643 c 1
EndSplineSet
EndChar

StartChar: E
Encoding: 69 69 38
Width: 562
Flags: MW
HStem: 0 63<20 93 177 430 20 93> 343 66<177 406 177 406> 643 63<20 93 20 505 177 430 177 177>
VStem: 93 84<63 343 409 643> 430 75<63 238 0 238 485 643 643 643>
LayerCount: 2
Fore
SplineSet
20 706 m 1
 505 706 l 1
 505 485 l 1
 430 485 l 1
 430 643 l 1
 177 643 l 1
 177 409 l 1
 406 409 l 1
 406 343 l 1
 177 343 l 1
 177 63 l 1
 430 63 l 1
 430 238 l 1
 505 238 l 1
 505 0 l 1
 20 0 l 1
 20 63 l 1
 93 63 l 1
 93 643 l 1
 20 643 l 1
 20 706 l 1
EndSplineSet
EndChar

StartChar: F
Encoding: 70 70 39
Width: 500
Flags: MW
HStem: 0 63<22 93 177 251 22 93> 340 68<177 380 177 380> 643 63<22 473 22 93 177 177 177 395>
VStem: 93 84<63 340 408 643> 395 78<485 643 643 643>
LayerCount: 2
Fore
SplineSet
22 643 m 1
 22 706 l 1
 473 706 l 1
 473 485 l 1
 395 485 l 1
 395 643 l 1
 177 643 l 1
 177 408 l 1
 380 408 l 1
 380 340 l 1
 177 340 l 1
 177 63 l 1
 251 63 l 1
 251 0 l 1
 22 0 l 1
 22 63 l 1
 93 63 l 1
 93 643 l 1
 22 643 l 1
EndSplineSet
EndChar

StartChar: G
Encoding: 71 71 40
Width: 646
Flags: MW
HStem: -14 69<274.5 348.5 274.5 365> 0 21<498 498 498 565> 287 65<320 488 320 565> 479 227<490 556 490 556 481 556> 654 67<314.5 354.5>
VStem: 46 87<333.5 361.5> 489 67 497 68
LayerCount: 2
Fore
SplineSet
498 0 m 1xed
 496 70 l 1xad
 466 35 422 -14 308 -14 c 0
 139 -14 46 134 46 343 c 0
 46 380 49 475 81 556 c 0
 93 588 144 721 317 721 c 0
 412 721 457 673 488 637 c 1xae
 490 706 l 1
 556 706 l 1
 556 479 l 1
 481 479 l 1xb6
 477 508 474 538 460 569 c 0xae
 434 624 385 654 324 654 c 0
 305 654 286 651 269 645 c 0
 182 613 133 514 133 350 c 0
 133 317 135 285 140 254 c 0
 161 126 229 55 320 55 c 0
 377 55 419 81 444 111 c 0xad
 486 164 487 243 488 287 c 1
 320 287 l 1
 320 352 l 1
 565 352 l 1
 565 0 l 1
 498 0 l 1xed
EndSplineSet
EndChar

StartChar: H
Encoding: 72 72 41
Width: 646
Flags: MW
HStem: 0 63<18 93 177 251 18 93 393 467 551 625> 342 65<177 467 177 467> 643 63<18 93 18 251 177 177 177 251 393 467 551 625 551 551>
VStem: 93 84<63 342 63 407 407 643> 467 84<63 342 342 342 407 643 63 643>
LayerCount: 2
Fore
SplineSet
393 706 m 1
 625 706 l 1
 625 643 l 1
 551 643 l 1
 551 63 l 1
 625 63 l 1
 625 0 l 1
 393 0 l 1
 393 63 l 1
 467 63 l 1
 467 342 l 1
 177 342 l 1
 177 63 l 1
 251 63 l 1
 251 0 l 1
 18 0 l 1
 18 63 l 1
 93 63 l 1
 93 643 l 1
 18 643 l 1
 18 706 l 1
 251 706 l 1
 251 643 l 1
 177 643 l 1
 177 407 l 1
 467 407 l 1
 467 643 l 1
 393 643 l 1
 393 706 l 1
EndSplineSet
EndChar

StartChar: I
Encoding: 73 73 42
Width: 271
Flags: MW
HStem: 0 63<18 92 176 251 18 92> 643 63<18 251 18 92 176 176 176 251>
VStem: 92 84<63 643 63 643>
LayerCount: 2
Fore
SplineSet
18 643 m 1
 18 706 l 1
 251 706 l 1
 251 643 l 1
 176 643 l 1
 176 63 l 1
 251 63 l 1
 251 0 l 1
 18 0 l 1
 18 63 l 1
 92 63 l 1
 92 643 l 1
 18 643 l 1
EndSplineSet
EndChar

StartChar: J
Encoding: 74 74 43
Width: 396
Flags: MW
HStem: -13 65<127 138 108 160> 643 63<151 384 151 226 310 310 310 384>
VStem: 226 84<183 191 191 643>
LayerCount: 2
Fore
SplineSet
151 643 m 1
 151 706 l 1
 384 706 l 1
 384 643 l 1
 310 643 l 1
 310 191 l 2
 310 129 309 66 260 24 c 0
 227 -4 182 -13 138 -13 c 0
 116 -13 63 -10 0 10 c 1
 0 88 l 1
 41 71 84 52 132 52 c 0
 144 52 185 53 208 85 c 1
 226 108 226 135 226 183 c 2
 226 643 l 1
 151 643 l 1
EndSplineSet
EndChar

StartChar: K
Encoding: 75 75 44
Width: 604
Flags: MW
HStem: 0 63<19 93 176 251 19 93 364 434 535 594> 643 63<19 93 19 251 176 176 176 251 363 433 534 586 534 534>
VStem: 93 83<63 284 378 643> 363 223<643 706 643 706> 364 230<0 63 0 63>
LayerCount: 2
Fore
SplineSet
363 706 m 1xf0
 586 706 l 1
 586 643 l 1
 534 643 l 1xf0
 316 421 l 1
 535 63 l 1
 594 63 l 1
 594 0 l 1
 364 0 l 1
 364 63 l 1
 434 63 l 1xe8
 258 364 l 1
 176 284 l 1
 176 63 l 1
 251 63 l 1
 251 0 l 1
 19 0 l 1
 19 63 l 1
 93 63 l 1
 93 643 l 1
 19 643 l 1
 19 706 l 1
 251 706 l 1
 251 643 l 1
 176 643 l 1
 176 378 l 1
 433 643 l 1
 363 643 l 1
 363 706 l 1xf0
EndSplineSet
EndChar

StartChar: L
Encoding: 76 76 45
Width: 479
Flags: MW
HStem: 0 63<20 94 177 387 20 94> 643 63<20 252 20 94 177 177 177 252>
VStem: 94 83<63 643 63 643> 387 75<63 239 0 239>
LayerCount: 2
Fore
SplineSet
20 643 m 1
 20 706 l 1
 252 706 l 1
 252 643 l 1
 177 643 l 1
 177 63 l 1
 387 63 l 1
 387 239 l 1
 462 239 l 1
 462 0 l 1
 20 0 l 1
 20 63 l 1
 94 63 l 1
 94 643 l 1
 20 643 l 1
EndSplineSet
EndChar

StartChar: M
Encoding: 77 77 46
Width: 792
Flags: MW
HStem: 0 63<20 94 163 222 20 94 551 619 697 768> 643 63<20 222 20 94 163 163 619 619 697 697 697 768>
VStem: 94 69<63 643 63 643> 619 78<63 643 63 643>
LayerCount: 2
Fore
SplineSet
20 643 m 1
 20 706 l 1
 222 706 l 1
 394 101 l 1
 564 706 l 1
 768 706 l 1
 768 643 l 1
 697 643 l 1
 697 63 l 1
 768 63 l 1
 768 0 l 1
 551 0 l 1
 551 63 l 1
 619 63 l 1
 619 643 l 1
 439 0 l 1
 349 0 l 1
 163 643 l 1
 163 63 l 1
 222 63 l 1
 222 0 l 1
 20 0 l 1
 20 63 l 1
 94 63 l 1
 94 643 l 1
 20 643 l 1
EndSplineSet
EndChar

StartChar: N
Encoding: 78 78 47
Width: 625
Flags: MW
HStem: 0 63<20 93 169 242 20 93> 643 63<20 93 20 229 169 169 388 460 536 611 536 536>
VStem: 93 76<63 643 63 643> 460 76<69 643 0 643>
LayerCount: 2
Fore
SplineSet
388 706 m 1
 611 706 l 1
 611 643 l 1
 536 643 l 1
 536 0 l 1
 403 0 l 1
 169 643 l 1
 169 63 l 1
 242 63 l 1
 242 0 l 1
 20 0 l 1
 20 63 l 1
 93 63 l 1
 93 643 l 1
 20 643 l 1
 20 706 l 1
 229 706 l 1
 460 69 l 1
 460 643 l 1
 388 643 l 1
 388 706 l 1
EndSplineSet
EndChar

StartChar: O
Encoding: 79 79 48
Width: 625
Flags: MW
HStem: -14 68<260.5 363.5> 653 68<273 340.5 273 375>
VStem: 45 84<329 398> 495 84<338.5 416.5 338.5 439.5>
LayerCount: 2
Fore
SplineSet
45 342 m 0
 45 454 66 587 147 661 c 0
 181 692 236 721 310 721 c 0
 371 721 430 703 475 663 c 0
 557 591 579 471 579 362 c 0
 579 315 575 268 565 222 c 0
 553 163 531 102 485 54 c 0
 467 35 416 -14 311 -14 c 0
 193 -14 116 50 77 150 c 0
 51 215 45 281 45 342 c 0
315 653 m 0
 188 653 129 520 129 346 c 0
 129 312 131 277 137 243 c 0
 155 143 210 54 311 54 c 0
 462 54 495 246 495 359 c 0
 495 520 435 653 315 653 c 0
EndSplineSet
EndChar

StartChar: P
Encoding: 80 80 49
Width: 542
Flags: MW
HStem: 0 63<18 94 178 251 18 94> 283 63<178 251 178 275 178 251> 643 63<18 94 18 271 178 178 178 257>
VStem: 94 84<63 283 63 346 346 643> 420 87<467 509.5>
LayerCount: 2
Fore
SplineSet
275 283 m 1
 178 283 l 1
 178 63 l 1
 251 63 l 1
 251 0 l 1
 18 0 l 1
 18 63 l 1
 94 63 l 1
 94 643 l 1
 18 643 l 1
 18 706 l 1
 271 706 l 1
 333 705 419 704 470 628 c 0
 493 594 507 544 507 494 c 0
 507 440 492 385 456 344 c 0
 403 285 336 284 275 283 c 1
257 643 m 1
 178 643 l 1
 178 346 l 1
 251 346 l 1
 324 347 420 349 420 494 c 0
 420 525 414 562 396 589 c 0
 362 641 305 642 257 643 c 1
EndSplineSet
EndChar

StartChar: Q
Encoding: 81 81 50
Width: 625
Flags: MW
HStem: -7 21 -7 61 654 68<249 348 249 367.5>
VStem: 45 84<261 397> 495 84<324.5 412 324.5 454>
LayerCount: 2
Fore
SplineSet
557 -100 m 1xb8
 489 -159 l 1
 357 -82 332 -66 224 1 c 1
 218 3 212 5 207 7 c 0
 106 49 45 170 45 346 c 0
 45 448 65 530 93 587 c 0
 125 652 187 722 311 722 c 0
 385 722 457 693 503 636 c 0
 562 563 579 459 579 365 c 0
 579 284 566 193 535 128 c 0
 487 27 418 6 377 -7 c 1
 460 -53 478 -63 557 -100 c 1xb8
315 654 m 0
 157 654 129 456 129 347 c 0
 129 175 194 54 311 54 c 0x78
 436 54 495 189 495 364 c 0
 495 544 420 654 315 654 c 0
EndSplineSet
EndChar

StartChar: R
Encoding: 82 82 51
Width: 604
Flags: MW
HStem: 0 63<20 92 177 253 20 92 517 585> 338 65<177 280 177 307> 643 63<20 315 20 92 177 177 177 304>
VStem: 92 85<63 338 63 403 403 643> 440 84<498.5 544.5>
LayerCount: 2
Fore
SplineSet
20 643 m 1
 20 706 l 1
 315 706 l 1
 378 705 452 704 494 642 c 0
 513 615 524 572 524 533 c 0
 524 464 497 431 479 413 c 0
 451 384 421 375 393 367 c 1
 451 345 467 322 481 255 c 1
 517 63 l 1
 585 63 l 1
 585 0 l 1
 441 0 l 1
 400 246 l 1
 384 319 360 338 280 338 c 2
 177 338 l 1
 177 63 l 1
 253 63 l 1
 253 0 l 1
 20 0 l 1
 20 63 l 1
 92 63 l 1
 92 643 l 1
 20 643 l 1
304 643 m 1
 177 643 l 1
 177 403 l 1
 307 403 l 1
 337 404 376 405 407 434 c 0
 417 444 440 467 440 526 c 0
 440 563 429 594 413 612 c 0
 388 641 357 642 304 643 c 1
EndSplineSet
EndChar

StartChar: S
Encoding: 83 83 52
Width: 542
Flags: MW
HStem: -13 64<285 326.5 265.5 348.5> 0 240<47 116 47 119> 483 224<416 482 416 482 409 482> 656 65<213 262 185.5 281>
VStem: 47 70 57 77<500.5 569.5 500.5 580.5> 415 67 418 81<140.5 198.5>
LayerCount: 2
Fore
SplineSet
47 240 m 1xda
 119 240 l 1x5a
 122 215 128 165 159 120 c 1
 188 76 239 51 292 51 c 0
 361 51 418 102 418 179 c 0
 418 218 401 246 388 260 c 0x99
 363 289 326 303 230 338 c 0
 174 359 57 402 57 533 c 0
 57 628 125 721 246 721 c 0
 278 721 309 715 338 701 c 0
 369 686 393 662 407 641 c 0
 410 638 412 634 414 631 c 1x96
 416 707 l 1
 482 707 l 1
 482 483 l 1
 409 483 l 1xaa
 404 521 398 562 372 597 c 0
 349 629 308 656 254 656 c 0
 172 656 134 597 134 542 c 0x96
 134 459 202 434 260 414 c 0
 282 406 305 398 328 389 c 0
 392 364 499 319 499 183 c 0
 499 51 399 -13 298 -13 c 0
 272 -13 243 -8 215 2 c 0
 162 22 139 52 119 77 c 1x99
 116 0 l 1
 47 0 l 1
 47 240 l 1xda
EndSplineSet
EndChar

StartChar: T
Encoding: 84 84 53
Width: 562
Flags: MW
HStem: 0 63<165 238 320 394 165 238> 643 63<92 238 92 92 320 466 320 320>
VStem: 20 72<483 643 483 706 483 706> 238 82<63 643 63 643> 466 72<483 643 643 643>
LayerCount: 2
Fore
SplineSet
20 483 m 1
 20 706 l 1
 538 706 l 1
 538 483 l 1
 466 483 l 1
 466 643 l 1
 320 643 l 1
 320 63 l 1
 394 63 l 1
 394 0 l 1
 165 0 l 1
 165 63 l 1
 238 63 l 1
 238 643 l 1
 92 643 l 1
 92 483 l 1
 20 483 l 1
EndSplineSet
EndChar

StartChar: U
Encoding: 85 85 54
Width: 604
Flags: MW
HStem: -13 64<283 330.5 283 353> 643 63<9 241 9 83 166 166 166 241 364 440 521 521 521 593>
VStem: 83 83<261 268 268 643> 440 81<276 643 218 643>
LayerCount: 2
Fore
SplineSet
9 643 m 1
 9 706 l 1
 241 706 l 1
 241 643 l 1
 166 643 l 1
 166 268 l 2
 166 209 167 158 187 118 c 0
 213 66 263 51 303 51 c 0
 358 51 403 76 425 126 c 0
 439 159 440 195 440 276 c 2
 440 643 l 1
 364 643 l 1
 364 706 l 1
 593 706 l 1
 593 643 l 1
 521 643 l 1
 521 218 l 1
 520 174 519 121 484 71 c 0
 457 31 399 -13 307 -13 c 0
 232 -13 168 16 129 65 c 1
 85 123 84 189 83 261 c 1
 83 643 l 1
 9 643 l 1
EndSplineSet
EndChar

StartChar: V
Encoding: 86 86 55
Width: 625
Flags: MW
HStem: 0 21<256 360 256 256> 0 78<312 312 312 360 256 312> 643 63<0 215 0 57 145 145 145 215 417 487 565 565 565 624>
VStem: 0 215<643 706 643 706> 417 207<643 706 643 706>
LayerCount: 2
Fore
SplineSet
0 643 m 1xb8
 0 706 l 1
 215 706 l 1
 215 643 l 1
 145 643 l 1
 312 78 l 1x78
 487 643 l 1
 417 643 l 1
 417 706 l 1
 624 706 l 1
 624 643 l 1
 565 643 l 1
 360 0 l 1
 256 0 l 1
 57 643 l 1
 0 643 l 1xb8
EndSplineSet
EndChar

StartChar: W
Encoding: 87 87 56
Width: 917
Flags: MW
HStem: 0 21<206 322 206 206 606 722 606 606> 0 80<664 664 664 722 606 664> 0 87<268 268 268 322 206 268> 643 63<-1 61 -1 213 144 144 144 213 714 782 861 917 861 861>
VStem: -1 214<643 706 643 706> 714 203<643 706 643 706>
LayerCount: 2
Fore
SplineSet
714 706 m 1x9c
 917 706 l 1
 917 643 l 1
 861 643 l 1
 722 0 l 1
 606 0 l 1
 456 632 l 1
 322 0 l 1
 206 0 l 1
 61 643 l 1
 -1 643 l 1
 -1 706 l 1
 213 706 l 1
 213 643 l 1
 144 643 l 1
 268 87 l 1x3c
 399 706 l 1
 517 706 l 1
 664 80 l 1x5c
 782 643 l 1
 714 643 l 1
 714 706 l 1x9c
EndSplineSet
EndChar

StartChar: X
Encoding: 88 88 57
Width: 583
Flags: MW
HStem: 0 63<11 67 154 229 11 67 343 419 516 573> 643 63<31 91 31 258 186 186 186 258 339 413 500 559 500 500>
VStem: 11 218<0 63 0 63> 31 227<643 706 643 706> 339 220<643 706 643 706> 343 230<0 63 0 63>
LayerCount: 2
Fore
SplineSet
339 706 m 1xe8
 559 706 l 1
 559 643 l 1
 500 643 l 1xe8
 340 372 l 1
 516 63 l 1
 573 63 l 1
 573 0 l 1
 343 0 l 1
 343 63 l 1
 419 63 l 1
 291 296 l 1
 154 63 l 1
 229 63 l 1
 229 0 l 1
 11 0 l 1
 11 63 l 1
 67 63 l 1xe4
 251 367 l 1
 91 643 l 1
 31 643 l 1
 31 706 l 1
 258 706 l 1
 258 643 l 1
 186 643 l 1
 296 443 l 1xd8
 413 643 l 1
 339 643 l 1
 339 706 l 1xe8
EndSplineSet
EndChar

StartChar: Y
Encoding: 89 89 58
Width: 542
Flags: MW
HStem: 0 63<153 228 311 386 153 228> 643 63<-4 48 -4 212 137 137 137 212 355 415 497 548 497 497>
VStem: -4 216<643 706 643 706> 228 83<63 248 63 254 63 254> 355 193<643 706 643 706>
LayerCount: 2
Fore
SplineSet
355 706 m 1
 548 706 l 1
 548 643 l 1
 497 643 l 1
 311 248 l 1
 311 63 l 1
 386 63 l 1
 386 0 l 1
 153 0 l 1
 153 63 l 1
 228 63 l 1
 228 254 l 1
 48 643 l 1
 -4 643 l 1
 -4 706 l 1
 212 706 l 1
 212 643 l 1
 137 643 l 1
 274 329 l 1
 415 643 l 1
 355 643 l 1
 355 706 l 1
EndSplineSet
EndChar

StartChar: Z
Encoding: 90 90 59
Width: 542
Flags: MW
HStem: 0 63<143 420 49 49> 643 63<143 402 143 143 67 496>
VStem: 67 76<484 643> 420 76<63 241 0 241>
LayerCount: 2
Fore
SplineSet
67 484 m 1
 67 706 l 1
 496 706 l 1
 496 643 l 1
 143 63 l 1
 420 63 l 1
 420 241 l 1
 496 241 l 1
 496 0 l 1
 49 0 l 1
 49 63 l 1
 402 643 l 1
 143 643 l 1
 143 484 l 1
 67 484 l 1
EndSplineSet
EndChar

StartChar: bracketleft
Encoding: 91 91 60
Width: 292
Flags: MW
HStem: -197 67<173 267 173 267> 657 66<173 267 173 173>
VStem: 89 84<-130 657 -130 723 -130 723>
LayerCount: 2
Fore
SplineSet
89 -197 m 1
 89 723 l 1
 267 723 l 1
 267 657 l 1
 173 657 l 1
 173 -130 l 1
 267 -130 l 1
 267 -197 l 1
 89 -197 l 1
EndSplineSet
EndChar

StartChar: backslash
Encoding: 92 92 61
Width: 375
Flags: MW
HStem: -104 917<-6 378 -6 300>
VStem: -6 384
LayerCount: 2
Fore
SplineSet
378 -104 m 1
 300 -104 l 1
 -6 813 l 1
 74 813 l 1
 378 -104 l 1
EndSplineSet
EndChar

StartChar: bracketright
Encoding: 93 93 62
Width: 292
Flags: MW
HStem: -197 67<23 118 23 202 23 118> 657 66<23 118 23 202>
VStem: 118 84<-130 657 657 657>
LayerCount: 2
Fore
SplineSet
23 723 m 1
 202 723 l 1
 202 -197 l 1
 23 -197 l 1
 23 -130 l 1
 118 -130 l 1
 118 657 l 1
 23 657 l 1
 23 723 l 1
EndSplineSet
EndChar

StartChar: asciicircum
Encoding: 94 94 63
Width: 729
Flags: MW
HStem: 623 83<366 366> 686 20<336 399 399 399>
VStem: 156 417<350 350>
LayerCount: 2
Fore
SplineSet
399 706 m 1x60
 573 350 l 1
 497 350 l 1
 366 623 l 1xa0
 232 350 l 1
 156 350 l 1
 336 706 l 1
 399 706 l 1x60
EndSplineSet
EndChar

StartChar: underscore
Encoding: 95 95 64
Width: 500
Flags: MW
HStem: -125 50<0 500 0 500>
VStem: 0 500<-125 -75 -125 -75>
LayerCount: 2
Fore
SplineSet
500 -75 m 1
 500 -125 l 1
 0 -125 l 1
 0 -75 l 1
 500 -75 l 1
EndSplineSet
EndChar

StartChar: quoteleft
Encoding: 8216 8216 65
Width: 250
Flags: MW
HStem: 486 220<32 220 148 153> 686 20<148 220 220 220>
VStem: 32 188
LayerCount: 2
Fore
SplineSet
32 486 m 1xe0
 148 706 l 1
 220 706 l 1
 153 486 l 1
 32 486 l 1xe0
EndSplineSet
EndChar

StartChar: a
Encoding: 97 97 66
Width: 521
Flags: MW
HStem: -13 64<189.5 241.5 189.5 249> 0 63<429 501 429 501> 259 58<255 292.5> 467 66<235 267>
VStem: 41 85<120 165.5> 348 81<61 342 315 342 63 349 63 349>
LayerCount: 2
Fore
SplineSet
429 342 m 1x7c
 429 63 l 1
 501 63 l 1
 501 0 l 1
 353 0 l 1x7c
 348 61 l 1
 328 35 290 -13 208 -13 c 0xbc
 105 -13 41 56 41 142 c 0
 41 189 61 236 93 265 c 0
 140 306 217 317 289 317 c 0
 308 317 329 316 348 315 c 1
 348 349 l 1
 347 387 346 423 318 447 c 0
 303 459 280 467 254 467 c 0
 216 467 158 450 152 378 c 1
 66 378 l 1
 70 410 75 454 115 490 c 0
 143 515 190 533 252 533 c 0
 304 533 358 518 392 479 c 0
 426 440 427 392 429 342 c 1x7c
348 255 m 1
 322 257 303 259 282 259 c 0
 228 259 204 249 195 246 c 0
 150 228 126 189 126 146 c 0
 126 94 159 51 220 51 c 0
 263 51 292 70 308 86 c 0xbc
 340 117 346 153 348 255 c 1
EndSplineSet
EndChar

StartChar: b
Encoding: 98 98 67
Width: 562
Flags: MW
HStem: -12 69<299 312.5 279 354> 0 63<20 94 20 165 20 94> 468 65<291.5 333> 643 63<20 94 20 176>
VStem: 94 82<231 293 463 643 643 643> 438 87<237 280.5>
LayerCount: 2
Fore
SplineSet
20 706 m 1x7c
 176 706 l 1
 176 463 l 1
 185 475 192 484 206 496 c 0
 225 512 262 533 316 533 c 0
 456 533 525 417 525 265 c 0
 525 209 518 152 493 101 c 0
 457 28 390 -12 318 -12 c 0
 280 -12 240 0 211 23 c 0
 188 41 176 61 167 77 c 1xbc
 165 0 l 1
 20 0 l 1
 20 63 l 1
 94 63 l 1
 94 643 l 1
 20 643 l 1
 20 706 l 1x7c
304 468 m 0
 279 468 255 460 235 442 c 0
 189 403 176 330 176 256 c 0
 176 206 185 143 212 106 c 0
 224 88 254 57 304 57 c 0
 321 57 340 61 357 70 c 0
 421 104 438 185 438 257 c 0
 438 304 433 352 412 394 c 0
 396 425 362 468 304 468 c 0
EndSplineSet
EndChar

StartChar: c
Encoding: 99 99 68
Width: 458
Flags: MW
HStem: -13 65<222 264.5 222 280> 338 179<370 433 370 433 363 433> 468 65<237 270 196 273>
VStem: 39 85<223.5 269 223.5 300> 362 79<175 175> 367 65
LayerCount: 2
Fore
SplineSet
362 175 m 1xbc
 441 175 l 1
 438 146 429 70 367 23 c 0xb8
 348 8 310 -13 250 -13 c 0
 128 -13 87 62 75 83 c 0
 47 134 39 193 39 252 c 0
 39 348 59 407 83 447 c 0
 113 496 161 533 231 533 c 0
 309 533 343 490 365 463 c 1xb4
 370 517 l 1
 433 517 l 1
 433 338 l 1
 363 338 l 1xd4
 359 358 354 380 341 405 c 0xb4
 327 432 297 468 249 468 c 0
 225 468 203 459 187 446 c 0
 166 429 149 401 139 367 c 0
 127 329 124 289 124 249 c 0
 124 198 130 146 157 103 c 0
 170 82 196 52 248 52 c 0
 281 52 309 66 327 86 c 0
 355 117 360 160 362 175 c 1xbc
EndSplineSet
EndChar

StartChar: d
Encoding: 100 100 69
Width: 562
Flags: MW
HStem: -12 66<229 256> 0 63<469 544 469 544> 462 71<222 286.5> 643 63<308 387 308 469>
VStem: 39 87<242 326 242 333> 387 82<227.5 282.5 461 643 643 643>
LayerCount: 2
Fore
SplineSet
308 706 m 1x7c
 469 706 l 1
 469 63 l 1
 544 63 l 1
 544 0 l 1
 397 0 l 1
 396 71 l 1x7c
 383 51 368 30 342 14 c 1
 312 -6 270 -12 242 -12 c 0xbc
 106 -12 39 115 39 261 c 0
 39 405 111 533 247 533 c 0
 328 533 364 489 387 461 c 1
 387 643 l 1
 308 643 l 1
 308 706 l 1x7c
259 462 m 0
 185 462 126 389 126 263 c 0
 126 221 130 180 146 142 c 0
 164 100 201 54 257 54 c 0
 287 54 318 69 340 94 c 0xbc
 374 133 387 197 387 258 c 0
 387 307 378 364 361 396 c 0
 348 422 314 462 259 462 c 0
EndSplineSet
EndChar

StartChar: e
Encoding: 101 101 70
Width: 521
Flags: MW
HStem: -12 66<242.5 287.5 227 316> 257 62<126 397 126 483 124 397> 468 65<235 294.5>
VStem: 37 92 397 86<257 319>
LayerCount: 2
Fore
SplineSet
389 164 m 1
 472 164 l 1
 453 40 370 -12 262 -12 c 0
 223 -12 174 -4 135 23 c 0
 67 69 37 162 37 258 c 0
 37 353 63 450 142 501 c 0
 171 519 210 533 260 533 c 0
 420 533 458 410 467 381 c 0
 483 330 483 296 483 257 c 1
 124 257 l 1
 123 234 123 209 129 179 c 0
 143 109 188 54 266 54 c 0
 309 54 338 73 354 90 c 0
 379 116 386 147 389 164 c 1
126 319 m 1
 397 319 l 1
 387 421 328 468 261 468 c 0
 194 468 164 428 150 403 c 0
 131 370 129 343 126 319 c 1
EndSplineSet
EndChar

StartChar: f
Encoding: 102 102 71
Width: 292
Flags: MW
HStem: 0 63<24 98 182 257 24 98> 458 63<24 98 24 98 182 281> 656 64<247.5 251.5 218.5 265> 693 20<308 308>
VStem: 98 84<63 458 63 458 521 554 554 554>
LayerCount: 2
Fore
SplineSet
98 521 m 1xd8
 98 554 l 1
 99 609 99 650 132 685 c 1
 161 714 198 720 239 720 c 0xe8
 264 720 282 717 308 713 c 1xd8
 308 648 l 1
 291 652 274 656 256 656 c 0
 239 656 221 652 208 642 c 0xe8
 182 622 182 597 182 555 c 2
 182 521 l 1
 281 521 l 1
 281 458 l 1
 182 458 l 1
 182 63 l 1
 257 63 l 1
 257 0 l 1
 24 0 l 1
 24 63 l 1
 98 63 l 1
 98 458 l 1
 24 458 l 1
 24 521 l 1
 98 521 l 1xd8
EndSplineSet
EndChar

StartChar: g
Encoding: 103 103 72
Width: 542
Flags: MW
HStem: -223 67<250 269 250 298> 0 69<229.5 259.5> 458 63<470 545 470 470> 466 67<243.5 247 170 280.5>
VStem: 38 85<257 297.5 257 340> 387 82<-4 78 78 78>
LayerCount: 2
Fore
SplineSet
387 -4 m 2xec
 387 78 l 1
 371 56 357 37 326 21 c 0
 306 10 277 0 242 0 c 0
 190 0 141 21 103 63 c 0
 85 84 38 138 38 275 c 0
 38 405 99 533 241 533 c 0
 253 533 265 532 276 530 c 0
 313 524 349 508 378 472 c 0
 384 464 388 457 393 449 c 1xdc
 397 521 l 1
 545 521 l 1
 545 458 l 1
 470 458 l 1
 469 319 469 180 469 40 c 0
 469 -58 469 -116 420 -166 c 0
 388 -199 334 -223 262 -223 c 0
 209 -223 155 -209 115 -176 c 1
 62 -134 56 -82 53 -59 c 1
 139 -59 l 1
 142 -75 145 -90 160 -110 c 0
 190 -149 237 -156 263 -156 c 0
 275 -156 308 -155 334 -138 c 1
 387 -107 387 -52 387 -4 c 2xec
256 466 m 0
 231 466 208 457 192 445 c 0
 133 404 123 323 123 272 c 0
 123 242 126 211 134 182 c 0
 155 109 203 69 256 69 c 0
 285 69 315 83 334 101 c 0
 374 139 388 203 388 266 c 0
 388 305 384 345 369 382 c 0
 346 436 305 466 256 466 c 0
EndSplineSet
EndChar

StartChar: h
Encoding: 104 104 73
Width: 583
Flags: MW
HStem: 0 63<21 94 178 252 21 94 337 409 493 564> 468 65<298 330> 643 63<21 94 21 178>
VStem: 94 84<63 258 446 643 643 643> 409 84<63 351 351 351>
LayerCount: 2
Fore
SplineSet
21 706 m 1
 178 706 l 1
 178 446 l 1
 199 481 233 533 334 533 c 0
 376 533 417 522 449 494 c 0
 492 455 493 404 493 364 c 2
 493 63 l 1
 564 63 l 1
 564 0 l 1
 337 0 l 1
 337 63 l 1
 409 63 l 1
 409 351 l 1
 408 380 407 412 385 437 c 0
 372 452 347 468 313 468 c 0
 283 468 249 457 225 433 c 0
 180 389 179 316 178 258 c 1
 178 63 l 1
 252 63 l 1
 252 0 l 1
 21 0 l 1
 21 63 l 1
 94 63 l 1
 94 643 l 1
 21 643 l 1
 21 706 l 1
EndSplineSet
EndChar

StartChar: i
Encoding: 105 105 74
Width: 271
Flags: MW
HStem: 0 63<22 99 182 256 22 99> 458 63<22 182 22 99> 625 81<85 182 85 182>
VStem: 99 83<63 458 458 458>
LayerCount: 2
Fore
SplineSet
85 706 m 1
 182 706 l 1
 182 625 l 1
 85 625 l 1
 85 706 l 1
22 458 m 1
 22 521 l 1
 182 521 l 1
 182 63 l 1
 256 63 l 1
 256 0 l 1
 22 0 l 1
 22 63 l 1
 99 63 l 1
 99 458 l 1
 22 458 l 1
EndSplineSet
EndChar

StartChar: j
Encoding: 106 106 75
Width: 250
Flags: MW
HStem: -223 66<10 45.5> -213 21<-58 -58> 458 63<12 88 12 172> 626 81<74 171 74 171>
VStem: 74 97<626 707 626 707> 88 84<-44 458 458 458>
LayerCount: 2
Fore
SplineSet
74 626 m 1xbc
 74 707 l 1
 171 707 l 1
 171 626 l 1
 74 626 l 1xbc
12 521 m 1xb4
 172 521 l 1
 172 -44 l 1
 171 -97 171 -144 139 -181 c 0
 111 -213 67 -223 24 -223 c 0xb4
 -4 -223 -30 -218 -58 -213 c 1x74
 -58 -145 l 1
 -39 -151 -19 -157 4 -157 c 0
 89 -157 88 -89 88 -54 c 2
 88 458 l 1
 12 458 l 1
 12 521 l 1xb4
EndSplineSet
EndChar

StartChar: k
Encoding: 107 107 76
Width: 521
Flags: MW
HStem: 0 63<21 94 177 242 21 94 314 375 471 519> 458 63<289 359 289 502 449 449 449 502> 643 63<21 94 21 177>
VStem: 94 83<63 206 285 643 643 643> 289 213<458 521 458 521> 314 205<0 63 0 63>
LayerCount: 2
Fore
SplineSet
21 706 m 1xf4
 177 706 l 1
 177 285 l 1
 359 458 l 1
 289 458 l 1
 289 521 l 1
 502 521 l 1
 502 458 l 1
 449 458 l 1xf8
 314 333 l 1
 471 63 l 1
 519 63 l 1
 519 0 l 1
 314 0 l 1
 314 63 l 1
 375 63 l 1
 254 276 l 1
 177 206 l 1
 177 63 l 1
 242 63 l 1
 242 0 l 1
 21 0 l 1
 21 63 l 1
 94 63 l 1
 94 643 l 1
 21 643 l 1
 21 706 l 1xf4
EndSplineSet
EndChar

StartChar: l
Encoding: 108 108 77
Width: 271
Flags: MW
HStem: 0 63<23 96 180 253 23 96> 643 63<23 180 23 96>
VStem: 96 84<63 643 643 643>
LayerCount: 2
Fore
SplineSet
23 643 m 1
 23 706 l 1
 180 706 l 1
 180 63 l 1
 253 63 l 1
 253 0 l 1
 23 0 l 1
 23 63 l 1
 96 63 l 1
 96 643 l 1
 23 643 l 1
EndSplineSet
EndChar

StartChar: m
Encoding: 109 109 78
Width: 812
Flags: MW
HStem: 0 63<29 101 185 260 29 101 309 371 453 511 566 639 723 798> 458 63<29 101 29 177> 464 68<282.5 308.5 550.5 578.5>
VStem: 101 84<63 264 63 458> 371 82<63 246 63 322 63 353.5> 639 84<63 312 312 324.5>
CounterMasks: 2 1c 1c
LayerCount: 2
Fore
SplineSet
177 521 m 1xdc
 180 448 l 1
 190 469 220 532 315 532 c 0
 326 532 349 531 373 522 c 0
 426 501 439 463 447 439 c 1
 452 451 457 465 468 481 c 1
 482 499 514 532 580 532 c 0
 659 532 692 487 701 472 c 0
 722 438 722 400 723 351 c 1
 723 63 l 1
 798 63 l 1
 798 0 l 1
 566 0 l 1
 566 63 l 1
 639 63 l 1
 639 312 l 2
 639 337 639 362 637 387 c 0
 636 402 633 417 626 430 c 0
 614 452 591 464 566 464 c 0
 535 464 507 448 489 423 c 1
 454 378 453 316 453 246 c 2
 453 63 l 1
 511 63 l 1
 511 0 l 1
 309 0 l 1
 309 63 l 1
 371 63 l 1
 371 322 l 2
 371 385 370 408 360 429 c 1
 345 456 320 464 297 464 c 0
 268 464 248 451 236 440 c 0xbc
 186 396 185 318 185 264 c 2
 185 63 l 1
 260 63 l 1
 260 0 l 1
 29 0 l 1
 29 63 l 1
 101 63 l 1
 101 458 l 1
 29 458 l 1
 29 521 l 1
 177 521 l 1xdc
EndSplineSet
EndChar

StartChar: n
Encoding: 110 110 79
Width: 583
Flags: MW
HStem: 0 63<26 98 182 257 26 98 334 407 491 567> 458 63<26 98 26 179> 467 67<306 324>
VStem: 98 84<63 243> 407 84<63 327 327 350 63 355>
LayerCount: 2
Fore
SplineSet
491 350 m 2xd8
 491 63 l 1
 567 63 l 1
 567 0 l 1
 334 0 l 1
 334 63 l 1
 407 63 l 1
 407 327 l 2
 407 383 406 421 374 447 c 0
 357 462 334 467 314 467 c 0
 278 467 244 451 222 422 c 1xb8
 185 376 183 305 182 243 c 1
 182 63 l 1
 257 63 l 1
 257 0 l 1
 26 0 l 1
 26 63 l 1
 98 63 l 1
 98 458 l 1
 26 458 l 1
 26 521 l 1
 179 521 l 1
 182 440 l 1xd8
 187 451 194 466 207 481 c 0
 232 510 277 534 335 534 c 0
 369 534 403 527 431 508 c 0xb8
 490 469 491 407 491 350 c 2xd8
EndSplineSet
EndChar

StartChar: o
Encoding: 111 111 80
Width: 521
Flags: MW
HStem: -13 67<236 301.5 214.5 318> 467 65
VStem: 38 84<238.5 293> 398 84<238 288>
LayerCount: 2
Fore
SplineSet
38 251 m 0
 38 335 56 424 115 482 c 0
 187 552 312 536 360 514 c 0
 434 481 482 391 482 267 c 0
 482 209 471 133 433 74 c 0
 420 52 377 -13 259 -13 c 0
 213 -13 156 -3 113 38 c 0
 63 85 38 161 38 251 c 0
263 467 m 0
 245 467 225 463 207 454 c 0
 140 421 122 339 122 259 c 0
 122 218 125 181 139 145 c 0
 145 127 172 54 257 54 c 0
 346 54 398 131 398 261 c 0
 398 315 387 366 373 395 c 0
 360 421 329 467 263 467 c 0
EndSplineSet
EndChar

StartChar: p
Encoding: 112 112 81
Width: 562
Flags: MW
HStem: -203 63<20 94 178 253 20 94> -13 68<279.5 318 279 373.5> 458 63<20 94 20 167> 461 72<276 335.5 276 351.5>
VStem: 94 84<-140 56 -140 458> 439 84<232 300 167 317>
LayerCount: 2
Fore
SplineSet
167 521 m 1xec
 170 448 l 1
 197 482 236 533 316 533 c 0
 355 533 407 520 450 477 c 0xdc
 506 421 523 340 523 260 c 0
 523 74 425 -13 322 -13 c 0
 237 -13 195 36 178 56 c 1
 178 -140 l 1
 253 -140 l 1
 253 -203 l 1
 20 -203 l 1
 20 -140 l 1
 94 -140 l 1
 94 458 l 1
 20 458 l 1
 20 521 l 1
 167 521 l 1xec
307 461 m 0
 213 461 176 362 176 254 c 0
 176 215 181 176 196 140 c 0
 216 89 252 55 306 55 c 0
 330 55 353 63 371 76 c 0
 427 115 439 200 439 264 c 0
 439 370 396 461 307 461 c 0
EndSplineSet
EndChar

StartChar: q
Encoding: 113 113 82
Width: 562
Flags: MW
HStem: -203 63<310 385 469 543 310 385> -13 68<231 271 231 283> 458 63<469 543 469 469> 461 72<213 286.5 213 302.5>
VStem: 39 84<255 291> 385 84<-140 56 56 56>
LayerCount: 2
Fore
SplineSet
385 -140 m 1xec
 385 56 l 1
 368 36 325 -13 241 -13 c 0
 137 -13 39 74 39 260 c 0
 39 322 49 384 80 437 c 0
 117 499 180 533 246 533 c 0
 327 533 366 482 393 448 c 1xdc
 396 521 l 1
 543 521 l 1
 543 458 l 1
 469 458 l 1
 469 -140 l 1
 543 -140 l 1
 543 -203 l 1
 310 -203 l 1
 310 -140 l 1
 385 -140 l 1xec
386 254 m 0
 386 362 350 461 255 461 c 0
 166 461 123 370 123 264 c 0
 123 246 124 228 126 210 c 0
 130 184 135 157 146 133 c 0
 168 86 205 55 257 55 c 0
 285 55 314 65 338 91 c 0
 374 131 386 196 386 254 c 0
EndSplineSet
EndChar

StartChar: r
Encoding: 114 114 83
Width: 354
Flags: MW
HStem: 0 63<25 99 182 258 25 99> 444 86<288 312 288 316> 458 63<25 99 25 170> 504 20<351 351>
VStem: 99 83<63 266 63 458>
LayerCount: 2
Fore
SplineSet
170 521 m 1xa8
 173 437 l 1xa8
 182 457 191 477 215 498 c 0
 240 519 272 530 304 530 c 0xc8
 320 530 333 527 351 524 c 1x98
 351 440 l 1
 336 442 323 444 309 444 c 0
 256 444 227 416 215 401 c 0xc8
 182 360 182 309 182 266 c 2
 182 63 l 1
 258 63 l 1
 258 0 l 1
 25 0 l 1
 25 63 l 1
 99 63 l 1
 99 458 l 1
 25 458 l 1
 25 521 l 1
 170 521 l 1xa8
EndSplineSet
EndChar

StartChar: s
Encoding: 115 115 84
Width: 437
Flags: MW
HStem: -13 66<225.5 255.5 199.5 291.5> 0 180<37 101 37 105> 346 175<326 390 326 390 323 390> 468 65<177 225>
VStem: 37 66 40 81<384 414 384 434> 320 81<111 141.5> 324 65
LayerCount: 2
Fore
SplineSet
37 180 m 1xd9
 105 180 l 1x59
 109 158 114 134 130 109 c 0
 139 95 171 53 228 53 c 0
 283 53 320 89 320 133 c 0
 320 150 314 161 312 166 c 0
 301 188 282 201 259 212 c 0x9a
 240 221 138 257 116 268 c 0
 99 276 40 306 40 386 c 0
 40 482 116 533 191 533 c 0
 273 533 309 484 323 465 c 1x95
 326 521 l 1
 390 521 l 1
 390 346 l 1
 323 346 l 1xa9
 320 363 317 386 307 405 c 0
 286 445 246 468 204 468 c 0
 150 468 121 433 121 395 c 0
 121 373 132 356 141 347 c 0x95
 157 332 180 324 222 310 c 0
 307 281 401 249 401 138 c 0
 401 55 345 -13 238 -13 c 0
 213 -13 192 -8 175 -1 c 0
 136 13 121 36 105 59 c 1x9a
 101 0 l 1
 37 0 l 1
 37 180 l 1xd9
EndSplineSet
EndChar

StartChar: t
Encoding: 116 116 85
Width: 313
Flags: MW
HStem: -10 67<209 236.5> 458 63<13 90 13 90 174 288>
VStem: 90 84<124 458 124 458 124 458 521 633 633 633>
LayerCount: 2
Fore
SplineSet
90 633 m 1
 174 651 l 1
 174 521 l 1
 288 521 l 1
 288 458 l 1
 174 458 l 1
 174 124 l 1
 175 92 178 57 240 57 c 0
 258 57 276 60 295 63 c 1
 295 -3 l 1
 268 -7 248 -10 225 -10 c 0
 92 -10 90 65 90 121 c 2
 90 458 l 1
 13 458 l 1
 13 521 l 1
 90 521 l 1
 90 633 l 1
EndSplineSet
EndChar

StartChar: u
Encoding: 117 117 86
Width: 542
Flags: MW
HStem: -12 67<250.5 282> 0 63<453 527 453 527> 458 63<5 162 5 79 296 370>
VStem: 79 83<170 458 458 458> 370 83<288 458 458 458>
LayerCount: 2
Fore
SplineSet
5 458 m 1x78
 5 521 l 1
 162 521 l 1
 162 170 l 1
 163 140 165 99 197 74 c 0
 217 58 243 55 258 55 c 0xb8
 363 55 369 198 370 288 c 1
 370 458 l 1
 296 458 l 1
 296 521 l 1
 453 521 l 1
 453 63 l 1
 527 63 l 1
 527 0 l 1
 382 0 l 1x78
 377 72 l 1
 363 46 333 -12 231 -12 c 0
 204 -12 165 -7 131 20 c 0xb8
 80 62 79 123 79 166 c 2
 79 458 l 1
 5 458 l 1x78
EndSplineSet
EndChar

StartChar: v
Encoding: 118 118 87
Width: 500
Flags: MW
HStem: 0 21<200 304 200 200> 0 81<257 257 257 304 200 257> 458 63<-1 53 -1 207 139 139 139 207 299 372 450 503 450 450>
VStem: -1 208<458 521 458 521> 299 204<458 521 458 521>
LayerCount: 2
Fore
SplineSet
299 521 m 1xb8
 503 521 l 1
 503 458 l 1
 450 458 l 1
 304 0 l 1
 200 0 l 1
 53 458 l 1
 -1 458 l 1
 -1 521 l 1
 207 521 l 1
 207 458 l 1
 139 458 l 1
 257 81 l 1x78
 372 458 l 1
 299 458 l 1
 299 521 l 1xb8
EndSplineSet
EndChar

StartChar: w
Encoding: 119 119 88
Width: 833
Flags: MW
HStem: 0 88<243 243 243 289 186 243> 458 63<1 213 1 56 139 139 139 213 630 702 778 778 778 830>
VStem: 1 212<458 521 458 521> 630 200<458 521 458 521>
LayerCount: 2
Fore
SplineSet
1 458 m 1
 1 521 l 1
 213 521 l 1
 213 458 l 1
 139 458 l 1
 243 88 l 1
 368 521 l 1
 474 521 l 1
 598 88 l 1
 702 458 l 1
 630 458 l 1
 630 521 l 1
 830 521 l 1
 830 458 l 1
 778 458 l 1
 647 0 l 1
 543 0 l 1
 416 440 l 1
 289 0 l 1
 186 0 l 1
 56 458 l 1
 1 458 l 1
EndSplineSet
EndChar

StartChar: x
Encoding: 120 120 89
Width: 479
Flags: MW
HStem: 0 63<4 55 138 199 4 55 263 329 423 473> 458 63<16 212 16 70 165 165 165 212 16 269 269 317 403 403 403 459>
VStem: 4 195<0 63 0 63> 16 196<458 521 458 521> 263 210<0 63 0 63> 269 190<458 521 458 521>
LayerCount: 2
Fore
SplineSet
16 458 m 1xf4
 16 521 l 1
 212 521 l 1
 212 458 l 1
 165 458 l 1
 242 333 l 1
 317 458 l 1
 269 458 l 1
 269 521 l 1
 459 521 l 1
 459 458 l 1
 403 458 l 1xd4
 284 276 l 1
 423 63 l 1
 473 63 l 1
 473 0 l 1
 263 0 l 1
 263 63 l 1
 329 63 l 1
 234 212 l 1
 138 63 l 1
 199 63 l 1
 199 0 l 1
 4 0 l 1
 4 63 l 1
 55 63 l 1xe8
 194 268 l 1
 70 458 l 1
 16 458 l 1xf4
EndSplineSet
EndChar

StartChar: y
Encoding: 121 121 90
Width: 521
Flags: MW
HStem: -223 67<102.5 140 87 169.5> -211 21<34 34> 458 63<2 211 2 55 144 144 144 211 318 386 466 466 466 518>
VStem: 2 209<458 521 458 521> 318 200<458 521 458 521>
LayerCount: 2
Fore
SplineSet
2 458 m 1xb8
 2 521 l 1
 211 521 l 1
 211 458 l 1
 144 458 l 1
 266 96 l 1
 386 458 l 1
 318 458 l 1
 318 521 l 1
 518 521 l 1
 518 458 l 1
 466 458 l 1
 283 -63 l 2
 250 -156 221 -223 118 -223 c 0xb8
 87 -223 61 -217 34 -211 c 1x78
 34 -137 l 1
 52 -146 72 -156 102 -156 c 0
 178 -156 198 -95 224 -9 c 1
 55 458 l 1
 2 458 l 1xb8
EndSplineSet
EndChar

StartChar: z
Encoding: 122 122 91
Width: 437
Flags: MW
HStem: 0 63<118 335 16 16> 457 64<100 304 100 100>
VStem: 25 75<349 457 349 521 349 521> 335 74<63 179 0 179>
LayerCount: 2
Fore
SplineSet
25 349 m 1
 25 521 l 1
 409 521 l 1
 409 458 l 1
 118 63 l 1
 335 63 l 1
 335 179 l 1
 409 179 l 1
 409 0 l 1
 16 0 l 1
 16 63 l 1
 304 457 l 1
 100 457 l 1
 100 349 l 1
 25 349 l 1
EndSplineSet
EndChar

StartChar: braceleft
Encoding: 123 123 92
Width: 354
Flags: MW
HStem: -196 67<326 326> 656 67<326 326>
VStem: 55 85<261 266 261 298 261 298> 139 87<3 8 8 38 -11 72 -11 122.5 475 518>
LayerCount: 2
Fore
SplineSet
326 723 m 1xd0
 326 656 l 1
 295 654 267 651 248 628 c 0
 226 603 226 557 226 518 c 2
 226 475 l 1xd0
 225 354 225 285 140 266 c 1
 140 261 l 1xe0
 156 258 191 249 211 206 c 1
 225 173 225 134 226 38 c 1
 226 8 l 2
 226 -30 226 -76 248 -101 c 0
 267 -124 295 -127 326 -129 c 1
 326 -196 l 1
 273 -195 217 -194 178 -154 c 0
 139 -114 139 -59 139 3 c 2
 139 72 l 2xd0
 139 173 132 224 55 229 c 1xe0
 55 298 l 1
 132 303 139 353 139 455 c 2
 139 522 l 2
 139 587 140 637 174 676 c 0
 213 721 271 722 326 723 c 1xd0
EndSplineSet
EndChar

StartChar: bar
Encoding: 124 124 93
Width: 229
Flags: MW
HStem: -250 1000<85 145 85 145>
VStem: 85 60<-250 750 -250 750>
LayerCount: 2
Fore
SplineSet
145 750 m 1
 145 -250 l 1
 85 -250 l 1
 85 750 l 1
 145 750 l 1
EndSplineSet
EndChar

StartChar: braceright
Encoding: 125 125 94
Width: 354
Flags: MW
HStem: -196 67<56 56> 656 67<56 56>
VStem: 156 87<9 52 52 52 489 519 519 523> 241 85<261 298 266 298>
LayerCount: 2
Fore
SplineSet
56 -196 m 1xe0
 56 -129 l 1
 87 -127 115 -124 134 -101 c 0
 156 -76 156 -30 156 9 c 2
 156 52 l 1xe0
 157 173 157 241 241 261 c 1
 241 266 l 1xd0
 225 269 190 278 171 321 c 0
 157 354 156 393 156 489 c 2
 156 519 l 2
 156 557 156 603 134 628 c 0
 115 651 87 654 56 656 c 1
 56 723 l 1
 109 722 165 721 204 681 c 0
 242 641 243 586 243 523 c 2
 243 455 l 2xe0
 243 353 250 303 326 298 c 1xd0
 327 229 l 1
 250 224 243 174 243 72 c 2
 243 5 l 2
 243 -60 242 -110 208 -149 c 0
 169 -194 111 -195 56 -196 c 1xe0
EndSplineSet
EndChar

StartChar: asciitilde
Encoding: 126 126 95
Width: 729
Flags: MW
HStem: 223 70<458 490 458 494.5> 294 69<251.5 273>
VStem: 134 461<284 300>
LayerCount: 2
Fore
SplineSet
564 355 m 1
 595 300 l 1
 562 259 522 223 467 223 c 0
 438 223 415 233 370 254 c 1
 341 269 l 2
 320 279 288 294 258 294 c 0
 245 294 232 291 221 285 c 0
 205 276 201 272 167 229 c 1
 134 284 l 1
 149 306 187 363 257 363 c 0
 296 363 332 346 370 328 c 2
 402 313 l 2
 435 298 449 293 467 293 c 0
 513 293 543 329 564 355 c 1
EndSplineSet
EndChar

StartChar: exclamdown
Encoding: 161 161 96
Width: 292
Flags: MW
HStem: 0 21<72 72 72 175> 506 20<80 165 165 165> 602 104<72 175 72 175>
VStem: 72 103<0 0 602 706> 76 94
LayerCount: 2
Fore
SplineSet
72 706 m 1xf0
 175 706 l 1
 175 602 l 1
 72 602 l 1
 72 706 l 1xf0
72 0 m 1xe8
 80 526 l 1
 165 526 l 1
 175 0 l 1
 72 0 l 1xe8
EndSplineSet
EndChar

StartChar: cent
Encoding: 162 162 97
Width: 479
Flags: MW
HStem: -10 21<283 283> -9 21<216 216> 338 179<373 436 373 436 366 436> 512 20<217 217>
VStem: 42 85<233.5 269.5 233.5 276> 215 68 216 71 219 63<58 462 57 462> 365 79<175 175> 370 65
LayerCount: 2
Fore
SplineSet
289 635 m 1x5b40
 287 525 l 1x6a40
 314 518 339 501 368 463 c 1
 373 517 l 1
 436 517 l 1
 436 338 l 1
 366 338 l 1
 361 363 353 401 326 433 c 0
 305 458 289 461 282 462 c 1
 282 57 l 1x6940
 295 61 310 65 328 84 c 0
 358 116 363 159 365 175 c 1
 444 175 l 1
 441 147 434 87 389 40 c 0
 349 -1 305 -7 283 -10 c 1x9c80
 284 -113 l 1
 214 -113 l 1
 216 -9 l 1x5c40
 193 -6 144 2 103 48 c 0
 83 70 42 129 42 252 c 0
 42 300 46 423 123 492 c 0
 162 526 201 531 217 532 c 1
 216 635 l 1
 289 635 l 1x5b40
219 58 m 1x5940
 219 462 l 1
 208 458 202 456 190 446 c 0
 166 426 151 397 142 367 c 0
 130 329 127 289 127 250 c 0
 127 217 130 184 139 152 c 0
 145 129 166 71 219 58 c 1x5940
EndSplineSet
EndChar

StartChar: sterling
Encoding: 163 163 98
Width: 562
Flags: MW
HStem: 0 63<20 92 177 460 20 92> 350 60<57 133 57 141 226 378> 640 66<407 468>
VStem: 460 75<63 252 0 252>
LayerCount: 2
Fore
SplineSet
370 706 m 1
 468 706 l 1
 468 640 l 1
 346 640 320 641 289 614 c 0
 249 578 241 524 226 410 c 1
 378 410 l 1
 378 350 l 1
 217 350 l 1
 177 63 l 1
 460 63 l 1
 460 252 l 1
 535 252 l 1
 535 0 l 1
 20 0 l 1
 20 63 l 1
 92 63 l 1
 133 350 l 1
 57 350 l 1
 57 410 l 1
 141 410 l 1
 159 527 161 539 165 557 c 0
 172 589 183 622 210 652 c 0
 256 704 308 705 370 706 c 1
EndSplineSet
EndChar

StartChar: fraction
Encoding: 8260 8260 99
Width: 125
Flags: MW
HStem: 0 21<-107 -107 -107 -48> 686 20<166 223 223 223>
VStem: -107 330
LayerCount: 2
Fore
SplineSet
-107 0 m 1
 166 706 l 1
 223 706 l 1
 -48 0 l 1
 -107 0 l 1
EndSplineSet
EndChar

StartChar: yen
Encoding: 165 165 100
Width: 542
Flags: MW
HStem: 0 63<153 228 311 386 153 228> 184 63<29 228 29 228 311 513> 316 63<28 170 28 200 28 170 373 513> 643 63<-4 48 -4 212 137 137 137 212 355 415 497 548 497 497>
VStem: -4 216<643 706 643 706> 228 83<63 184 63 184 247 253 63 254 63 254> 355 193<643 706 643 706>
LayerCount: 2
Fore
SplineSet
497 643 m 1
 373 379 l 1
 513 379 l 1
 513 316 l 1
 343 316 l 1
 311 253 l 1
 311 247 l 1
 513 247 l 1
 513 184 l 1
 311 184 l 1
 311 63 l 1
 386 63 l 1
 386 0 l 1
 153 0 l 1
 153 63 l 1
 228 63 l 1
 228 184 l 1
 29 184 l 1
 29 247 l 1
 228 247 l 1
 228 254 l 1
 200 316 l 1
 28 316 l 1
 28 379 l 1
 170 379 l 1
 48 643 l 1
 -4 643 l 1
 -4 706 l 1
 212 706 l 1
 212 643 l 1
 137 643 l 1
 274 328 l 1
 415 643 l 1
 355 643 l 1
 355 706 l 1
 548 706 l 1
 548 643 l 1
 497 643 l 1
EndSplineSet
EndChar

StartChar: florin
Encoding: 402 402 101
Width: 292
Flags: MW
HStem: -199 64<-40.5 -28.5 -44.5 -9> 428 63<34 100 26 108 191 283> 656 64<274 286.5 251.5 291> 693 20<343 343> 713 7
VStem: 111 83
LayerCount: 2
Fore
SplineSet
108 491 m 1xd4
 115 553 l 2
 121 606 126 650 164 685 c 0
 193 712 228 720 275 720 c 0xe4
 298 720 315 717 343 713 c 1xcc
 335 648 l 1
 314 653 299 656 283 656 c 0
 265 656 250 651 239 645 c 0xe4
 207 625 203 593 199 555 c 2
 191 491 l 1
 290 491 l 1
 283 428 l 1
 184 428 l 1
 132 -32 l 1
 124 -89 119 -130 82 -164 c 0
 49 -194 10 -199 -28 -199 c 0
 -53 -199 -69 -197 -96 -192 c 1
 -89 -127 l 1
 -69 -131 -53 -135 -36 -135 c 0
 -21 -135 -5 -132 8 -123 c 1
 40 -104 43 -71 48 -34 c 2
 100 428 l 1
 26 428 l 1
 34 491 l 1
 108 491 l 1xd4
EndSplineSet
EndChar

StartChar: section
Encoding: 167 167 102
Width: 479
Flags: MW
HStem: -218 65<219.5 278.5 219.5 300.5> 658 64<211.5 257.5>
VStem: 41 76<260 295 260 302.5> 58 80<-33 -33> 61 82<529 572 529 581.5> 340 79<-77 -30> 342 81<532 532> 370 79<187.5 241.5>
LayerCount: 2
Fore
SplineSet
58 -33 m 1xdd
 138 -33 l 1
 139 -50 141 -69 151 -90 c 0xd1
 164 -119 194 -153 245 -153 c 0
 312 -153 340 -97 340 -57 c 0
 340 -3 299 28 269 49 c 0
 253 60 171 110 153 122 c 0
 116 146 41 195 41 283 c 0
 41 322 58 360 86 387 c 0xe4
 104 403 119 410 134 417 c 1
 100 448 61 483 61 560 c 0
 61 603 75 639 95 663 c 0
 130 707 184 722 239 722 c 0
 283 722 330 711 368 677 c 0
 417 633 420 579 423 532 c 1
 342 532 l 1
 341 553 339 576 327 600 c 0xca
 312 629 281 658 234 658 c 0
 151 658 143 583 143 561 c 0
 143 497 186 463 250 426 c 0
 281 407 312 391 343 372 c 0
 384 348 449 306 449 221 c 0xc9
 449 140 393 103 353 78 c 1
 383 46 419 8 419 -58 c 0
 419 -140 358 -218 243 -218 c 0
 195 -218 147 -202 117 -177 c 0
 65 -133 61 -69 58 -33 c 1xdd
184 383 m 1
 166 373 149 363 135 342 c 0
 121 321 117 303 117 287 c 0
 117 233 163 203 186 189 c 0xe1
 217 169 267 138 298 118 c 1
 316 128 370 158 370 217 c 0
 370 266 336 293 301 314 c 0
 281 327 260 338 239 350 c 0
 221 360 203 372 184 383 c 1
EndSplineSet
EndChar

StartChar: currency
Encoding: 164 164 103
Width: 667
Flags: MW
HStem: 83 59<291 376> 537 59<292 376 292 386>
VStem: 77 60<297 381> 529 61<297 382.5 297 398.5>
LayerCount: 2
Fore
SplineSet
610 569 m 1
 536 496 l 1
 555 470 590 425 590 340 c 0
 590 254 554 207 535 182 c 1
 609 108 l 1
 563 62 l 1
 490 137 l 1
 464 118 418 83 334 83 c 0
 248 83 201 118 176 137 c 1
 102 64 l 1
 57 109 l 1
 132 182 l 1
 112 208 77 255 77 339 c 0
 77 423 112 471 131 496 c 1
 59 569 l 1
 104 614 l 1
 176 541 l 1
 201 560 250 596 334 596 c 0
 418 596 465 561 491 542 c 1
 564 615 l 1
 610 569 l 1
335 142 m 0
 443 142 529 226 529 341 c 0
 529 456 439 537 333 537 c 0
 225 537 137 454 137 340 c 0
 137 227 225 142 335 142 c 0
EndSplineSet
EndChar

StartChar: quotesingle
Encoding: 39 39 104
Width: 208
Flags: MW
HStem: 445 304<95.5 113 93 116>
VStem: 60 88<701.5 704.5 700 720>
LayerCount: 2
Fore
SplineSet
148 700 m 1
 113 445 l 1
 93 445 l 1
 61 687 l 2
 60 695 60 699 60 704 c 0
 60 736 85 749 106 749 c 0
 126 749 139 738 144 727 c 0
 149 717 148 709 148 700 c 1
EndSplineSet
EndChar

StartChar: quotedblleft
Encoding: 8220 8220 105
Width: 375
Flags: MW
HStem: 487 219<89 89 89 92 165 210 280 285 22 352 280 280>
VStem: 22 330<487 706>
LayerCount: 2
Fore
SplineSet
89 487 m 1
 22 706 l 1
 92 706 l 1
 210 487 l 1
 89 487 l 1
280 487 m 1
 165 706 l 1
 285 706 l 1
 352 487 l 1
 280 487 l 1
EndSplineSet
EndChar

StartChar: guillemotleft
Encoding: 171 171 106
Width: 354
Flags: MW
HStem: 117 341<105 173 105 173 105 255 105 323>
VStem: 20 303<117 287>
LayerCount: 2
Fore
SplineSet
105 458 m 1
 173 458 l 1
 110 287 l 1
 173 117 l 1
 105 117 l 1
 20 287 l 1
 105 458 l 1
255 453 m 1
 323 453 l 1
 260 287 l 1
 323 117 l 1
 255 117 l 1
 173 287 l 1
 255 453 l 1
EndSplineSet
EndChar

StartChar: guilsinglleft
Encoding: 8249 8249 107
Width: 208
Flags: MW
HStem: 117 341<105 173 105 173>
VStem: 20 153
LayerCount: 2
Fore
SplineSet
105 458 m 1
 173 458 l 1
 110 287 l 1
 173 117 l 1
 105 117 l 1
 20 287 l 1
 105 458 l 1
EndSplineSet
EndChar

StartChar: guilsinglright
Encoding: 8250 8250 108
Width: 208
Flags: MW
HStem: 116 335<31 99 31 99>
VStem: 31 154
LayerCount: 2
Fore
SplineSet
31 451 m 1
 99 451 l 1
 185 281 l 1
 99 116 l 1
 31 116 l 1
 94 281 l 1
 31 451 l 1
EndSplineSet
EndChar

StartChar: fi
Encoding: 64257 64257 109
Width: 542
Flags: MW
HStem: 0 63<24 98 182 248 24 98 300 369 452 526> 458 63<24 98 24 98 182 369> 625 81<355 452 355 452> 656 64<238 251.5 218.5 260> 694 20<301 301>
VStem: 98 84<63 458 63 458 521 554 554 554> 369 83<63 458 458 458>
LayerCount: 2
Fore
SplineSet
98 521 m 1xe6
 98 554 l 1
 99 607 99 650 132 685 c 1
 160 713 197 720 240 720 c 0xd6
 263 720 278 717 301 714 c 1xce
 301 650 l 1
 269 655 265 656 255 656 c 0
 221 656 205 640 200 635 c 0xd6
 182 615 182 596 182 555 c 2
 182 521 l 1
 452 521 l 1
 452 63 l 1
 526 63 l 1
 526 0 l 1
 300 0 l 1
 300 63 l 1
 369 63 l 1
 369 458 l 1
 182 458 l 1
 182 63 l 1
 248 63 l 1
 248 0 l 1
 24 0 l 1
 24 63 l 1
 98 63 l 1
 98 458 l 1
 24 458 l 1
 24 521 l 1
 98 521 l 1xe6
355 706 m 1xe6
 452 706 l 1
 452 625 l 1
 355 625 l 1
 355 706 l 1xe6
EndSplineSet
EndChar

StartChar: fl
Encoding: 64258 64258 110
Width: 542
Flags: MW
HStem: 0 63<24 98 182 249 24 98 301 367 451 524> 458 63<24 98 24 98 182 281> 643 63<320 451 320 367> 656 64<244 249.5 219.5 262> 696 20<287 287>
VStem: 98 84<63 458 63 458 521 554 554 554> 367 84<63 643 643 643>
LayerCount: 2
Fore
SplineSet
98 521 m 1xe6
 98 554 l 1
 99 609 99 651 132 685 c 0
 161 714 199 720 240 720 c 0xd6
 259 720 272 718 287 716 c 1xce
 287 653 l 1
 279 654 270 656 254 656 c 0
 234 656 214 650 200 635 c 0xd6
 182 615 182 591 182 555 c 2
 182 521 l 1
 281 521 l 1
 281 458 l 1
 182 458 l 1
 182 63 l 1
 249 63 l 1
 249 0 l 1
 24 0 l 1
 24 63 l 1
 98 63 l 1
 98 458 l 1
 24 458 l 1
 24 521 l 1
 98 521 l 1xe6
320 643 m 1xe6
 320 706 l 1
 451 706 l 1
 451 63 l 1
 524 63 l 1
 524 0 l 1
 301 0 l 1
 301 63 l 1
 367 63 l 1
 367 643 l 1
 320 643 l 1xe6
EndSplineSet
EndChar

StartChar: endash
Encoding: 8211 8211 111
Width: 583
Flags: MW
HStem: 245 79<34 549 34 549>
VStem: 34 515<245 324 245 324>
LayerCount: 2
Fore
SplineSet
34 324 m 1
 549 324 l 1
 549 245 l 1
 34 245 l 1
 34 324 l 1
EndSplineSet
EndChar

StartChar: dagger
Encoding: 8224 8224 112
Width: 396
Flags: MW
HStem: -207 21<158 238 158 158> 420 65 686 20<158 238 238 238>
VStem: 158 80<-207 421 -207 421 484 706>
LayerCount: 2
Fore
SplineSet
158 484 m 1
 158 706 l 1
 238 706 l 1
 238 484 l 1
 385 486 l 1
 385 419 l 1
 238 421 l 1
 238 -207 l 1
 158 -207 l 1
 158 421 l 1
 9 419 l 1
 9 486 l 1
 158 484 l 1
EndSplineSet
EndChar

StartChar: daggerdbl
Encoding: 8225 8225 113
Width: 417
Flags: MW
HStem: -207 21<169 248 169 169> 144 64<22 169> 421 63<169 169> 687 20<166 251 251 251>
VStem: 169 79<-207 144 -207 144 208 421>
LayerCount: 2
Fore
SplineSet
22 418 m 1
 22 487 l 1
 81 485 96 485 169 484 c 1
 166 707 l 1
 251 707 l 1
 248 484 l 1
 322 485 337 485 398 487 c 1
 398 418 l 1
 337 420 322 420 248 421 c 1
 248 208 l 1
 322 209 337 209 398 211 c 1
 398 141 l 1
 337 143 322 143 248 144 c 1
 248 -207 l 1
 169 -207 l 1
 169 144 l 1
 22 144 l 1
 22 211 l 1
 81 209 96 209 169 208 c 1
 169 421 l 1
 96 420 81 420 22 418 c 1
EndSplineSet
EndChar

StartChar: periodcentered
Encoding: 183 183 114
Width: 250
Flags: MW
HStem: 229 106<71 178 71 178>
VStem: 71 107<229 335 229 335>
LayerCount: 2
Fore
SplineSet
71 229 m 1
 71 335 l 1
 178 335 l 1
 178 229 l 1
 71 229 l 1
EndSplineSet
EndChar

StartChar: paragraph
Encoding: 182 182 115
Width: 667
Flags: MW
HStem: 662 44<310 452 295 532 498 532 498 498>
VStem: 249 46<-167 330 330 330> 452 46<-167 662 -167 662>
LayerCount: 2
Fore
SplineSet
310 706 m 1
 532 706 l 1
 532 662 l 1
 498 662 l 1
 498 -167 l 1
 452 -167 l 1
 452 662 l 1
 295 662 l 1
 295 -167 l 1
 249 -167 l 1
 249 330 l 1
 223 334 193 338 157 365 c 0
 112 399 90 455 90 512 c 0
 90 583 120 629 151 656 c 0
 205 704 269 705 310 706 c 1
EndSplineSet
EndChar

StartChar: bullet
Encoding: 8226 8226 116
Width: 333
Flags: MW
HStem: 234 238<133.5 202 131.5 203.5>
VStem: 47 239<320.5 383>
LayerCount: 2
Fore
SplineSet
286 353 m 0
 286 288 238 234 169 234 c 0
 98 234 47 288 47 353 c 0
 47 413 95 472 168 472 c 0
 236 472 286 419 286 353 c 0
EndSplineSet
EndChar

StartChar: quotesinglbase
Encoding: 8218 8218 117
Width: 250
Flags: MW
HStem: -118 221<26 213 94 97>
VStem: 26 187
LayerCount: 2
Fore
SplineSet
26 -118 m 1
 94 103 l 1
 213 103 l 1
 97 -118 l 1
 26 -118 l 1
EndSplineSet
EndChar

StartChar: quotedblbase
Encoding: 8222 8222 118
Width: 375
Flags: MW
HStem: -118 221<14 202 82 85 157 202 272 277 157 157>
VStem: 14 330<-118 103>
LayerCount: 2
Fore
SplineSet
14 -118 m 1
 82 103 l 1
 202 103 l 1
 85 -118 l 1
 14 -118 l 1
157 -118 m 1
 272 103 l 1
 344 103 l 1
 277 -118 l 1
 157 -118 l 1
EndSplineSet
EndChar

StartChar: quotedblright
Encoding: 8221 8221 119
Width: 375
Flags: MW
HStem: 486 220<89 94 23 209 167 209 282 287 167 167>
VStem: 23 330<486 706>
LayerCount: 2
Fore
SplineSet
282 706 m 1
 353 706 l 1
 287 486 l 1
 167 486 l 1
 282 706 l 1
89 706 m 1
 209 706 l 1
 94 486 l 1
 23 486 l 1
 89 706 l 1
EndSplineSet
EndChar

StartChar: guillemotright
Encoding: 187 187 120
Width: 354
Flags: MW
HStem: 116 335<31 99 31 99 31 180 180 248>
VStem: 31 302<116 281 281 451>
LayerCount: 2
Fore
SplineSet
31 451 m 1
 99 451 l 1
 185 281 l 1
 99 116 l 1
 31 116 l 1
 94 281 l 1
 31 451 l 1
243 281 m 1
 180 451 l 1
 248 451 l 1
 333 281 l 1
 248 116 l 1
 180 116 l 1
 243 281 l 1
EndSplineSet
EndChar

StartChar: ellipsis
Encoding: 8230 8230 121
Width: 1000
Flags: MW
HStem: 0 106<113 220 113 220 446 553 779 886>
VStem: 113 107<0 106 0 106> 446 107<0 106 0 106> 779 107<0 106 0 106>
LayerCount: 2
Fore
SplineSet
113 0 m 1
 113 106 l 1
 220 106 l 1
 220 0 l 1
 113 0 l 1
446 0 m 1
 446 106 l 1
 553 106 l 1
 553 0 l 1
 446 0 l 1
779 0 m 1
 779 106 l 1
 886 106 l 1
 886 0 l 1
 779 0 l 1
EndSplineSet
EndChar

StartChar: perthousand
Encoding: 8240 8240 122
Width: 1250
Flags: MW
HStem: -9 45<681.5 697 681.5 712.5 1056.5 1072> 0 21<268 268 268 326> 256 45<172 197.5 172 213.5> 406 45<658.5 697.5 658.5 720.5 1033.5 1072.5> 671 45<178.5 215.5> 686 20<540 598 598 598>
VStem: 22 57<467 501> 294 57<463.5 498.5> 522 57<205 251.5> 794 57<192.5 240 192.5 274.5> 897 57<205 251.5> 1169 57<192.5 240 192.5 274.5>
LayerCount: 2
Fore
SplineSet
22 486 m 0xbbf0
 22 516 25 545 31 574 c 0
 53 681 122 716 188 716 c 0
 247 716 278 688 295 671 c 1
 344 617 351 541 351 485 c 0
 351 442 346 384 321 338 c 0
 291 282 241 256 186 256 c 0
 117 256 80 296 64 320 c 0
 31 367 22 434 22 486 c 0xbbf0
186 671 m 0x2b
 171 671 79 671 79 489 c 0
 79 445 84 387 111 347 c 1
 128 320 156 301 188 301 c 0
 207 301 224 307 237 317 c 1
 260 332 294 375 294 482 c 0
 294 515 291 548 282 580 c 0
 271 618 245 671 186 671 c 0x2b
522 222 m 0x90c0
 522 281 532 349 566 393 c 0
 588 421 627 451 690 451 c 0
 705 451 756 450 800 400 c 0
 848 344 851 261 851 219 c 0
 851 166 844 107 815 63 c 1
 785 14 738 -9 687 -9 c 0
 622 -9 582 25 559 63 c 0
 526 116 522 188 522 222 c 0x90c0
686 406 m 0x90c0
 600 406 579 302 579 227 c 0
 579 36 676 36 687 36 c 0
 707 36 724 42 737 52 c 1
 761 68 794 112 794 217 c 0
 794 332 755 406 686 406 c 0x90c0
897 222 m 0x9030
 897 281 907 349 941 393 c 0
 963 421 1002 451 1065 451 c 0
 1080 451 1131 450 1175 400 c 0
 1223 344 1226 261 1226 219 c 0
 1226 166 1219 107 1190 63 c 1
 1160 14 1113 -9 1062 -9 c 0
 997 -9 957 25 934 63 c 0
 901 116 897 188 897 222 c 0x9030
1061 406 m 0x9030
 975 406 954 302 954 227 c 0
 954 36 1051 36 1062 36 c 0
 1082 36 1099 42 1112 52 c 1
 1136 68 1169 112 1169 217 c 0
 1169 332 1130 406 1061 406 c 0x9030
268 0 m 1x45
 540 706 l 1
 598 706 l 1
 326 0 l 1
 268 0 l 1x45
EndSplineSet
EndChar

StartChar: questiondown
Encoding: 191 191 123
Width: 479
Flags: MW
HStem: -15 68<205 245.5 205 287> 511 20<213 296 296 296> 603 103<202 306 202 306>
VStem: 39 83<122.5 170.5> 202 104<603 706 603 706> 213 83<469 475 475 531 450 531> 382 85<206.5 225>
LayerCount: 2
Fore
SplineSet
213 469 m 1xfe
 213 531 l 1
 296 531 l 1
 296 475 l 2
 296 425 292 406 238 344 c 0
 156 252 122 213 122 154 c 0
 122 91 175 53 235 53 c 0
 256 53 292 58 320 76 c 0
 381 116 382 188 382 225 c 1
 467 225 l 1
 466 194 465 126 427 69 c 0
 392 18 331 -15 243 -15 c 0
 105 -15 39 68 39 153 c 0
 39 188 50 218 60 240 c 1
 81 281 108 310 177 385 c 0
 208 419 212 431 213 469 c 1xfe
306 706 m 1xfa
 306 603 l 1
 202 603 l 1
 202 706 l 1
 306 706 l 1xfa
EndSplineSet
EndChar

StartChar: grave
Encoding: 96 96 124
Width: 292
Flags: MW
HStem: 607 133<150 181 71 220 150 150>
VStem: 71 149<607 740>
LayerCount: 2
Fore
SplineSet
71 740 m 1
 181 740 l 1
 220 607 l 1
 150 607 l 1
 71 740 l 1
EndSplineSet
EndChar

StartChar: acute
Encoding: 180 180 125
Width: 292
Flags: MW
HStem: 606 134<70 222 112 140>
VStem: 70 152<606 740>
LayerCount: 2
Fore
SplineSet
70 606 m 1
 112 740 l 1
 222 740 l 1
 140 606 l 1
 70 606 l 1
EndSplineSet
EndChar

StartChar: circumflex
Encoding: 710 710 126
Width: 292
Flags: MW
HStem: 607 136<44 201 94 102 192 192 192 201 94 248>
VStem: 44 204<607 607>
LayerCount: 2
Fore
SplineSet
44 607 m 1
 94 743 l 1
 201 743 l 1
 248 607 l 1
 192 607 l 1
 147 688 l 1
 102 607 l 1
 44 607 l 1
EndSplineSet
EndChar

StartChar: tilde
Encoding: 732 732 127
Width: 292
Flags: MW
HStem: 605 54<223 238 223 238.5> 689 56<56 72.5 38.5 73>
VStem: -7 47<621 621> 255 45<729 729>
LayerCount: 2
Fore
SplineSet
40 621 m 1
 -7 621 l 1
 -5 649 -4 674 2 693 c 0
 4 700 17 745 60 745 c 0
 85 745 99 738 122 723 c 0
 133 716 182 682 196 673 c 0
 210 664 219 659 227 659 c 0
 249 659 253 694 255 729 c 1
 300 729 l 1
 299 687 298 655 279 629 c 0
 264 609 246 605 231 605 c 0
 210 605 194 613 179 622 c 0
 150 640 123 659 95 678 c 0
 86 684 78 689 68 689 c 0
 44 689 42 660 40 621 c 1
EndSplineSet
EndChar

StartChar: macron
Encoding: 175 175 128
Width: 292
Flags: MW
HStem: 634 59<30 262 30 262>
VStem: 30 232<634 693 634 693>
LayerCount: 2
Fore
SplineSet
262 634 m 1
 30 634 l 1
 30 693 l 1
 262 693 l 1
 262 634 l 1
EndSplineSet
EndChar

StartChar: breve
Encoding: 728 728 129
Width: 292
Flags: MW
HStem: 617 47<137 152 137 162>
VStem: 33 50<728 728> 209 49<728 728>
LayerCount: 2
Fore
SplineSet
209 728 m 1
 258 728 l 1
 257 708 255 680 227 651 c 0
 208 632 180 617 144 617 c 0
 107 617 34 640 33 728 c 1
 83 728 l 1
 85 713 87 695 104 680 c 0
 115 670 130 664 144 664 c 0
 160 664 175 670 186 680 c 0
 204 696 207 717 209 728 c 1
EndSplineSet
EndChar

StartChar: dotaccent
Encoding: 729 729 130
Width: 292
Flags: MW
HStem: 633 82<101 191 101 191>
VStem: 101 90<633 715 633 715>
LayerCount: 2
Fore
SplineSet
101 633 m 1
 101 715 l 1
 191 715 l 1
 191 633 l 1
 101 633 l 1
EndSplineSet
EndChar

StartChar: dieresis
Encoding: 168 168 131
Width: 292
Flags: MW
HStem: 633 82<30 120 30 120 171 261 30 171>
VStem: 30 90<633 715 633 715> 171 90<633 715 633 715>
LayerCount: 2
Fore
SplineSet
30 633 m 1
 30 715 l 1
 120 715 l 1
 120 633 l 1
 30 633 l 1
171 633 m 1
 171 715 l 1
 261 715 l 1
 261 633 l 1
 171 633 l 1
EndSplineSet
EndChar

StartChar: ring
Encoding: 730 730 132
Width: 292
Flags: MW
HStem: 583 37<129.5 162.5 129.5 175.5> 740 37<129.5 162>
VStem: 45 42<664 696.5 664 705> 206 41<664 696.5>
LayerCount: 2
Fore
SplineSet
146 583 m 0
 84 583 45 627 45 680 c 0
 45 730 84 777 146 777 c 0
 206 777 247 732 247 680 c 0
 247 627 205 583 146 583 c 0
87 680 m 0
 87 648 113 620 146 620 c 0
 179 620 206 648 206 680 c 0
 206 713 178 740 146 740 c 0
 113 740 87 713 87 680 c 0
EndSplineSet
EndChar

StartChar: cedilla
Encoding: 184 184 133
Width: 292
Flags: MW
HStem: -224 40<131 156.5 131 171.5> -105 38<151 158.5>
VStem: 181 44<-155.5 -134.5>
LayerCount: 2
Fore
SplineSet
72 -110 m 1
 109 20 l 1
 150 20 l 1
 123 -76 l 1
 135 -71 144 -67 158 -67 c 0
 203 -67 225 -102 225 -143 c 0
 225 -187 199 -224 144 -224 c 0
 73 -224 69 -171 67 -150 c 1
 109 -150 l 1
 112 -161 117 -184 145 -184 c 0
 168 -184 181 -166 181 -145 c 0
 181 -124 170 -105 147 -105 c 0
 131 -105 124 -111 117 -117 c 1
 72 -110 l 1
EndSplineSet
EndChar

StartChar: hungarumlaut
Encoding: 733 733 134
Width: 292
Flags: MW
HStem: 607 133<38 62 -3 144 38 149 190 215>
VStem: -3 299<607 740>
LayerCount: 2
Fore
SplineSet
62 607 m 1
 -3 607 l 1
 38 740 l 1
 144 740 l 1
 62 607 l 1
215 607 m 1
 149 607 l 1
 190 740 l 1
 296 740 l 1
 215 607 l 1
EndSplineSet
EndChar

StartChar: ogonek
Encoding: 731 731 135
Width: 292
Flags: MW
HStem: -177 49<154.5 169.5>
VStem: 71 50<-100.5 -81.5>
LayerCount: 2
Fore
SplineSet
127 0 m 1
 174 0 l 1
 127 -51 121 -69 121 -88 c 0
 121 -113 142 -128 167 -128 c 0
 182 -128 194 -124 207 -118 c 1
 221 -162 l 1
 204 -169 183 -177 156 -177 c 0
 94 -177 71 -135 71 -101 c 0
 71 -62 102 -27 127 0 c 1
EndSplineSet
EndChar

StartChar: caron
Encoding: 711 711 136
Width: 292
Flags: MW
HStem: 606 136<92 101 190 198 92 92>
VStem: 44 204<742 742>
LayerCount: 2
Fore
SplineSet
190 742 m 1
 248 742 l 1
 198 606 l 1
 92 606 l 1
 44 742 l 1
 101 742 l 1
 145 661 l 1
 190 742 l 1
EndSplineSet
EndChar

StartChar: emdash
Encoding: 8212 8212 137
Width: 729
Flags: MW
HStem: 245 79<34 694 34 694>
VStem: 34 660<245 324 245 324>
LayerCount: 2
Fore
SplineSet
34 324 m 1
 694 324 l 1
 694 245 l 1
 34 245 l 1
 34 324 l 1
EndSplineSet
EndChar

StartChar: AE
Encoding: 198 198 138
Width: 854
Flags: MW
HStem: 0 63<4 51 131 198 4 51 395 462 543 720> 225 62<224 427 224 437 198 427> 343 66<499 693 499 499> 643 63<227 290 227 794 453 720 453 453> 647 59<371 371>
VStem: 4 194<0 63 0 63> 720 74<63 238 0 238 487 643 643 643>
LayerCount: 2
Fore
SplineSet
227 706 m 1xf6
 794 706 l 1
 794 487 l 1
 720 487 l 1
 720 643 l 1
 453 643 l 1
 489 409 l 1
 693 409 l 1
 693 343 l 1
 499 343 l 1
 543 63 l 1
 720 63 l 1
 720 238 l 1
 794 238 l 1
 794 0 l 1
 395 0 l 1
 395 63 l 1
 462 63 l 1
 437 225 l 1
 198 225 l 1
 131 63 l 1
 198 63 l 1
 198 0 l 1
 4 0 l 1
 4 63 l 1
 51 63 l 1
 290 643 l 1
 227 643 l 1
 227 706 l 1xf6
427 287 m 1
 371 647 l 1xee
 224 287 l 1
 427 287 l 1
EndSplineSet
EndChar

StartChar: ordfeminine
Encoding: 170 170 139
Width: 333
Flags: MW
HStem: 384 40<123.5 154.5 123.5 160> 392 39<274 319 274 319> 552 36<163 187.5> 681 41<158 170.5>
VStem: 29 57<466.5 492 466.5 495.5> 219 55<587 603 431 607>
LayerCount: 2
Fore
SplineSet
274 603 m 1x7c
 274 431 l 1
 319 431 l 1
 319 392 l 1
 222 392 l 1x7c
 220 425 l 1
 209 412 185 384 135 384 c 0
 65 384 29 431 29 480 c 0xbc
 29 511 43 539 63 556 c 0
 92 581 141 588 185 588 c 0
 196 588 208 587 219 587 c 1
 219 627 219 652 202 668 c 0
 193 676 178 681 163 681 c 0
 153 681 107 680 102 626 c 1
 44 626 l 1
 45 629 47 642 47 645 c 0
 57 697 104 722 162 722 c 0
 219 722 243 696 250 689 c 0
 272 665 273 636 274 603 c 1x7c
219 549 m 1
 201 551 194 552 181 552 c 0
 141 552 119 544 104 528 c 0
 94 518 86 502 86 482 c 0
 86 451 105 424 142 424 c 0
 167 424 186 436 196 446 c 0xbc
 214 466 218 489 219 549 c 1
EndSplineSet
EndChar

StartChar: Lslash
Encoding: 321 321 140
Width: 479
Flags: MW
HStem: 0 63<20 94 177 387 20 94> 508 20<300 300> 643 63<20 94 20 252 177 177 177 252>
VStem: 94 83<63 308 308 308 440 643> 387 75<63 239 0 239>
LayerCount: 2
Fore
SplineSet
-1 314 m 1
 94 381 l 1
 94 643 l 1
 20 643 l 1
 20 706 l 1
 252 706 l 1
 252 643 l 1
 177 643 l 1
 177 440 l 1
 300 528 l 1
 300 455 l 1
 177 367 l 1
 177 63 l 1
 387 63 l 1
 387 239 l 1
 462 239 l 1
 462 0 l 1
 20 0 l 1
 20 63 l 1
 94 63 l 1
 94 308 l 1
 -1 240 l 1
 -1 314 l 1
EndSplineSet
EndChar

StartChar: Oslash
Encoding: 216 216 141
Width: 625
Flags: MW
HStem: -14 67<298 371 298 391> 653 68<252 346.5>
VStem: 44 84<275 345.5> 495 84<365.5 418 365.5 433>
LayerCount: 2
Fore
SplineSet
459 680 m 1
 516 786 l 1
 598 786 l 1
 509 632 l 1
 518 619 526 609 536 590 c 0
 569 526 579 454 579 382 c 0
 579 349 577 316 572 284 c 0
 550 112 473 -14 309 -14 c 0
 237 -14 195 9 171 22 c 1
 104 -101 l 1
 23 -101 l 1
 120 67 l 1
 110 80 103 89 92 107 c 0
 71 144 44 209 44 327 c 0
 44 364 47 443 71 519 c 0
 110 648 189 721 315 721 c 0
 391 721 434 695 459 680 c 1
164 146 m 1
 422 612 l 1
 402 629 374 653 319 653 c 0
 168 653 128 456 128 326 c 0
 128 224 150 176 164 146 c 1
462 549 m 1
 206 89 l 1
 246 55 290 53 306 53 c 0
 436 53 495 211 495 381 c 0
 495 485 472 531 462 549 c 1
EndSplineSet
EndChar

StartChar: OE
Encoding: 338 338 142
Width: 896
Flags: MW
HStem: -5 65<311.5 329> 0 63<517 763 432 491> 344 66<517 751 517 751> 643 63<520 763 517 839> 645 69<298.5 354>
VStem: 44 85<315.5 393 296 395.5> 432 85<63 344 410 643> 763 76<63 241 0 241 485 643 643 643>
LayerCount: 2
Fore
SplineSet
520 706 m 1x77
 839 706 l 1
 839 485 l 1
 763 485 l 1
 763 643 l 1
 517 643 l 1
 517 410 l 1
 751 410 l 1
 751 344 l 1
 517 344 l 1
 517 63 l 1
 763 63 l 1
 763 241 l 1
 839 241 l 1
 839 0 l 1
 491 0 l 1x77
 402 -3 367 -4 329 -5 c 1
 230 -5 138 -1 82 129 c 0
 52 198 44 280 44 351 c 0
 44 440 57 554 110 626 c 1
 167 706 248 714 349 714 c 0xaf
 406 714 463 710 520 706 c 1x77
432 63 m 1
 432 643 l 1
 403 644 367 645 341 645 c 0
 253 645 198 633 162 552 c 0
 138 497 129 435 129 351 c 0
 129 241 150 143 203 96 c 0
 244 60 290 60 333 60 c 0xb7
 366 60 399 61 432 63 c 1
EndSplineSet
EndChar

StartChar: ordmasculine
Encoding: 186 186 143
Width: 333
Flags: MW
HStem: 384 42<153 183> 680 41<162.5 179.5 156 203>
VStem: 27 57<541.5 573> 249 57<537.5 574.5>
LayerCount: 2
Fore
SplineSet
27 550 m 0
 27 596 38 642 62 674 c 0
 97 719 144 721 168 721 c 0
 191 721 237 719 271 676 c 0
 293 649 306 607 306 557 c 0
 306 518 297 468 271 432 c 0
 241 391 200 384 166 384 c 0
 140 384 94 387 60 432 c 1
 39 458 27 498 27 550 c 0
168 680 m 0
 157 680 145 678 134 672 c 0
 95 651 84 601 84 554 c 0
 84 529 84 426 168 426 c 0
 231 426 249 499 249 553 c 0
 249 596 238 680 168 680 c 0
EndSplineSet
EndChar

StartChar: ae
Encoding: 230 230 144
Width: 812
Flags: MW
HStem: -13 64<193 227.5> -13 67<555.5 585.5 543 608.5> 259 59<344 344 448 692> 467 66<237 268> 471 62<557.5 588.5>
VStem: 40 85<116.5 161.5 116.5 173> 344 97<248 259 248 259 248 259> 345 103<318 338.5> 692 85<259 318>
LayerCount: 2
Fore
SplineSet
151 379 m 1xbf80
 65 379 l 1xb580
 69 411 74 448 105 481 c 0
 134 512 184 533 250 533 c 0
 290 533 329 524 362 502 c 0
 394 480 403 460 414 436 c 1
 421 451 426 461 441 477 c 0
 478 517 527 533 575 533 c 0
 661 533 709 485 728 458 c 0
 768 403 777 330 777 259 c 1
 441 259 l 1
 441 237 440 210 448 178 c 0
 464 108 510 54 576 54 c 0
 595 54 610 58 622 64 c 0x6e80
 673 87 683 134 690 163 c 1
 771 163 l 1
 768 139 761 85 723 44 c 0
 692 10 640 -13 577 -13 c 0
 534 -13 493 -1 463 18 c 0
 411 52 395 101 387 126 c 1
 379 94 368 54 327 23 c 0
 292 -3 249 -13 206 -13 c 0
 98 -13 40 60 40 143 c 0
 40 203 71 257 123 286 c 0
 181 318 263 318 345 318 c 1
 345 359 345 384 339 405 c 0
 325 450 287 467 249 467 c 0
 225 467 200 460 182 445 c 0
 157 424 153 397 151 379 c 1xbf80
448 318 m 1
 692 318 l 1
 691 336 688 372 669 408 c 0
 644 457 605 471 572 471 c 0
 543 471 508 460 482 426 c 0xad80
 452 388 449 346 448 318 c 1
344 205 m 1xae80
 344 259 l 1
 266 260 206 260 161 223 c 0
 134 201 125 176 125 147 c 0
 125 86 168 51 218 51 c 0
 243 51 278 60 303 82 c 0
 342 117 343 168 344 205 c 1xae80
EndSplineSet
EndChar

StartChar: dotlessi
Encoding: 305 305 145
Width: 271
Flags: MW
HStem: 0 63<22 98 182 256 22 98> 458 63<22 182 22 98>
VStem: 98 84<63 458 458 458>
LayerCount: 2
Fore
SplineSet
22 458 m 1
 22 521 l 1
 182 521 l 1
 182 63 l 1
 256 63 l 1
 256 0 l 1
 22 0 l 1
 22 63 l 1
 98 63 l 1
 98 458 l 1
 22 458 l 1
EndSplineSet
EndChar

StartChar: lslash
Encoding: 322 322 146
Width: 271
Flags: MW
HStem: 0 63<23 96 180 253 23 96> 501 20<269 269> 643 63<23 96 23 180>
VStem: 96 84<63 324 324 324 63 457 457 643 643 643>
LayerCount: 2
Fore
SplineSet
269 449 m 1
 180 385 l 1
 180 63 l 1
 253 63 l 1
 253 0 l 1
 23 0 l 1
 23 63 l 1
 96 63 l 1
 96 324 l 1
 0 255 l 1
 0 328 l 1
 96 396 l 1
 96 643 l 1
 23 643 l 1
 23 706 l 1
 180 706 l 1
 180 457 l 1
 269 521 l 1
 269 449 l 1
EndSplineSet
EndChar

StartChar: oslash
Encoding: 248 248 147
Width: 521
Flags: MW
HStem: -14 67<241.5 263 241.5 313> 466 67<261 283>
VStem: 37 85<207 275.5> 398 84<253 307>
LayerCount: 2
Fore
SplineSet
414 605 m 1
 493 605 l 1
 419 472 l 1
 442 443 482 394 482 274 c 0
 482 217 473 159 449 107 c 0
 417 38 367 -14 259 -14 c 0
 221 -14 198 -8 161 4 c 1
 101 -103 l 1
 20 -103 l 1
 105 42 l 1
 56 95 37 168 37 241 c 0
 37 310 50 379 86 439 c 0
 109 477 154 533 262 533 c 0
 315 533 343 521 362 513 c 1
 414 605 l 1
149 112 m 1
 333 445 l 1
 322 452 300 466 266 466 c 0
 256 466 245 465 236 462 c 0
 164 444 122 368 122 246 c 0
 122 168 140 132 149 112 c 1
373 398 m 1
 191 69 l 1
 211 60 228 53 255 53 c 0
 271 53 293 56 314 68 c 0
 337 80 364 106 381 155 c 0
 394 193 398 233 398 273 c 0
 398 341 383 375 373 398 c 1
EndSplineSet
EndChar

StartChar: oe
Encoding: 339 339 148
Width: 875
Flags: MW
HStem: -14 68<608.5 641.5> -12 66<198.5 275> 257 61<489 753 489 840 486 753> 467 66<252.5 307.5>
VStem: 38 84<238.5 281.5> 404 82<237 257 232 319> 753 87<257 318>
LayerCount: 2
Fore
SplineSet
746 164 m 1x7e
 830 164 l 1
 828 151 824 130 815 107 c 0
 780 17 697 -14 626 -14 c 0xbe
 504 -14 454 64 436 93 c 1
 422 70 407 43 375 21 c 0
 341 -2 296 -12 254 -12 c 0
 143 -12 101 46 80 80 c 0
 56 120 38 175 38 254 c 0
 38 309 48 386 86 446 c 0
 98 465 141 533 259 533 c 0
 378 533 418 464 436 433 c 1
 461 469 506 533 619 533 c 0
 738 533 842 456 840 257 c 1
 486 257 l 1
 486 207 491 135 534 91 c 1
 558 68 592 54 625 54 c 0
 658 54 691 67 714 93 c 0
 736 118 742 145 746 164 c 1x7e
261 467 m 0
 244 467 205 464 171 426 c 1
 140 393 122 338 122 263 c 0
 122 214 126 54 259 54 c 0x7e
 387 54 404 209 404 265 c 0
 404 373 354 467 261 467 c 0
489 318 m 1x7e
 753 318 l 1
 751 334 749 354 741 375 c 0
 727 415 688 468 620 468 c 0
 562 468 531 434 513 403 c 0
 494 369 491 339 489 318 c 1x7e
EndSplineSet
EndChar

StartChar: germandbls
Encoding: 223 223 149
Width: 542
Flags: MW
HStem: -9 72<292 329> 0 63<18 93 18 177 18 93> 355 65<269 292.5> 655 65<271 291.5 265.5 308.5>
VStem: 93 84<63 486 0 495 0 495> 379 86<514.5 571.5> 414 88<169 223.5>
LayerCount: 2
Fore
SplineSet
93 63 m 1x7c
 93 495 l 1
 95 551 97 633 167 685 c 0
 202 711 247 720 284 720 c 0
 299 720 465 720 465 542 c 0x7c
 465 432 398 407 363 394 c 1
 386 387 428 374 457 338 c 0
 463 331 502 283 502 197 c 0
 502 55 403 -9 305 -9 c 0xba
 279 -9 258 -5 239 -1 c 1
 239 69 l 1
 258 65 271 63 289 63 c 0
 369 63 414 126 414 212 c 0
 414 235 410 298 368 333 c 0x7a
 342 354 316 355 269 355 c 1
 269 420 l 1
 292 422 317 424 340 441 c 0
 369 463 379 496 379 533 c 0
 379 610 336 655 281 655 c 0
 261 655 240 649 223 636 c 0
 177 602 177 543 177 486 c 2
 177 0 l 1
 18 0 l 1
 18 63 l 1
 93 63 l 1x7c
EndSplineSet
EndChar

StartChar: brokenbar
Encoding: 166 166 150
Width: 229
Flags: MW
HStem: -175 850<85 145 85 145>
VStem: 85 60<-175 175 -175 175 325 675>
LayerCount: 2
Fore
SplineSet
85 -175 m 1
 85 175 l 1
 145 175 l 1
 145 -175 l 1
 85 -175 l 1
145 325 m 1
 85 325 l 1
 85 675 l 1
 145 675 l 1
 145 325 l 1
EndSplineSet
EndChar

StartChar: Ograve
Encoding: 210 210 151
Width: 625
Flags: MW
HStem: -14 68<260.5 363.5> 653 68<273 340.5 273 375> 777 133<283 314 204 353 283 283>
VStem: 45 84<329 398> 495 84<338.5 416.5 338.5 439.5>
LayerCount: 2
Fore
SplineSet
45 342 m 0
 45 454 66 587 147 661 c 0
 181 692 236 721 310 721 c 0
 371 721 430 703 475 663 c 0
 557 591 579 471 579 362 c 0
 579 315 575 268 565 222 c 0
 553 163 531 102 485 54 c 0
 467 35 416 -14 311 -14 c 0
 193 -14 116 50 77 150 c 0
 51 215 45 281 45 342 c 0
315 653 m 0
 188 653 129 520 129 346 c 0
 129 312 131 277 137 243 c 0
 155 143 210 54 311 54 c 0
 462 54 495 246 495 359 c 0
 495 520 435 653 315 653 c 0
204 910 m 1
 314 910 l 1
 353 777 l 1
 283 777 l 1
 204 910 l 1
EndSplineSet
EndChar

StartChar: Ccedilla
Encoding: 199 199 152
Width: 583
Flags: MW
HStem: -224 40<306 326.5 301 343.5> -105 38<321.5 329> -13 63<311 311> 483 224<471 537 471 537 464 537> 659 63<307 318.5 268 345>
VStem: 45 86<326 357.5 326 359.5> 351 44<-155.5 -135> 464 80<236 236> 470 67
LayerCount: 2
Fore
SplineSet
464 236 m 1xef80
 544 236 l 1
 539 184 533 114 478 54 c 0xef
 420 -9 347 -12 311 -13 c 1
 293 -76 l 1
 306 -71 315 -67 328 -67 c 0
 373 -67 395 -103 395 -143 c 0
 395 -182 374 -224 313 -224 c 0
 299 -224 285 -222 273 -216 c 0
 242 -199 239 -171 237 -150 c 1
 279 -150 l 1
 282 -161 287 -184 315 -184 c 0
 338 -184 351 -166 351 -145 c 0
 351 -125 341 -105 317 -105 c 0
 301 -105 294 -111 287 -117 c 1
 242 -110 l 1
 271 -11 l 1
 94 10 45 175 45 343 c 0
 45 376 47 409 51 442 c 0
 57 484 73 595 145 662 c 0
 179 694 234 722 302 722 c 0
 335 722 392 715 431 685 c 0
 451 670 460 656 469 642 c 1xee80
 471 707 l 1
 537 707 l 1
 537 483 l 1
 464 483 l 1xf680
 460 511 456 533 447 556 c 0xee80
 426 614 379 659 311 659 c 0
 303 659 273 659 243 644 c 0
 196 620 170 571 154 520 c 0
 133 451 131 373 131 342 c 0
 131 310 133 279 138 248 c 0
 143 215 150 182 164 151 c 0
 182 112 218 50 306 50 c 0
 338 50 372 60 398 81 c 0
 455 125 461 201 464 236 c 1xef80
EndSplineSet
EndChar

StartChar: multiply
Encoding: 215 215 153
Width: 667
Flags: MW
HStem: 42 497<126 126 126 541>
VStem: 84 498<83 83 83 497>
LayerCount: 2
Fore
SplineSet
582 83 m 1
 541 42 l 1
 333 249 l 1
 126 42 l 1
 84 83 l 1
 291 291 l 1
 84 497 l 1
 126 539 l 1
 333 332 l 1
 541 539 l 1
 582 497 l 1
 375 291 l 1
 582 83 l 1
EndSplineSet
EndChar

StartChar: Ntilde
Encoding: 209 209 154
Width: 625
Flags: MW
HStem: 0 63<20 93 169 242 20 93> 643 63<20 93 20 229 169 169 388 460 536 611 536 536> 776 54<387 402 387 402.5> 859 56<220 234 202.5 237>
VStem: 93 76<63 643 63 643> 157 47<791 791> 419 45<899 899> 460 76<69 643 0 643>
LayerCount: 2
Fore
SplineSet
388 706 m 1xc9
 611 706 l 1
 611 643 l 1
 536 643 l 1
 536 0 l 1
 403 0 l 1
 169 643 l 1
 169 63 l 1
 242 63 l 1
 242 0 l 1
 20 0 l 1
 20 63 l 1
 93 63 l 1
 93 643 l 1
 20 643 l 1
 20 706 l 1
 229 706 l 1
 460 69 l 1
 460 643 l 1
 388 643 l 1
 388 706 l 1xc9
204 791 m 1xd5
 157 791 l 1
 159 819 160 844 166 863 c 0
 168 870 181 915 224 915 c 0
 244 915 262 906 268 904 c 1xd5
 279 898 287 892 360 844 c 0
 374 834 383 830 391 830 c 0
 413 830 417 864 419 899 c 1
 464 899 l 1
 463 857 462 826 443 800 c 0
 428 780 410 776 395 776 c 0
 374 776 358 784 343 793 c 0xea
 314 811 287 830 259 848 c 0
 250 854 242 859 232 859 c 0
 208 859 206 830 204 791 c 1xd5
EndSplineSet
EndChar

StartChar: Otilde
Encoding: 213 213 155
Width: 625
Flags: MW
HStem: -14 68<260.5 363.5> 653 68<273 340.5 273 375> 776 54<398 413 398 413.5> 859 56<231 245 213.5 248>
VStem: 45 84<329 398> 168 47<791 791> 430 45<899 899> 495 84<338.5 416.5 338.5 439.5>
LayerCount: 2
Fore
SplineSet
45 342 m 0
 45 454 66 587 147 661 c 0
 181 692 236 721 310 721 c 0
 371 721 430 703 475 663 c 0
 557 591 579 471 579 362 c 0
 579 315 575 268 565 222 c 0
 553 163 531 102 485 54 c 0
 467 35 416 -14 311 -14 c 0
 193 -14 116 50 77 150 c 0
 51 215 45 281 45 342 c 0
315 653 m 0
 188 653 129 520 129 346 c 0
 129 312 131 277 137 243 c 0
 155 143 210 54 311 54 c 0
 462 54 495 246 495 359 c 0
 495 520 435 653 315 653 c 0
215 791 m 1
 168 791 l 1
 170 819 171 844 177 863 c 0
 179 870 192 915 235 915 c 0
 255 915 273 906 279 904 c 1
 290 898 298 892 371 844 c 0
 385 834 394 830 402 830 c 0
 424 830 428 864 430 899 c 1
 475 899 l 1
 474 857 473 826 454 800 c 0
 439 780 421 776 406 776 c 0
 385 776 369 784 354 793 c 0
 325 811 298 830 270 848 c 0
 261 854 253 859 243 859 c 0
 219 859 217 830 215 791 c 1
EndSplineSet
EndChar

StartChar: mu
Encoding: 181 181 156
Width: 542
Flags: MW
HStem: -204 21<79 155 79 79> -12 67<250 268> 0 63<453 527 453 527> 458 63<5 79 5 162 296 370>
VStem: 79 83<170 458 458 458> 370 83<288 458 458 458>
LayerCount: 2
Fore
SplineSet
382 0 m 1xbc
 377 73 l 1xbc
 360 43 353 32 329 15 c 0
 318 8 290 -12 246 -12 c 0
 196 -12 168 15 155 27 c 1
 155 -204 l 1
 79 -204 l 1
 79 458 l 1
 5 458 l 1
 5 521 l 1
 162 521 l 1
 162 170 l 1
 163 140 165 99 197 74 c 0
 217 58 242 55 258 55 c 0xdc
 363 55 369 196 370 288 c 1
 370 458 l 1
 296 458 l 1
 296 521 l 1
 453 521 l 1
 453 63 l 1
 527 63 l 1
 527 0 l 1
 382 0 l 1xbc
EndSplineSet
EndChar

StartChar: Oacute
Encoding: 211 211 157
Width: 625
Flags: MW
HStem: -14 68<260.5 363.5> 653 68<273 340.5 273 375> 777 134<270 422 312 340>
VStem: 45 84<329 398> 495 84<338.5 416.5 338.5 439.5>
LayerCount: 2
Fore
SplineSet
45 342 m 0
 45 454 66 587 147 661 c 0
 181 692 236 721 310 721 c 0
 371 721 430 703 475 663 c 0
 557 591 579 471 579 362 c 0
 579 315 575 268 565 222 c 0
 553 163 531 102 485 54 c 0
 467 35 416 -14 311 -14 c 0
 193 -14 116 50 77 150 c 0
 51 215 45 281 45 342 c 0
315 653 m 0
 188 653 129 520 129 346 c 0
 129 312 131 277 137 243 c 0
 155 143 210 54 311 54 c 0
 462 54 495 246 495 359 c 0
 495 520 435 653 315 653 c 0
270 777 m 1
 312 911 l 1
 422 911 l 1
 340 777 l 1
 270 777 l 1
EndSplineSet
EndChar

StartChar: thorn
Encoding: 254 254 158
Width: 562
Flags: MW
HStem: -203 63<20 94 178 252 20 94> -13 68<294.5 318 294.5 373> 461 72<283.5 339 283.5 351.5> 643 63<20 94 20 173>
VStem: 94 84<-140 56 -140 643> 439 84<232 300 167 317>
LayerCount: 2
Fore
SplineSet
173 706 m 1
 173 451 l 1
 206 496 251 533 316 533 c 0
 362 533 411 516 450 477 c 0
 506 421 523 340 523 260 c 0
 523 74 425 -13 321 -13 c 0
 237 -13 195 35 178 56 c 1
 178 -140 l 1
 252 -140 l 1
 252 -203 l 1
 20 -203 l 1
 20 -140 l 1
 94 -140 l 1
 94 643 l 1
 20 643 l 1
 20 706 l 1
 173 706 l 1
307 461 m 0
 212 461 176 360 176 255 c 0
 176 215 181 176 195 140 c 0
 226 62 283 55 306 55 c 0
 330 55 353 63 371 76 c 0
 427 115 439 200 439 264 c 0
 439 370 396 461 307 461 c 0
EndSplineSet
EndChar

StartChar: eth
Encoding: 240 240 159
Width: 521
Flags: MW
HStem: -13 67<233.5 266 214.5 280.5> 467 66<253.5 267.5 237.5 294.5> 704 20<260 260>
VStem: 38 84<239 299 239 330> 397 85<243 288.5>
LayerCount: 2
Fore
SplineSet
432 639 m 1
 361 617 l 1
 393 576 482 460 482 264 c 0
 482 157 446 66 389 24 c 0
 353 -2 301 -13 260 -13 c 0
 207 -13 155 0 117 35 c 0
 61 86 38 169 38 256 c 0
 38 404 96 483 158 512 c 0
 184 525 222 533 253 533 c 0
 282 533 311 527 338 516 c 1
 318 550 312 561 283 592 c 1
 157 553 l 1
 135 609 l 1
 236 642 l 1
 221 657 204 673 181 691 c 1
 260 724 l 1
 295 691 299 688 317 668 c 1
 409 698 l 1
 432 639 l 1
263 467 m 0
 244 467 225 463 207 454 c 0
 140 421 122 339 122 259 c 0
 122 219 125 181 139 145 c 0
 145 127 172 54 257 54 c 0
 275 54 294 57 310 65 c 0
 329 74 353 92 370 126 c 1
 392 167 397 225 397 261 c 0
 397 316 386 366 372 395 c 0
 358 423 326 467 263 467 c 0
EndSplineSet
EndChar

StartChar: Igrave
Encoding: 204 204 160
Width: 271
Flags: MW
HStem: 0 63<18 92 176 251 18 92> 643 63<18 251 18 92 176 176 176 251> 777 133<106 137 27 176 106 106>
VStem: 92 84<63 643 63 643>
LayerCount: 2
Fore
SplineSet
18 643 m 1
 18 706 l 1
 251 706 l 1
 251 643 l 1
 176 643 l 1
 176 63 l 1
 251 63 l 1
 251 0 l 1
 18 0 l 1
 18 63 l 1
 92 63 l 1
 92 643 l 1
 18 643 l 1
27 910 m 1
 137 910 l 1
 176 777 l 1
 106 777 l 1
 27 910 l 1
EndSplineSet
EndChar

StartChar: Ocircumflex
Encoding: 212 212 161
Width: 625
Flags: MW
HStem: -14 68<260.5 363.5> 653 68<273 340.5 273 375> 777 136<207 364 257 265 355 355 355 364 257 411>
VStem: 45 84<329 398> 495 84<338.5 416.5 338.5 439.5>
LayerCount: 2
Fore
SplineSet
45 342 m 0
 45 454 66 587 147 661 c 0
 181 692 236 721 310 721 c 0
 371 721 430 703 475 663 c 0
 557 591 579 471 579 362 c 0
 579 315 575 268 565 222 c 0
 553 163 531 102 485 54 c 0
 467 35 416 -14 311 -14 c 0
 193 -14 116 50 77 150 c 0
 51 215 45 281 45 342 c 0
315 653 m 0
 188 653 129 520 129 346 c 0
 129 312 131 277 137 243 c 0
 155 143 210 54 311 54 c 0
 462 54 495 246 495 359 c 0
 495 520 435 653 315 653 c 0
207 777 m 1
 257 913 l 1
 364 913 l 1
 411 777 l 1
 355 777 l 1
 310 858 l 1
 265 777 l 1
 207 777 l 1
EndSplineSet
EndChar

StartChar: Eacute
Encoding: 201 201 162
Width: 562
Flags: MW
HStem: 0 63<20 93 177 430 20 93> 343 66<177 406 177 406> 643 63<20 93 20 505 177 430 177 177> 777 134<239 391 281 309>
VStem: 93 84<63 343 409 643> 430 75<63 238 0 238 485 643 643 643>
LayerCount: 2
Fore
SplineSet
20 706 m 1
 505 706 l 1
 505 485 l 1
 430 485 l 1
 430 643 l 1
 177 643 l 1
 177 409 l 1
 406 409 l 1
 406 343 l 1
 177 343 l 1
 177 63 l 1
 430 63 l 1
 430 238 l 1
 505 238 l 1
 505 0 l 1
 20 0 l 1
 20 63 l 1
 93 63 l 1
 93 643 l 1
 20 643 l 1
 20 706 l 1
239 777 m 1
 281 911 l 1
 391 911 l 1
 309 777 l 1
 239 777 l 1
EndSplineSet
EndChar

StartChar: Edieresis
Encoding: 203 203 163
Width: 562
Flags: MW
HStem: 0 63<20 93 177 430 20 93> 343 66<177 406 177 406> 643 63<20 93 20 505 177 430 177 177> 804 81<164 254 164 254 305 396 164 305>
VStem: 93 84<63 343 409 643> 164 90<804 885 804 885> 305 91<804 885 804 885> 430 75<63 238 0 238 485 643 643 643>
LayerCount: 2
Fore
SplineSet
20 706 m 1xfb
 505 706 l 1
 505 485 l 1
 430 485 l 1
 430 643 l 1
 177 643 l 1
 177 409 l 1
 406 409 l 1
 406 343 l 1
 177 343 l 1
 177 63 l 1
 430 63 l 1
 430 238 l 1
 505 238 l 1
 505 0 l 1
 20 0 l 1
 20 63 l 1
 93 63 l 1
 93 643 l 1
 20 643 l 1
 20 706 l 1xfb
164 804 m 1xf7
 164 885 l 1
 254 885 l 1
 254 804 l 1
 164 804 l 1xf7
305 804 m 1
 305 885 l 1
 396 885 l 1
 396 804 l 1
 305 804 l 1
EndSplineSet
EndChar

StartChar: Aacute
Encoding: 193 193 164
Width: 625
Flags: MW
HStem: 0 63<3 60 141 204 3 60 410 478 564 620> 224 61<206 415 206 430 187 415> 643 63<187 444 187 240 388 388 388 444> 777 134<270 422 312 340>
VStem: 3 201<0 63 0 63> 187 257<643 706 643 706> 410 210<0 63 0 63>
LayerCount: 2
Fore
SplineSet
187 643 m 1xfe
 187 706 l 1
 444 706 l 1
 444 643 l 1
 388 643 l 1xf4
 564 63 l 1
 620 63 l 1
 620 0 l 1
 410 0 l 1
 410 63 l 1
 478 63 l 1
 430 224 l 1
 187 224 l 1
 141 63 l 1
 204 63 l 1
 204 0 l 1
 3 0 l 1
 3 63 l 1
 60 63 l 1xfa
 240 643 l 1
 187 643 l 1xfe
415 285 m 1
 312 633 l 1
 206 285 l 1
 415 285 l 1
270 777 m 1
 312 911 l 1
 422 911 l 1
 340 777 l 1
 270 777 l 1
EndSplineSet
EndChar

StartChar: Zcaron
Encoding: 381 381 165
Width: 542
Flags: MW
HStem: 0 63<143 420 49 49> 643 63<143 402 143 143 67 496> 777 136<219 228 317 325 219 219>
VStem: 67 76<484 643> 420 76<63 241 0 241>
LayerCount: 2
Fore
SplineSet
67 484 m 1
 67 706 l 1
 496 706 l 1
 496 643 l 1
 143 63 l 1
 420 63 l 1
 420 241 l 1
 496 241 l 1
 496 0 l 1
 49 0 l 1
 49 63 l 1
 402 643 l 1
 143 643 l 1
 143 484 l 1
 67 484 l 1
317 913 m 1
 375 913 l 1
 325 777 l 1
 219 777 l 1
 171 913 l 1
 228 913 l 1
 272 832 l 1
 317 913 l 1
EndSplineSet
EndChar

StartChar: ccedilla
Encoding: 231 231 166
Width: 458
Flags: MW
HStem: -224 40<253 273 247.5 288.5> -105 38<268.5 276.5> -13 65<258 258> -10 21<217 217> 338 179<370 433 370 433 363 433> 468 65<235 270 196 272.5>
VStem: 39 85<229.5 269 208 300.5> 298 44<-156.5 -136.5> 362 79<175 175> 367 65
LayerCount: 2
Fore
SplineSet
362 175 m 1xf6c0
 441 175 l 1
 438 146 430 77 375 30 c 1xe680
 331 -9 280 -12 258 -13 c 1
 240 -76 l 1
 252 -71 262 -67 275 -67 c 0
 320 -67 342 -103 342 -143 c 0
 342 -187 316 -224 261 -224 c 0
 245 -224 228 -221 215 -213 c 0
 187 -195 185 -169 183 -150 c 1
 226 -150 l 1
 228 -161 233 -184 262 -184 c 0
 284 -184 298 -168 298 -145 c 0
 298 -128 290 -105 263 -105 c 0
 247 -105 240 -111 234 -117 c 1xe740
 188 -110 l 1
 217 -10 l 1
 169 -4 107 15 69 96 c 0
 44 150 39 208 39 251 c 0
 39 350 60 408 83 447 c 0
 113 496 161 533 231 533 c 0
 309 533 343 490 365 463 c 1xd640
 370 517 l 1
 433 517 l 1
 433 338 l 1
 363 338 l 1xda40
 358 358 354 380 341 405 c 0xd640
 326 433 296 468 249 468 c 0
 221 468 166 455 139 367 c 0
 127 329 124 289 124 249 c 0
 124 167 143 125 157 103 c 0
 169 85 194 52 248 52 c 0
 282 52 309 66 327 86 c 0
 356 117 360 160 362 175 c 1xf6c0
EndSplineSet
EndChar

StartChar: logicalnot
Encoding: 172 172 167
Width: 667
Flags: MW
HStem: 0 21<607 607 607 667> 262 59<0 607 0 607>
VStem: 607 60<0 262 262 262 0 321>
LayerCount: 2
Fore
SplineSet
607 0 m 1
 607 262 l 1
 0 262 l 1
 0 321 l 1
 607 321 l 1
 667 321 l 1
 667 0 l 1
 607 0 l 1
EndSplineSet
EndChar

StartChar: Atilde
Encoding: 195 195 168
Width: 625
Flags: MW
HStem: 0 63<3 60 141 204 3 60 410 478 564 620> 224 61<206 415 206 430 187 415> 643 63<187 444 187 240 388 388 388 444> 776 54<387 402 387 402.5> 859 56<220 234 202.5 237>
VStem: 3 201<0 63 0 63> 157 47<791 791> 187 257<643 706 643 706> 410 210<0 63 0 63> 419 45<899 899>
LayerCount: 2
Fore
SplineSet
187 643 m 1xe340
 187 706 l 1
 444 706 l 1
 444 643 l 1
 388 643 l 1xe1
 564 63 l 1
 620 63 l 1
 620 0 l 1
 410 0 l 1
 410 63 l 1
 478 63 l 1
 430 224 l 1
 187 224 l 1
 141 63 l 1
 204 63 l 1
 204 0 l 1
 3 0 l 1
 3 63 l 1
 60 63 l 1xe480
 240 643 l 1
 187 643 l 1xe340
415 285 m 1
 312 633 l 1
 206 285 l 1
 415 285 l 1
204 791 m 1xea40
 157 791 l 1
 159 819 160 844 166 863 c 0
 168 870 181 915 224 915 c 0
 244 915 262 906 268 904 c 1xea40
 279 898 287 892 360 844 c 0
 374 834 383 830 391 830 c 0
 413 830 417 864 419 899 c 1
 464 899 l 1
 463 857 462 826 443 800 c 0
 428 780 410 776 395 776 c 0
 374 776 358 784 343 793 c 0xf240
 314 811 287 830 259 848 c 0
 250 854 242 859 232 859 c 0
 208 859 206 830 204 791 c 1xea40
EndSplineSet
EndChar

StartChar: Thorn
Encoding: 222 222 169
Width: 542
Flags: MW
HStem: 0 63<18 94 178 251 18 94> 150 63<178 251 178 275 178 251> 511 63<178 257 178 271> 643 63<18 94 18 251 178 178 178 251>
VStem: 94 84<63 150 63 213 213 511 574 643> 420 87<334.5 376.5>
LayerCount: 2
Fore
SplineSet
275 150 m 1
 178 150 l 1
 178 63 l 1
 251 63 l 1
 251 0 l 1
 18 0 l 1
 18 63 l 1
 94 63 l 1
 94 643 l 1
 18 643 l 1
 18 706 l 1
 251 706 l 1
 251 643 l 1
 178 643 l 1
 178 574 l 1
 271 574 l 1
 333 573 419 572 470 496 c 0
 493 462 507 413 507 362 c 0
 507 307 492 252 456 211 c 0
 403 152 336 151 275 150 c 1
257 511 m 1
 178 511 l 1
 178 213 l 1
 251 213 l 1
 323 214 420 216 420 362 c 0
 420 391 414 429 396 457 c 0
 362 509 304 510 257 511 c 1
EndSplineSet
EndChar

StartChar: onequarter
Encoding: 188 188 170
Width: 875
Flags: MW
HStem: 0 45<666 713 769 813 666 713> 121 45<587 713 529 529 769 853> 265 43<123 168 225 270 123 168> 391 50<713 713> 686 20<188 225 225 225 541 598 598 598>
VStem: 168 57<308 653 653 653> 713 56<45 121 45 121 166 391 391 391>
LayerCount: 2
Fore
SplineSet
813 0 m 1
 666 0 l 1
 666 45 l 1
 713 45 l 1
 713 121 l 1
 529 121 l 1
 529 166 l 1
 685 441 l 1
 769 441 l 1
 769 166 l 1
 853 166 l 1
 853 121 l 1
 769 121 l 1
 769 45 l 1
 813 45 l 1
 813 0 l 1
268 0 m 1
 541 706 l 1
 598 706 l 1
 327 0 l 1
 268 0 l 1
713 391 m 1
 587 166 l 1
 713 166 l 1
 713 391 l 1
112 632 m 1
 112 679 l 1
 188 706 l 1
 225 706 l 1
 225 308 l 1
 270 308 l 1
 270 265 l 1
 123 265 l 1
 123 308 l 1
 168 308 l 1
 168 653 l 1
 112 632 l 1
EndSplineSet
EndChar

StartChar: Acircumflex
Encoding: 194 194 171
Width: 625
Flags: MW
HStem: 0 63<3 60 141 204 3 60 410 478 564 620> 224 61<206 415 206 430 187 415> 643 63<187 444 187 240 388 388 388 444> 777 136<207 364 257 265 355 355 355 364 257 411>
VStem: 3 201<0 63 0 63> 187 257<643 706 643 706> 410 210<0 63 0 63>
LayerCount: 2
Fore
SplineSet
187 643 m 1xfe
 187 706 l 1
 444 706 l 1
 444 643 l 1
 388 643 l 1xf4
 564 63 l 1
 620 63 l 1
 620 0 l 1
 410 0 l 1
 410 63 l 1
 478 63 l 1
 430 224 l 1
 187 224 l 1
 141 63 l 1
 204 63 l 1
 204 0 l 1
 3 0 l 1
 3 63 l 1
 60 63 l 1xfa
 240 643 l 1
 187 643 l 1xfe
415 285 m 1
 312 633 l 1
 206 285 l 1
 415 285 l 1
207 777 m 1
 257 913 l 1
 364 913 l 1
 411 777 l 1
 355 777 l 1
 310 858 l 1
 265 777 l 1
 207 777 l 1
EndSplineSet
EndChar

StartChar: Odieresis
Encoding: 214 214 172
Width: 625
Flags: MW
HStem: -14 68<260.5 363.5> 653 68<273 340.5 273 375> 805 81<195 285 195 285 336 427 195 336>
VStem: 45 84<329 398> 195 90<805 886 805 886> 336 91<805 886 805 886> 495 84<338.5 416.5 338.5 439.5>
LayerCount: 2
Fore
SplineSet
45 342 m 0
 45 454 66 587 147 661 c 0
 181 692 236 721 310 721 c 0
 371 721 430 703 475 663 c 0
 557 591 579 471 579 362 c 0
 579 315 575 268 565 222 c 0
 553 163 531 102 485 54 c 0
 467 35 416 -14 311 -14 c 0
 193 -14 116 50 77 150 c 0
 51 215 45 281 45 342 c 0
315 653 m 0
 188 653 129 520 129 346 c 0
 129 312 131 277 137 243 c 0
 155 143 210 54 311 54 c 0
 462 54 495 246 495 359 c 0
 495 520 435 653 315 653 c 0
195 805 m 1
 195 886 l 1
 285 886 l 1
 285 805 l 1
 195 805 l 1
336 805 m 1
 336 886 l 1
 427 886 l 1
 427 805 l 1
 336 805 l 1
EndSplineSet
EndChar

StartChar: threequarters
Encoding: 190 190 173
Width: 875
Flags: MW
HStem: 0 45<666 713 769 813 666 713> 121 45<587 713 529 529 769 853> 255 45<152.5 218 152 231.5> 391 50<713 713> 469 46<145 157 145 163.5> 669 46<170 201> 687 20<541 598 598 598>
VStem: 262 57<586.5 618> 270 61<371 403.5> 713 56<45 121 45 121 166 391 391 391>
LayerCount: 2
Fore
SplineSet
813 0 m 1xed40
 666 0 l 1
 666 45 l 1
 713 45 l 1
 713 121 l 1
 529 121 l 1
 529 166 l 1
 685 441 l 1
 769 441 l 1xfb40
 769 166 l 1
 853 166 l 1
 853 121 l 1
 769 121 l 1
 769 45 l 1
 813 45 l 1
 813 0 l 1xed40
268 0 m 1
 541 707 l 1
 598 707 l 1
 326 0 l 1
 268 0 l 1
713 391 m 1
 587 166 l 1
 713 166 l 1
 713 391 l 1
93 592 m 1xed40
 37 592 l 1
 38 605 40 630 56 656 c 0
 93 715 159 715 181 715 c 0
 267 715 319 665 319 596 c 0
 319 576 315 547 288 521 c 0xed40
 270 503 254 499 239 494 c 1
 308 476 331 428 331 384 c 0
 331 316 281 255 182 255 c 0
 123 255 79 277 55 305 c 0
 29 336 28 366 27 387 c 1
 85 387 l 1
 86 333 125 300 179 300 c 0
 257 300 270 358 270 384 c 0
 270 423 247 459 201 467 c 0xecc0
 189 469 182 469 145 469 c 1
 145 515 l 1
 169 515 182 515 196 518 c 0
 257 528 262 580 262 593 c 0
 262 643 223 669 179 669 c 0
 148 669 100 655 93 592 c 1xed40
EndSplineSet
EndChar

StartChar: Ucircumflex
Encoding: 219 219 174
Width: 604
Flags: MW
HStem: -13 64<283 330.5 283 353> 643 63<9 241 9 83 166 166 166 241 364 440 521 521 521 593> 777 136<197 354 247 255 345 345 345 354 247 401>
VStem: 83 83<261 268 268 643> 440 81<276 643 218 643>
LayerCount: 2
Fore
SplineSet
9 643 m 1
 9 706 l 1
 241 706 l 1
 241 643 l 1
 166 643 l 1
 166 268 l 2
 166 209 167 158 187 118 c 0
 213 66 263 51 303 51 c 0
 358 51 403 76 425 126 c 0
 439 159 440 195 440 276 c 2
 440 643 l 1
 364 643 l 1
 364 706 l 1
 593 706 l 1
 593 643 l 1
 521 643 l 1
 521 218 l 1
 520 174 519 121 484 71 c 0
 457 31 399 -13 307 -13 c 0
 232 -13 168 16 129 65 c 1
 85 123 84 189 83 261 c 1
 83 643 l 1
 9 643 l 1
197 777 m 1
 247 913 l 1
 354 913 l 1
 401 777 l 1
 345 777 l 1
 300 858 l 1
 255 777 l 1
 197 777 l 1
EndSplineSet
EndChar

StartChar: Ugrave
Encoding: 217 217 175
Width: 604
Flags: MW
HStem: -13 64<283 330.5 283 353> 643 63<9 241 9 83 166 166 166 241 364 440 521 521 521 593> 777 133<273 304 194 343 273 273>
VStem: 83 83<261 268 268 643> 440 81<276 643 218 643>
LayerCount: 2
Fore
SplineSet
9 643 m 1
 9 706 l 1
 241 706 l 1
 241 643 l 1
 166 643 l 1
 166 268 l 2
 166 209 167 158 187 118 c 0
 213 66 263 51 303 51 c 0
 358 51 403 76 425 126 c 0
 439 159 440 195 440 276 c 2
 440 643 l 1
 364 643 l 1
 364 706 l 1
 593 706 l 1
 593 643 l 1
 521 643 l 1
 521 218 l 1
 520 174 519 121 484 71 c 0
 457 31 399 -13 307 -13 c 0
 232 -13 168 16 129 65 c 1
 85 123 84 189 83 261 c 1
 83 643 l 1
 9 643 l 1
194 910 m 1
 304 910 l 1
 343 777 l 1
 273 777 l 1
 194 910 l 1
EndSplineSet
EndChar

StartChar: Udieresis
Encoding: 220 220 176
Width: 604
Flags: MW
HStem: -13 64<283 330.5 283 353> 643 63<9 241 9 83 166 166 166 241 364 440 521 521 521 593> 803 81<185 275 185 275 326 417 185 326>
VStem: 83 83<261 268 268 643> 185 90<803 884 803 884> 326 91<803 884 803 884> 440 81<276 643 218 643>
LayerCount: 2
Fore
SplineSet
9 643 m 1
 9 706 l 1
 241 706 l 1
 241 643 l 1
 166 643 l 1
 166 268 l 2
 166 209 167 158 187 118 c 0
 213 66 263 51 303 51 c 0
 358 51 403 76 425 126 c 0
 439 159 440 195 440 276 c 2
 440 643 l 1
 364 643 l 1
 364 706 l 1
 593 706 l 1
 593 643 l 1
 521 643 l 1
 521 218 l 1
 520 174 519 121 484 71 c 0
 457 31 399 -13 307 -13 c 0
 232 -13 168 16 129 65 c 1
 85 123 84 189 83 261 c 1
 83 643 l 1
 9 643 l 1
185 803 m 1
 185 884 l 1
 275 884 l 1
 275 803 l 1
 185 803 l 1
326 803 m 1
 326 884 l 1
 417 884 l 1
 417 803 l 1
 326 803 l 1
EndSplineSet
EndChar

StartChar: Iacute
Encoding: 205 205 177
Width: 271
Flags: MW
HStem: 0 63<18 92 176 251 18 92> 643 63<18 251 18 92 176 176 176 251> 777 134<93 245 135 163>
VStem: 92 84<63 643 63 643>
LayerCount: 2
Fore
SplineSet
18 643 m 1
 18 706 l 1
 251 706 l 1
 251 643 l 1
 176 643 l 1
 176 63 l 1
 251 63 l 1
 251 0 l 1
 18 0 l 1
 18 63 l 1
 92 63 l 1
 92 643 l 1
 18 643 l 1
93 777 m 1
 135 911 l 1
 245 911 l 1
 163 777 l 1
 93 777 l 1
EndSplineSet
EndChar

StartChar: Agrave
Encoding: 192 192 178
Width: 625
Flags: MW
HStem: 0 63<3 60 141 204 3 60 410 478 564 620> 224 61<206 415 206 430 187 415> 643 63<187 444 187 240 388 388 388 444> 777 133<283 314 204 353 283 283>
VStem: 3 201<0 63 0 63> 187 257<643 706 643 706> 410 210<0 63 0 63>
LayerCount: 2
Fore
SplineSet
187 643 m 1xfe
 187 706 l 1
 444 706 l 1
 444 643 l 1
 388 643 l 1xf4
 564 63 l 1
 620 63 l 1
 620 0 l 1
 410 0 l 1
 410 63 l 1
 478 63 l 1
 430 224 l 1
 187 224 l 1
 141 63 l 1
 204 63 l 1
 204 0 l 1
 3 0 l 1
 3 63 l 1
 60 63 l 1xfa
 240 643 l 1
 187 643 l 1xfe
415 285 m 1
 312 633 l 1
 206 285 l 1
 415 285 l 1
204 910 m 1
 314 910 l 1
 353 777 l 1
 283 777 l 1
 204 910 l 1
EndSplineSet
EndChar

StartChar: degree
Encoding: 176 176 179
Width: 354
Flags: MW
HStem: 454 60<152.5 201 152.5 218> 688 60<152.5 201>
VStem: 30 60<577 625 577 642> 264 60<577 625>
LayerCount: 2
Fore
SplineSet
177 748 m 0
 259 748 324 682 324 601 c 0
 324 520 259 454 177 454 c 0
 96 454 30 520 30 601 c 0
 30 683 96 748 177 748 c 0
177 688 m 0
 128 688 90 649 90 601 c 0
 90 553 128 514 177 514 c 0
 225 514 264 553 264 601 c 0
 264 649 225 688 177 688 c 0
EndSplineSet
EndChar

StartChar: onehalf
Encoding: 189 189 180
Width: 875
Flags: MW
HStem: 0 45<601 762 601 814> 265 43<123 168 225 270 123 168> 406 45<671.5 704.5> 687 20<188 225 225 225 541 598 598 598>
VStem: 168 57<308 654 654 654> 546 54<324 324> 755 54<314 354.5> 762 52<45 123 0 123>
LayerCount: 2
Fore
SplineSet
112 633 m 1xfd
 112 680 l 1
 188 707 l 1
 225 707 l 1
 225 308 l 1
 270 308 l 1
 270 265 l 1
 123 265 l 1
 123 308 l 1
 168 308 l 1
 168 654 l 1
 112 633 l 1xfd
268 0 m 1
 541 707 l 1
 598 707 l 1
 327 0 l 1
 268 0 l 1
600 324 m 1
 546 324 l 1
 548 344 551 367 563 390 c 0
 595 451 662 451 681 451 c 0
 755 451 809 409 809 339 c 0xfe
 809 275 780 243 663 111 c 1
 601 45 l 1
 762 45 l 1
 762 123 l 1
 814 123 l 1
 814 0 l 1xfd
 536 0 l 1
 536 43 l 1
 623 141 l 2
 718 248 755 291 755 337 c 0
 755 372 729 406 680 406 c 0xfe
 652 406 628 394 613 369 c 0
 603 353 601 338 600 324 c 1
EndSplineSet
EndChar

StartChar: minus
Encoding: 8722 8722 181
Width: 667
Flags: MW
HStem: 262 59<0 667 0 667>
VStem: 0 667<262 321 262 321>
LayerCount: 2
Fore
SplineSet
667 321 m 1
 667 262 l 1
 0 262 l 1
 0 321 l 1
 667 321 l 1
EndSplineSet
EndChar

StartChar: Yacute
Encoding: 221 221 182
Width: 542
Flags: MW
HStem: 0 63<153 228 311 386 153 228> 643 63<-4 48 -4 212 137 137 137 212 355 415 497 548 497 497> 777 134<229 381 271 299>
VStem: -4 216<643 706 643 706> 228 83<63 248 63 254 63 254> 355 193<643 706 643 706>
LayerCount: 2
Fore
SplineSet
355 706 m 1
 548 706 l 1
 548 643 l 1
 497 643 l 1
 311 248 l 1
 311 63 l 1
 386 63 l 1
 386 0 l 1
 153 0 l 1
 153 63 l 1
 228 63 l 1
 228 254 l 1
 48 643 l 1
 -4 643 l 1
 -4 706 l 1
 212 706 l 1
 212 643 l 1
 137 643 l 1
 274 329 l 1
 415 643 l 1
 355 643 l 1
 355 706 l 1
229 777 m 1
 271 911 l 1
 381 911 l 1
 299 777 l 1
 229 777 l 1
EndSplineSet
EndChar

StartChar: twosuperior
Encoding: 178 178 183
Width: 375
Flags: MW
HStem: 265 45<101 262 101 314> 670 45<171 204.5>
VStem: 46 54<588 588> 255 54<578 618.5> 262 52<310 388 265 388>
LayerCount: 2
Fore
SplineSet
100 588 m 1xe8
 46 588 l 1
 48 609 51 631 63 654 c 0
 95 715 162 715 180 715 c 0
 256 715 309 673 309 602 c 0xf0
 309 540 279 507 163 375 c 1
 101 310 l 1
 262 310 l 1
 262 388 l 1
 314 388 l 1
 314 265 l 1xe8
 36 265 l 1
 36 308 l 1
 123 406 l 2
 216 510 255 555 255 601 c 0
 255 636 229 670 180 670 c 0xf0
 151 670 127 657 112 633 c 1
 103 616 101 600 100 588 c 1xe8
EndSplineSet
EndChar

StartChar: Uacute
Encoding: 218 218 184
Width: 604
Flags: MW
HStem: -13 64<283 330.5 283 353> 643 63<9 241 9 83 166 166 166 241 364 440 521 521 521 593> 777 134<260 412 302 330>
VStem: 83 83<261 268 268 643> 440 81<276 643 218 643>
LayerCount: 2
Fore
SplineSet
9 643 m 1
 9 706 l 1
 241 706 l 1
 241 643 l 1
 166 643 l 1
 166 268 l 2
 166 209 167 158 187 118 c 0
 213 66 263 51 303 51 c 0
 358 51 403 76 425 126 c 0
 439 159 440 195 440 276 c 2
 440 643 l 1
 364 643 l 1
 364 706 l 1
 593 706 l 1
 593 643 l 1
 521 643 l 1
 521 218 l 1
 520 174 519 121 484 71 c 0
 457 31 399 -13 307 -13 c 0
 232 -13 168 16 129 65 c 1
 85 123 84 189 83 261 c 1
 83 643 l 1
 9 643 l 1
260 777 m 1
 302 911 l 1
 412 911 l 1
 330 777 l 1
 260 777 l 1
EndSplineSet
EndChar

StartChar: registered
Encoding: 174 174 185
Width: 833
Flags: MW
HStem: -3 32<327 508 327 517> 127 64<577 591 577 596.5> 133 32 351 44<361 395 361 396> 539 38<432 440.5> 677 32<326.5 510.5>
VStem: 61 32<262 442 262 455.5> 287 74<231 351 395 473> 518 78<452 475.5> 741 32<263 442>
LayerCount: 2
Fore
SplineSet
619 246 m 1xffc0
 650 241 l 1
 643 209 626 127 567 127 c 0
 551 127 530 134 518 147 c 0xdfc0
 498 167 488 210 478 248 c 1
 461 320 454 347 395 351 c 1
 361 351 l 1
 361 230 l 2
 361 181 361 172 413 165 c 1
 413 131 l 1
 380 133 364 133 334 133 c 0
 302 133 273 132 241 131 c 1
 241 165 l 1
 264 168 274 170 281 179 c 0
 286 187 287 190 287 231 c 2xbf40
 287 491 l 2
 287 528 288 540 241 543 c 1
 241 577 l 1
 297 575 309 575 328 575 c 0
 344 575 423 577 441 577 c 0
 480 577 515 574 542 560 c 0
 572 544 596 513 596 470 c 0
 596 434 577 379 487 365 c 1
 529 352 540 310 547 282 c 2
 556 243 l 1
 565 209 569 191 585 191 c 0
 597 191 610 200 619 246 c 1xffc0
361 473 m 2
 361 395 l 1
 396 395 l 2
 428 395 439 396 454 399 c 0
 486 405 518 427 518 469 c 0
 518 482 515 496 507 508 c 0
 487 537 453 539 428 539 c 0
 362 539 361 528 361 473 c 2
773 354 m 0
 773 155 618 -3 416 -3 c 0
 230 -3 61 142 61 353 c 0
 61 558 224 709 416 709 c 0
 622 709 773 548 773 354 c 0
416 29 m 0
 600 29 741 173 741 353 c 0
 741 531 603 677 418 677 c 0
 235 677 93 531 93 353 c 0
 93 171 238 29 416 29 c 0
EndSplineSet
EndChar

StartChar: copyright
Encoding: 169 169 186
Width: 833
Flags: MW
HStem: -3 32<328 509 328 517> 120 21<417 424> 136 128<594 594> 436 132<565 577 560.5 589 565 565> 558 21<376.5 419.5 376.5 488.5> 677 32<327 511>
VStem: 61 32<262 442 262 455.5> 199 100<353 379.5> 565 24<436 436> 569 24<234.5 264> 741 32<264 442.5>
LayerCount: 2
Fore
SplineSet
773 354 m 0xcf60
 773 156 618 -3 416 -3 c 0
 231 -3 61 142 61 353 c 0
 61 558 225 709 417 709 c 0
 622 709 773 547 773 354 c 0xcf60
417 29 m 0
 601 29 741 174 741 354 c 0
 741 531 603 677 419 677 c 0
 235 677 93 531 93 353 c 0
 93 171 239 29 417 29 c 0
569 264 m 1xaf60
 593 264 l 1
 593 205 593 186 594 136 c 1xaf60
 560 134 537 131 518 129 c 0
 444 121 435 120 413 120 c 0
 353 120 292 136 252 181 c 0
 219 219 199 283 199 361 c 0
 199 398 201 485 267 538 c 0
 296 561 343 579 410 579 c 0xcf60
 429 579 429 579 508 572 c 1
 528 569 544 568 577 568 c 1
 582 504 583 496 589 436 c 1xd7a0
 565 436 l 1xcfa0
 553 488 536 558 441 558 c 0
 300 558 299 410 299 367 c 0
 299 339 301 269 323 220 c 0
 348 163 387 141 447 141 c 0
 464 141 523 142 552 199 c 0xcf60
 563 220 566 243 569 264 c 1xaf60
EndSplineSet
EndChar

StartChar: Ecircumflex
Encoding: 202 202 187
Width: 562
Flags: MW
HStem: 0 63<20 93 177 430 20 93> 343 66<177 406 177 406> 643 63<20 93 20 505 177 430 177 177> 777 136<176 333 226 234 324 324 324 333 226 380>
VStem: 93 84<63 343 409 643> 430 75<63 238 0 238 485 643 643 643>
LayerCount: 2
Fore
SplineSet
20 706 m 1
 505 706 l 1
 505 485 l 1
 430 485 l 1
 430 643 l 1
 177 643 l 1
 177 409 l 1
 406 409 l 1
 406 343 l 1
 177 343 l 1
 177 63 l 1
 430 63 l 1
 430 238 l 1
 505 238 l 1
 505 0 l 1
 20 0 l 1
 20 63 l 1
 93 63 l 1
 93 643 l 1
 20 643 l 1
 20 706 l 1
176 777 m 1
 226 913 l 1
 333 913 l 1
 380 777 l 1
 324 777 l 1
 279 858 l 1
 234 777 l 1
 176 777 l 1
EndSplineSet
EndChar

StartChar: trademark
Encoding: 8482 8482 188
Width: 771
Flags: MW
HStem: 376 29 674 31<103.5 190 143.5 229.5> 674 32
VStem: 135 63<452 674> 377 41<455 612> 638 60<438.5 455 438.5 455 455 609 609 609>
LayerCount: 2
Fore
SplineSet
517 375 m 1xdc
 418 612 l 1
 418 455 l 2
 418 412 421 408 458 405 c 1
 458 374 l 1
 408 375 395 375 340 374 c 1
 340 405 l 1
 373 410 376 411 377 455 c 1
 377 664 l 1
 368 675 355 675 345 676 c 1
 345 707 l 1
 361 706 377 705 393 705 c 0
 408 705 423 706 438 707 c 1xdc
 539 459 l 1
 643 706 l 1
 683 706 689 706 737 707 c 1xbc
 737 676 l 1
 698 674 698 666 698 621 c 2
 698 455 l 2
 698 422 698 419 702 414 c 0
 706 408 713 407 731 405 c 1
 731 374 l 1
 711 375 689 376 667 376 c 0
 647 376 626 375 605 374 c 1
 605 405 l 1
 628 407 637 408 638 427 c 1
 638 455 l 1
 638 609 l 1
 539 375 l 1
 517 375 l 1xdc
52 621 m 1
 22 621 l 1
 24 653 25 667 26 706 c 1
 73 706 120 705 167 705 c 0
 213 705 260 706 307 706 c 1
 308 667 309 653 311 621 c 1
 281 621 l 1
 263 674 261 674 198 674 c 1
 198 452 l 2
 198 424 199 419 204 414 c 0
 210 408 220 407 243 405 c 1
 243 374 l 1
 180 376 179 376 166 376 c 0
 153 376 153 376 89 374 c 1
 89 405 l 1
 133 409 135 409 135 452 c 2
 135 674 l 1
 72 674 70 674 52 621 c 1
EndSplineSet
EndChar

StartChar: plusminus
Encoding: 177 177 189
Width: 667
Flags: MW
HStem: 0 59<41 626 41 626> 379 59<41 305 41 305 364 626>
VStem: 305 59<123 379 123 379 438 694>
LayerCount: 2
Fore
SplineSet
364 379 m 1
 364 123 l 1
 305 123 l 1
 305 379 l 1
 41 379 l 1
 41 438 l 1
 305 438 l 1
 305 694 l 1
 364 694 l 1
 364 438 l 1
 626 438 l 1
 626 379 l 1
 364 379 l 1
626 59 m 1
 626 0 l 1
 41 0 l 1
 41 59 l 1
 626 59 l 1
EndSplineSet
EndChar

StartChar: Eth
Encoding: 208 208 190
Width: 625
Flags: MW
HStem: 0 63<18 92 175 247 247 254 18 92> 344 63<-1 92 -1 92 175 344> 643 63<18 92 18 274 175 270 175 175>
VStem: 92 83<63 344 63 344 407 643> 494 86<350 398.5>
LayerCount: 2
Fore
SplineSet
-1 407 m 1
 92 407 l 1
 92 643 l 1
 18 643 l 1
 18 706 l 1
 274 706 l 1
 357 704 468 702 534 579 c 0
 564 524 580 444 580 364 c 0
 580 336 578 307 574 279 c 0
 568 235 555 162 513 102 c 0
 446 5 358 2 289 0 c 1
 18 0 l 1
 18 63 l 1
 92 63 l 1
 92 344 l 1
 -1 344 l 1
 -1 407 l 1
175 643 m 1
 175 407 l 1
 344 407 l 1
 344 344 l 1
 175 344 l 1
 175 63 l 1
 247 63 l 2
 261 63 274 64 288 64 c 0
 317 65 358 67 397 93 c 0
 478 148 494 278 494 355 c 0
 494 442 478 504 453 550 c 0
 404 639 331 641 270 643 c 1
 175 643 l 1
EndSplineSet
EndChar

StartChar: Adieresis
Encoding: 196 196 191
Width: 625
Flags: MW
HStem: 0 63<3 60 141 204 3 60 410 478 564 620> 224 61<206 415 206 430 187 415> 643 63<187 444 187 240 388 388 388 444> 805 81<195 285 195 285 336 427 195 336>
VStem: 3 201<0 63 0 63> 195 90<805 886 805 886> 336 91<805 886 805 886> 410 210<0 63 0 63>
LayerCount: 2
Fore
SplineSet
187 643 m 1xf6
 187 706 l 1
 444 706 l 1
 444 643 l 1
 388 643 l 1
 564 63 l 1
 620 63 l 1
 620 0 l 1
 410 0 l 1
 410 63 l 1
 478 63 l 1
 430 224 l 1
 187 224 l 1
 141 63 l 1
 204 63 l 1
 204 0 l 1
 3 0 l 1
 3 63 l 1
 60 63 l 1xf9
 240 643 l 1
 187 643 l 1xf6
415 285 m 1
 312 633 l 1
 206 285 l 1
 415 285 l 1
195 805 m 1xf6
 195 886 l 1
 285 886 l 1
 285 805 l 1
 195 805 l 1xf6
336 805 m 1
 336 886 l 1
 427 886 l 1
 427 805 l 1
 336 805 l 1
EndSplineSet
EndChar

StartChar: Aring
Encoding: 197 197 192
Width: 625
Flags: MW
HStem: 0 63<3 60 141 204 3 60 410 478 564 620> 224 61<206 415 206 430 187 415> 643 63<187 444 187 240 388 388 388 444> 755 38<296.5 329.5 296.5 342.5> 912 37<297 329>
VStem: 3 201<0 63 0 63> 187 257<643 706 643 706> 212 42<836 869 836 877> 373 41<836 869> 410 210<0 63 0 63>
LayerCount: 2
Fore
SplineSet
187 643 m 1xfb80
 187 706 l 1
 444 706 l 1
 444 643 l 1
 388 643 l 1xfa
 564 63 l 1
 620 63 l 1
 620 0 l 1
 410 0 l 1
 410 63 l 1
 478 63 l 1
 430 224 l 1
 187 224 l 1
 141 63 l 1
 204 63 l 1
 204 0 l 1
 3 0 l 1
 3 63 l 1
 60 63 l 1xfd40
 240 643 l 1
 187 643 l 1xfb80
415 285 m 1
 312 633 l 1
 206 285 l 1
 415 285 l 1
313 755 m 0xf980
 251 755 212 800 212 852 c 0
 212 902 251 949 313 949 c 0
 373 949 414 903 414 852 c 0
 414 799 372 755 313 755 c 0xf980
254 852 m 0
 254 820 280 793 313 793 c 0
 346 793 373 820 373 852 c 0
 373 886 345 912 313 912 c 0
 281 912 254 886 254 852 c 0
EndSplineSet
EndChar

StartChar: Ydieresis
Encoding: 376 376 193
Width: 542
Flags: MW
HStem: 0 63<153 228 311 386 153 228> 643 63<-4 48 -4 212 137 137 137 212 355 415 497 548 497 497> 804 81<154 244 154 244 295 386 154 295>
VStem: -4 216<643 706 643 706> 154 90<804 885 804 885> 228 83<63 248 63 254 63 254> 295 91<804 885> 355 193<643 706 643 706>
LayerCount: 2
Fore
SplineSet
355 706 m 1xe5
 548 706 l 1
 548 643 l 1
 497 643 l 1
 311 248 l 1
 311 63 l 1
 386 63 l 1
 386 0 l 1
 153 0 l 1
 153 63 l 1
 228 63 l 1
 228 254 l 1xe5
 48 643 l 1
 -4 643 l 1
 -4 706 l 1xf5
 212 706 l 1
 212 643 l 1
 137 643 l 1
 274 329 l 1xe9
 415 643 l 1
 355 643 l 1
 355 706 l 1xe5
154 804 m 1xea
 154 885 l 1
 244 885 l 1
 244 804 l 1
 154 804 l 1xea
295 804 m 1
 295 885 l 1
 386 885 l 1
 386 804 l 1
 295 804 l 1
EndSplineSet
EndChar

StartChar: divide
Encoding: 247 247 194
Width: 667
Flags: MW
HStem: 115 91<321.5 349 321 349.5> 261 59<0 666 0 666> 375 91<321.5 349 321 349.5>
VStem: 289 92<148.5 171.5 408.5 431.5>
LayerCount: 2
Fore
SplineSet
381 160 m 0
 381 137 364 115 335 115 c 0
 308 115 289 135 289 160 c 0
 289 183 307 206 335 206 c 0
 363 206 381 184 381 160 c 0
381 420 m 0
 381 397 364 375 335 375 c 0
 308 375 289 395 289 420 c 0
 289 443 307 466 335 466 c 0
 363 466 381 444 381 420 c 0
666 320 m 1
 666 261 l 1
 0 261 l 1
 0 320 l 1
 666 320 l 1
EndSplineSet
EndChar

StartChar: onesuperior
Encoding: 185 185 195
Width: 375
Flags: MW
HStem: 265 43<123 168 225 270 123 168> 687 20<188 225 225 225>
VStem: 168 57<308 653 653 653>
LayerCount: 2
Fore
SplineSet
112 633 m 1
 112 680 l 1
 188 707 l 1
 225 707 l 1
 225 308 l 1
 270 308 l 1
 270 265 l 1
 123 265 l 1
 123 308 l 1
 168 308 l 1
 168 653 l 1
 112 633 l 1
EndSplineSet
EndChar

StartChar: threesuperior
Encoding: 179 179 196
Width: 375
Flags: MW
HStem: 255 45<152.5 218 152 231.5> 469 46<145 157 145 163.5> 669 46<170 201>
VStem: 262 57<586.5 618> 270 61<371 403.5>
LayerCount: 2
Fore
SplineSet
93 592 m 1xf0
 37 592 l 1
 38 605 40 630 56 656 c 0
 93 715 159 715 181 715 c 0
 267 715 319 665 319 596 c 0
 319 576 315 547 288 521 c 0xf0
 270 503 254 499 239 494 c 1
 308 476 331 428 331 384 c 0
 331 316 281 255 182 255 c 0
 123 255 79 277 55 305 c 0
 29 336 28 366 27 387 c 1
 85 387 l 1
 86 333 125 300 179 300 c 0
 257 300 270 358 270 384 c 0
 270 423 247 459 201 467 c 0xe8
 189 469 182 469 145 469 c 1
 145 515 l 1
 169 515 182 515 196 518 c 0
 257 528 262 580 262 593 c 0
 262 643 223 669 179 669 c 0
 148 669 100 655 93 592 c 1xf0
EndSplineSet
EndChar

StartChar: Egrave
Encoding: 200 200 197
Width: 562
Flags: MW
HStem: 0 63<20 93 177 430 20 93> 343 66<177 406 177 406> 643 63<20 93 20 505 177 430 177 177> 777 133<252 283 173 322 252 252>
VStem: 93 84<63 343 409 643> 430 75<63 238 0 238 485 643 643 643>
LayerCount: 2
Fore
SplineSet
20 706 m 1
 505 706 l 1
 505 485 l 1
 430 485 l 1
 430 643 l 1
 177 643 l 1
 177 409 l 1
 406 409 l 1
 406 343 l 1
 177 343 l 1
 177 63 l 1
 430 63 l 1
 430 238 l 1
 505 238 l 1
 505 0 l 1
 20 0 l 1
 20 63 l 1
 93 63 l 1
 93 643 l 1
 20 643 l 1
 20 706 l 1
173 910 m 1
 283 910 l 1
 322 777 l 1
 252 777 l 1
 173 910 l 1
EndSplineSet
EndChar

StartChar: Idieresis
Encoding: 207 207 198
Width: 271
Flags: MW
HStem: 0 63<18 92 176 251 18 92> 643 63<18 251 18 92 176 176 176 251> 804 81<18 108 18 108 159 250 18 159>
VStem: 18 90<804 885 804 885> 92 84<63 643 63 643> 159 91<804 885 804 885>
LayerCount: 2
Fore
SplineSet
18 643 m 1xf8
 18 706 l 1xf0
 251 706 l 1
 251 643 l 1
 176 643 l 1
 176 63 l 1
 251 63 l 1
 251 0 l 1
 18 0 l 1
 18 63 l 1
 92 63 l 1
 92 643 l 1xe8
 18 643 l 1xf8
18 804 m 1xe8
 18 885 l 1xe8
 108 885 l 1
 108 804 l 1xf0
 18 804 l 1xe8
159 804 m 1xe4
 159 885 l 1
 250 885 l 1
 250 804 l 1
 159 804 l 1xe4
EndSplineSet
EndChar

StartChar: Scaron
Encoding: 352 352 199
Width: 542
Flags: MW
HStem: -13 64<285 326.5 265.5 348.5> 0 240<47 116 47 119> 483 224<416 482 416 482 409 482> 656 65<213 262 185.5 281> 777 136<219 228 317 325 219 219>
VStem: 47 70 57 77<500.5 569.5 500.5 580.5> 415 67 418 81<140.5 198.5>
LayerCount: 2
Fore
SplineSet
47 240 m 1xdd
 119 240 l 1x5d
 122 215 128 165 159 120 c 1
 188 76 239 51 292 51 c 0
 361 51 418 102 418 179 c 0
 418 218 401 246 388 260 c 0x9c80
 363 289 326 303 230 338 c 0
 174 359 57 402 57 533 c 0
 57 628 125 721 246 721 c 0
 278 721 309 715 338 701 c 0
 369 686 393 662 407 641 c 0
 410 638 412 634 414 631 c 1x9b
 416 707 l 1
 482 707 l 1
 482 483 l 1
 409 483 l 1xad
 404 521 398 562 372 597 c 0
 349 629 308 656 254 656 c 0
 172 656 134 597 134 542 c 0x9b
 134 459 202 434 260 414 c 0
 282 406 305 398 328 389 c 0
 392 364 499 319 499 183 c 0
 499 51 399 -13 298 -13 c 0
 272 -13 243 -8 215 2 c 0
 162 22 139 52 119 77 c 1x9c80
 116 0 l 1
 47 0 l 1
 47 240 l 1xdd
317 913 m 1
 375 913 l 1
 325 777 l 1
 219 777 l 1
 171 913 l 1
 228 913 l 1
 272 832 l 1
 317 913 l 1
EndSplineSet
EndChar

StartChar: Icircumflex
Encoding: 206 206 200
Width: 271
Flags: MW
HStem: 0 63<18 92 176 251 18 92> 643 63<18 251 18 92 176 176 176 251> 777 136<30 187 80 88 178 178 178 187 80 234>
VStem: 92 84<63 643 63 643>
LayerCount: 2
Fore
SplineSet
18 643 m 1
 18 706 l 1
 251 706 l 1
 251 643 l 1
 176 643 l 1
 176 63 l 1
 251 63 l 1
 251 0 l 1
 18 0 l 1
 18 63 l 1
 92 63 l 1
 92 643 l 1
 18 643 l 1
30 777 m 1
 80 913 l 1
 187 913 l 1
 234 777 l 1
 178 777 l 1
 133 858 l 1
 88 777 l 1
 30 777 l 1
EndSplineSet
EndChar

StartChar: aacute
Encoding: 225 225 201
Width: 521
Flags: MW
HStem: -13 64<189.5 241.5 189.5 249> 0 63<429 501 429 501> 259 58<255 292.5> 467 66<235 267> 606 134<219 371 261 289>
VStem: 41 85<120 165.5> 219 152<606 740> 348 81<61 342 315 342 63 349 63 349>
LayerCount: 2
Fore
SplineSet
429 342 m 1x75
 429 63 l 1
 501 63 l 1
 501 0 l 1
 353 0 l 1x75
 348 61 l 1
 328 35 290 -13 208 -13 c 0xb5
 105 -13 41 56 41 142 c 0
 41 189 61 236 93 265 c 0
 140 306 217 317 289 317 c 0
 308 317 329 316 348 315 c 1
 348 349 l 1
 347 387 346 423 318 447 c 0
 303 459 280 467 254 467 c 0
 216 467 158 450 152 378 c 1
 66 378 l 1
 70 410 75 454 115 490 c 0
 143 515 190 533 252 533 c 0
 304 533 358 518 392 479 c 0
 426 440 427 392 429 342 c 1x75
348 255 m 1
 322 257 303 259 282 259 c 0
 228 259 204 249 195 246 c 0
 150 228 126 189 126 146 c 0
 126 94 159 51 220 51 c 0
 263 51 292 70 308 86 c 0xb5
 340 117 346 153 348 255 c 1
219 606 m 1x0a
 261 740 l 1
 371 740 l 1
 289 606 l 1
 219 606 l 1x0a
EndSplineSet
EndChar

StartChar: acircumflex
Encoding: 226 226 202
Width: 521
Flags: MW
HStem: -13 64<189.5 241.5 189.5 249> 0 63<429 501 429 501> 259 58<255 292.5> 467 66<235 267> 607 136<156 313 206 214 304 304 304 313 206 360>
VStem: 41 85<120 165.5> 156 204<607 607> 348 81<61 342 315 342 63 349 63 349>
LayerCount: 2
Fore
SplineSet
429 342 m 1x75
 429 63 l 1
 501 63 l 1
 501 0 l 1
 353 0 l 1x75
 348 61 l 1
 328 35 290 -13 208 -13 c 0xb5
 105 -13 41 56 41 142 c 0
 41 189 61 236 93 265 c 0
 140 306 217 317 289 317 c 0
 308 317 329 316 348 315 c 1
 348 349 l 1
 347 387 346 423 318 447 c 0
 303 459 280 467 254 467 c 0
 216 467 158 450 152 378 c 1
 66 378 l 1
 70 410 75 454 115 490 c 0
 143 515 190 533 252 533 c 0
 304 533 358 518 392 479 c 0
 426 440 427 392 429 342 c 1x75
348 255 m 1
 322 257 303 259 282 259 c 0
 228 259 204 249 195 246 c 0
 150 228 126 189 126 146 c 0
 126 94 159 51 220 51 c 0
 263 51 292 70 308 86 c 0xb5
 340 117 346 153 348 255 c 1
156 607 m 1x0a
 206 743 l 1
 313 743 l 1
 360 607 l 1
 304 607 l 1
 259 688 l 1
 214 607 l 1
 156 607 l 1x0a
EndSplineSet
EndChar

StartChar: adieresis
Encoding: 228 228 203
Width: 521
Flags: MW
HStem: -13 64<189.5 241.5 189.5 249> 0 63<429 501 429 501> 259 58<255 292.5> 467 66<235 267> 635 82<141 231 141 231 282 372 141 282>
VStem: 41 85<120 165.5> 141 90<635 717 635 717> 282 90<635 717 635 717> 348 81<61 342 315 342 63 349 63 349>
LayerCount: 2
Fore
SplineSet
429 342 m 1x7480
 429 63 l 1
 501 63 l 1
 501 0 l 1
 353 0 l 1x7480
 348 61 l 1
 328 35 290 -13 208 -13 c 0xb480
 105 -13 41 56 41 142 c 0
 41 189 61 236 93 265 c 0
 140 306 217 317 289 317 c 0
 308 317 329 316 348 315 c 1
 348 349 l 1
 347 387 346 423 318 447 c 0
 303 459 280 467 254 467 c 0
 216 467 158 450 152 378 c 1
 66 378 l 1
 70 410 75 454 115 490 c 0
 143 515 190 533 252 533 c 0
 304 533 358 518 392 479 c 0
 426 440 427 392 429 342 c 1x7480
348 255 m 1
 322 257 303 259 282 259 c 0
 228 259 204 249 195 246 c 0
 150 228 126 189 126 146 c 0
 126 94 159 51 220 51 c 0
 263 51 292 70 308 86 c 0xb480
 340 117 346 153 348 255 c 1
141 635 m 1x0b
 141 717 l 1
 231 717 l 1
 231 635 l 1
 141 635 l 1x0b
282 635 m 1
 282 717 l 1
 372 717 l 1
 372 635 l 1
 282 635 l 1
EndSplineSet
EndChar

StartChar: agrave
Encoding: 224 224 204
Width: 521
Flags: MW
HStem: -13 64<189.5 241.5 189.5 249> 0 63<429 501 429 501> 259 58<255 292.5> 467 66<235 267> 607 133<232 263 153 302 232 232>
VStem: 41 85<120 165.5> 153 149<607 740> 348 81<61 342 315 342 63 349 63 349>
LayerCount: 2
Fore
SplineSet
429 342 m 1x75
 429 63 l 1
 501 63 l 1
 501 0 l 1
 353 0 l 1x75
 348 61 l 1
 328 35 290 -13 208 -13 c 0xb5
 105 -13 41 56 41 142 c 0
 41 189 61 236 93 265 c 0
 140 306 217 317 289 317 c 0
 308 317 329 316 348 315 c 1
 348 349 l 1
 347 387 346 423 318 447 c 0
 303 459 280 467 254 467 c 0
 216 467 158 450 152 378 c 1
 66 378 l 1
 70 410 75 454 115 490 c 0
 143 515 190 533 252 533 c 0
 304 533 358 518 392 479 c 0
 426 440 427 392 429 342 c 1x75
348 255 m 1
 322 257 303 259 282 259 c 0
 228 259 204 249 195 246 c 0
 150 228 126 189 126 146 c 0
 126 94 159 51 220 51 c 0
 263 51 292 70 308 86 c 0xb5
 340 117 346 153 348 255 c 1
153 740 m 1x0a
 263 740 l 1
 302 607 l 1
 232 607 l 1
 153 740 l 1x0a
EndSplineSet
EndChar

StartChar: aring
Encoding: 229 229 205
Width: 521
Flags: MW
HStem: -13 64<189.5 241.5 189.5 249> 0 63<429 501 429 501> 259 58<255 292.5> 467 66<235 267> 583 37<238.5 271.5 238.5 284.5> 740 37<238.5 271>
VStem: 41 85<120 165.5> 154 42<664 696.5 664 705> 315 41<664 696.5> 348 81<61 342 315 342 63 349 63 349>
LayerCount: 2
Fore
SplineSet
429 342 m 1x7240
 429 63 l 1
 501 63 l 1
 501 0 l 1
 353 0 l 1x7240
 348 61 l 1
 328 35 290 -13 208 -13 c 0xb240
 105 -13 41 56 41 142 c 0
 41 189 61 236 93 265 c 0
 140 306 217 317 289 317 c 0
 308 317 329 316 348 315 c 1
 348 349 l 1
 347 387 346 423 318 447 c 0
 303 459 280 467 254 467 c 0
 216 467 158 450 152 378 c 1
 66 378 l 1
 70 410 75 454 115 490 c 0
 143 515 190 533 252 533 c 0
 304 533 358 518 392 479 c 0
 426 440 427 392 429 342 c 1x7240
348 255 m 1
 322 257 303 259 282 259 c 0
 228 259 204 249 195 246 c 0
 150 228 126 189 126 146 c 0
 126 94 159 51 220 51 c 0
 263 51 292 70 308 86 c 0xb240
 340 117 346 153 348 255 c 1
255 583 m 0x0d80
 193 583 154 627 154 680 c 0
 154 730 193 777 255 777 c 0
 315 777 356 732 356 680 c 0
 356 627 314 583 255 583 c 0x0d80
196 680 m 0
 196 648 222 620 255 620 c 0
 288 620 315 648 315 680 c 0
 315 713 287 740 255 740 c 0
 222 740 196 713 196 680 c 0
EndSplineSet
EndChar

StartChar: atilde
Encoding: 227 227 206
Width: 521
Flags: MW
HStem: -13 64<189.5 241.5 189.5 249> 0 63<429 501 429 501> 259 58<255 292.5> 467 66<235 267> 605 54<336 351 336 351.5> 689 56<169 185.5 151.5 186>
VStem: 41 85<120 165.5> 106 47<621 621> 348 81<61 342 315 342 63 349 63 349> 368 45<729 729>
LayerCount: 2
Fore
SplineSet
429 342 m 1x7280
 429 63 l 1
 501 63 l 1
 501 0 l 1
 353 0 l 1x7280
 348 61 l 1
 328 35 290 -13 208 -13 c 0xb280
 105 -13 41 56 41 142 c 0
 41 189 61 236 93 265 c 0
 140 306 217 317 289 317 c 0
 308 317 329 316 348 315 c 1
 348 349 l 1
 347 387 346 423 318 447 c 0
 303 459 280 467 254 467 c 0
 216 467 158 450 152 378 c 1
 66 378 l 1
 70 410 75 454 115 490 c 0
 143 515 190 533 252 533 c 0
 304 533 358 518 392 479 c 0
 426 440 427 392 429 342 c 1x7280
348 255 m 1
 322 257 303 259 282 259 c 0
 228 259 204 249 195 246 c 0
 150 228 126 189 126 146 c 0
 126 94 159 51 220 51 c 0
 263 51 292 70 308 86 c 0xb280
 340 117 346 153 348 255 c 1
153 621 m 1x0540
 106 621 l 1
 108 649 109 674 115 693 c 0
 117 700 130 745 173 745 c 0
 198 745 212 738 235 723 c 0x0540
 246 716 295 682 309 673 c 0
 323 664 332 659 340 659 c 0
 362 659 366 694 368 729 c 1
 413 729 l 1
 412 687 411 655 392 629 c 0
 377 609 359 605 344 605 c 0
 323 605 307 613 292 622 c 0x0d40
 263 640 236 659 208 678 c 0
 199 684 191 689 181 689 c 0
 157 689 155 660 153 621 c 1x0540
EndSplineSet
EndChar

StartChar: eacute
Encoding: 233 233 207
Width: 521
Flags: MW
HStem: -12 66<242.5 287.5 227 316> 257 62<126 397 126 483 124 397> 468 65<235 294.5> 606 134<225 377 267 295>
VStem: 37 92 225 152<606 740> 397 86<257 319>
LayerCount: 2
Fore
SplineSet
389 164 m 1
 472 164 l 1
 453 40 370 -12 262 -12 c 0
 223 -12 174 -4 135 23 c 0
 67 69 37 162 37 258 c 0
 37 353 63 450 142 501 c 0
 171 519 210 533 260 533 c 0
 420 533 458 410 467 381 c 0
 483 330 483 296 483 257 c 1
 124 257 l 1
 123 234 123 209 129 179 c 0
 143 109 188 54 266 54 c 0
 309 54 338 73 354 90 c 0
 379 116 386 147 389 164 c 1
126 319 m 1
 397 319 l 1
 387 421 328 468 261 468 c 0
 194 468 164 428 150 403 c 0
 131 370 129 343 126 319 c 1
225 606 m 1
 267 740 l 1
 377 740 l 1
 295 606 l 1
 225 606 l 1
EndSplineSet
EndChar

StartChar: ecircumflex
Encoding: 234 234 208
Width: 521
Flags: MW
HStem: -12 66<242.5 287.5 227 316> 257 62<126 397 126 483 124 397> 468 65<235 294.5> 607 136<162 319 212 220 310 310 310 319 212 366>
VStem: 37 92 162 204<607 607> 397 86<257 319>
LayerCount: 2
Fore
SplineSet
389 164 m 1
 472 164 l 1
 453 40 370 -12 262 -12 c 0
 223 -12 174 -4 135 23 c 0
 67 69 37 162 37 258 c 0
 37 353 63 450 142 501 c 0
 171 519 210 533 260 533 c 0
 420 533 458 410 467 381 c 0
 483 330 483 296 483 257 c 1
 124 257 l 1
 123 234 123 209 129 179 c 0
 143 109 188 54 266 54 c 0
 309 54 338 73 354 90 c 0
 379 116 386 147 389 164 c 1
126 319 m 1
 397 319 l 1
 387 421 328 468 261 468 c 0
 194 468 164 428 150 403 c 0
 131 370 129 343 126 319 c 1
162 607 m 1
 212 743 l 1
 319 743 l 1
 366 607 l 1
 310 607 l 1
 265 688 l 1
 220 607 l 1
 162 607 l 1
EndSplineSet
EndChar

StartChar: edieresis
Encoding: 235 235 209
Width: 521
Flags: MW
HStem: -12 66<242.5 287.5 227 316> 257 62<126 397 126 483 124 397> 468 65<235 294.5> 633 82<152 242 152 242 293 383 152 293>
VStem: 37 92 152 90<633 715 633 715> 293 90<633 715 633 715> 397 86<257 319>
LayerCount: 2
Fore
SplineSet
389 164 m 1
 472 164 l 1
 453 40 370 -12 262 -12 c 0
 223 -12 174 -4 135 23 c 0
 67 69 37 162 37 258 c 0
 37 353 63 450 142 501 c 0
 171 519 210 533 260 533 c 0
 420 533 458 410 467 381 c 0
 483 330 483 296 483 257 c 1
 124 257 l 1
 123 234 123 209 129 179 c 0
 143 109 188 54 266 54 c 0
 309 54 338 73 354 90 c 0
 379 116 386 147 389 164 c 1
126 319 m 1
 397 319 l 1
 387 421 328 468 261 468 c 0
 194 468 164 428 150 403 c 0
 131 370 129 343 126 319 c 1
152 633 m 1
 152 715 l 1
 242 715 l 1
 242 633 l 1
 152 633 l 1
293 633 m 1
 293 715 l 1
 383 715 l 1
 383 633 l 1
 293 633 l 1
EndSplineSet
EndChar

StartChar: egrave
Encoding: 232 232 210
Width: 521
Flags: MW
HStem: -12 66<242.5 287.5 227 316> 257 62<126 397 126 483 124 397> 468 65<235 294.5> 607 133<238 269 159 308 238 238>
VStem: 37 92 159 149<607 740> 397 86<257 319>
LayerCount: 2
Fore
SplineSet
389 164 m 1
 472 164 l 1
 453 40 370 -12 262 -12 c 0
 223 -12 174 -4 135 23 c 0
 67 69 37 162 37 258 c 0
 37 353 63 450 142 501 c 0
 171 519 210 533 260 533 c 0
 420 533 458 410 467 381 c 0
 483 330 483 296 483 257 c 1
 124 257 l 1
 123 234 123 209 129 179 c 0
 143 109 188 54 266 54 c 0
 309 54 338 73 354 90 c 0
 379 116 386 147 389 164 c 1
126 319 m 1
 397 319 l 1
 387 421 328 468 261 468 c 0
 194 468 164 428 150 403 c 0
 131 370 129 343 126 319 c 1
159 740 m 1
 269 740 l 1
 308 607 l 1
 238 607 l 1
 159 740 l 1
EndSplineSet
EndChar

StartChar: iacute
Encoding: 237 237 211
Width: 271
Flags: MW
HStem: 0 63<22 98 182 256 22 98> 458 63<22 182 22 98> 606 134<93 245 135 163>
VStem: 93 152<606 740> 98 84<63 458 458 458>
LayerCount: 2
Fore
SplineSet
22 458 m 1xc8
 22 521 l 1
 182 521 l 1
 182 63 l 1
 256 63 l 1
 256 0 l 1
 22 0 l 1
 22 63 l 1
 98 63 l 1
 98 458 l 1
 22 458 l 1xc8
93 606 m 1x30
 135 740 l 1
 245 740 l 1
 163 606 l 1
 93 606 l 1x30
EndSplineSet
EndChar

StartChar: icircumflex
Encoding: 238 238 212
Width: 271
Flags: MW
HStem: 0 63<22 98 182 256 22 98> 458 63<22 182 22 98> 607 136<30 187 80 88 178 178 178 187 80 234>
VStem: 30 204<607 607> 98 84<63 458 458 458>
LayerCount: 2
Fore
SplineSet
22 458 m 1xc8
 22 521 l 1
 182 521 l 1
 182 63 l 1
 256 63 l 1
 256 0 l 1
 22 0 l 1
 22 63 l 1
 98 63 l 1
 98 458 l 1
 22 458 l 1xc8
30 607 m 1x30
 80 743 l 1
 187 743 l 1
 234 607 l 1
 178 607 l 1
 133 688 l 1
 88 607 l 1
 30 607 l 1x30
EndSplineSet
EndChar

StartChar: idieresis
Encoding: 239 239 213
Width: 271
Flags: MW
HStem: 0 63<22 98 182 256 22 98> 458 63<22 182 22 98> 633 82<20 110 20 110 161 251 20 161>
VStem: 20 90<633 715 633 715> 98 84<63 458 458 458> 161 90<633 715 633 715>
LayerCount: 2
Fore
SplineSet
22 458 m 1xc8
 22 521 l 1
 182 521 l 1
 182 63 l 1
 256 63 l 1
 256 0 l 1
 22 0 l 1
 22 63 l 1
 98 63 l 1
 98 458 l 1
 22 458 l 1xc8
20 633 m 1x34
 20 715 l 1
 110 715 l 1
 110 633 l 1
 20 633 l 1x34
161 633 m 1
 161 715 l 1
 251 715 l 1
 251 633 l 1
 161 633 l 1
EndSplineSet
EndChar

StartChar: igrave
Encoding: 236 236 214
Width: 271
Flags: MW
HStem: 0 63<22 98 182 256 22 98> 458 63<22 182 22 98> 607 133<106 137 27 176 106 106>
VStem: 27 149<607 740> 98 84<63 458 458 458>
LayerCount: 2
Fore
SplineSet
22 458 m 1xc8
 22 521 l 1
 182 521 l 1
 182 63 l 1
 256 63 l 1
 256 0 l 1
 22 0 l 1
 22 63 l 1
 98 63 l 1
 98 458 l 1
 22 458 l 1xc8
27 740 m 1x30
 137 740 l 1
 176 607 l 1
 106 607 l 1
 27 740 l 1x30
EndSplineSet
EndChar

StartChar: ntilde
Encoding: 241 241 215
Width: 583
Flags: MW
HStem: 0 63<26 98 182 257 26 98 334 407 491 567> 458 63<26 98 26 179> 467 67<306 324> 605 54<368 383 368 383.5> 689 56<201 217.5 183.5 218>
VStem: 98 84<63 243> 138 47<621 621> 400 45<729 729> 407 84<63 327 327 350 63 355>
LayerCount: 2
Fore
SplineSet
491 350 m 2xc480
 491 63 l 1
 567 63 l 1
 567 0 l 1
 334 0 l 1
 334 63 l 1
 407 63 l 1
 407 327 l 2
 407 383 406 421 374 447 c 0
 357 462 334 467 314 467 c 0
 278 467 244 451 222 422 c 1xa480
 185 376 183 305 182 243 c 1
 182 63 l 1
 257 63 l 1
 257 0 l 1
 26 0 l 1
 26 63 l 1
 98 63 l 1
 98 458 l 1
 26 458 l 1
 26 521 l 1
 179 521 l 1
 182 440 l 1xc480
 187 451 194 466 207 481 c 0
 232 510 277 534 335 534 c 0
 369 534 403 527 431 508 c 0xa480
 490 469 491 407 491 350 c 2xc480
185 621 m 1x0b
 138 621 l 1
 140 649 141 674 147 693 c 0
 149 700 162 745 205 745 c 0
 230 745 244 738 267 723 c 0x0b
 278 716 327 682 341 673 c 0
 355 664 364 659 372 659 c 0
 394 659 398 694 400 729 c 1
 445 729 l 1
 444 687 443 655 424 629 c 0
 409 609 391 605 376 605 c 0
 355 605 339 613 324 622 c 0x1b
 295 640 268 659 240 678 c 0
 231 684 223 689 213 689 c 0
 189 689 187 660 185 621 c 1x0b
EndSplineSet
EndChar

StartChar: oacute
Encoding: 243 243 216
Width: 521
Flags: MW
HStem: -13 67<236 301.5 214.5 318> 467 65 606 134<225 377 267 295>
VStem: 38 84<238.5 293> 225 152<606 740> 398 84<238 288>
LayerCount: 2
Fore
SplineSet
38 251 m 0
 38 335 56 424 115 482 c 0
 187 552 312 536 360 514 c 0
 434 481 482 391 482 267 c 0
 482 209 471 133 433 74 c 0
 420 52 377 -13 259 -13 c 0
 213 -13 156 -3 113 38 c 0
 63 85 38 161 38 251 c 0
263 467 m 0
 245 467 225 463 207 454 c 0
 140 421 122 339 122 259 c 0
 122 218 125 181 139 145 c 0
 145 127 172 54 257 54 c 0
 346 54 398 131 398 261 c 0
 398 315 387 366 373 395 c 0
 360 421 329 467 263 467 c 0
225 606 m 1
 267 740 l 1
 377 740 l 1
 295 606 l 1
 225 606 l 1
EndSplineSet
EndChar

StartChar: ocircumflex
Encoding: 244 244 217
Width: 521
Flags: MW
HStem: -13 67<236 301.5 214.5 318> 467 65 607 136<162 319 212 220 310 310 310 319 212 366>
VStem: 38 84<238.5 293> 162 204<607 607> 398 84<238 288>
LayerCount: 2
Fore
SplineSet
38 251 m 0
 38 335 56 424 115 482 c 0
 187 552 312 536 360 514 c 0
 434 481 482 391 482 267 c 0
 482 209 471 133 433 74 c 0
 420 52 377 -13 259 -13 c 0
 213 -13 156 -3 113 38 c 0
 63 85 38 161 38 251 c 0
263 467 m 0
 245 467 225 463 207 454 c 0
 140 421 122 339 122 259 c 0
 122 218 125 181 139 145 c 0
 145 127 172 54 257 54 c 0
 346 54 398 131 398 261 c 0
 398 315 387 366 373 395 c 0
 360 421 329 467 263 467 c 0
162 607 m 1
 212 743 l 1
 319 743 l 1
 366 607 l 1
 310 607 l 1
 265 688 l 1
 220 607 l 1
 162 607 l 1
EndSplineSet
EndChar

StartChar: odieresis
Encoding: 246 246 218
Width: 521
Flags: MW
HStem: -13 67<236 301.5 214.5 318> 467 65 635 82<142 232 142 232 283 373 142 283>
VStem: 38 84<238.5 293> 142 90<635 717 635 717> 283 90<635 717 635 717> 398 84<238 288>
LayerCount: 2
Fore
SplineSet
38 251 m 0
 38 335 56 424 115 482 c 0
 187 552 312 536 360 514 c 0
 434 481 482 391 482 267 c 0
 482 209 471 133 433 74 c 0
 420 52 377 -13 259 -13 c 0
 213 -13 156 -3 113 38 c 0
 63 85 38 161 38 251 c 0
263 467 m 0
 245 467 225 463 207 454 c 0
 140 421 122 339 122 259 c 0
 122 218 125 181 139 145 c 0
 145 127 172 54 257 54 c 0
 346 54 398 131 398 261 c 0
 398 315 387 366 373 395 c 0
 360 421 329 467 263 467 c 0
142 635 m 1
 142 717 l 1
 232 717 l 1
 232 635 l 1
 142 635 l 1
283 635 m 1
 283 717 l 1
 373 717 l 1
 373 635 l 1
 283 635 l 1
EndSplineSet
EndChar

StartChar: ograve
Encoding: 242 242 219
Width: 521
Flags: MW
HStem: -13 67<236 301.5 214.5 318> 467 65 607 133<238 269 159 308 238 238>
VStem: 38 84<238.5 293> 159 149<607 740> 398 84<238 288>
LayerCount: 2
Fore
SplineSet
38 251 m 0
 38 335 56 424 115 482 c 0
 187 552 312 536 360 514 c 0
 434 481 482 391 482 267 c 0
 482 209 471 133 433 74 c 0
 420 52 377 -13 259 -13 c 0
 213 -13 156 -3 113 38 c 0
 63 85 38 161 38 251 c 0
263 467 m 0
 245 467 225 463 207 454 c 0
 140 421 122 339 122 259 c 0
 122 218 125 181 139 145 c 0
 145 127 172 54 257 54 c 0
 346 54 398 131 398 261 c 0
 398 315 387 366 373 395 c 0
 360 421 329 467 263 467 c 0
159 740 m 1
 269 740 l 1
 308 607 l 1
 238 607 l 1
 159 740 l 1
EndSplineSet
EndChar

StartChar: otilde
Encoding: 245 245 220
Width: 521
Flags: MW
HStem: -13 67<236 301.5 214.5 318> 467 65 605 54<342 357 342 357.5> 689 56<175 191.5 157.5 192>
VStem: 38 84<238.5 293> 112 47<621 621> 374 45<729 729> 398 84<238 288>
LayerCount: 2
Fore
SplineSet
38 251 m 0xc9
 38 335 56 424 115 482 c 0
 187 552 312 536 360 514 c 0
 434 481 482 391 482 267 c 0
 482 209 471 133 433 74 c 0
 420 52 377 -13 259 -13 c 0
 213 -13 156 -3 113 38 c 0
 63 85 38 161 38 251 c 0xc9
263 467 m 0
 245 467 225 463 207 454 c 0
 140 421 122 339 122 259 c 0
 122 218 125 181 139 145 c 0
 145 127 172 54 257 54 c 0
 346 54 398 131 398 261 c 0
 398 315 387 366 373 395 c 0
 360 421 329 467 263 467 c 0
159 621 m 1x16
 112 621 l 1
 114 649 115 674 121 693 c 0
 123 700 136 745 179 745 c 0
 204 745 218 738 241 723 c 0x16
 252 716 301 682 315 673 c 0
 329 664 338 659 346 659 c 0
 368 659 372 694 374 729 c 1
 419 729 l 1
 418 687 417 655 398 629 c 0
 383 609 365 605 350 605 c 0
 329 605 313 613 298 622 c 0x36
 269 640 242 659 214 678 c 0
 205 684 197 689 187 689 c 0
 163 689 161 660 159 621 c 1x16
EndSplineSet
EndChar

StartChar: scaron
Encoding: 353 353 221
Width: 437
Flags: MW
HStem: -13 66<225.5 255.5 199.5 291.5> 0 180<37 101 37 105> 346 175<326 390 326 390 323 390> 468 65<177 225> 606 136<173 182 271 279 173 173>
VStem: 37 66 40 81<384 414 384 434> 125 204<742 742> 320 81<111 141.5> 324 65
LayerCount: 2
Fore
SplineSet
37 180 m 1xd440
 105 180 l 1x5440
 109 158 114 134 130 109 c 0
 139 95 171 53 228 53 c 0
 283 53 320 89 320 133 c 0
 320 150 314 161 312 166 c 0
 301 188 282 201 259 212 c 0x9480
 240 221 138 257 116 268 c 0
 99 276 40 306 40 386 c 0
 40 482 116 533 191 533 c 0
 273 533 309 484 323 465 c 1x9240
 326 521 l 1
 390 521 l 1
 390 346 l 1
 323 346 l 1xa440
 320 363 317 386 307 405 c 0
 286 445 246 468 204 468 c 0
 150 468 121 433 121 395 c 0
 121 373 132 356 141 347 c 0x9240
 157 332 180 324 222 310 c 0
 307 281 401 249 401 138 c 0
 401 55 345 -13 238 -13 c 0
 213 -13 192 -8 175 -1 c 0
 136 13 121 36 105 59 c 1x9480
 101 0 l 1
 37 0 l 1
 37 180 l 1xd440
271 742 m 1x09
 329 742 l 1
 279 606 l 1
 173 606 l 1
 125 742 l 1
 182 742 l 1
 226 661 l 1
 271 742 l 1x09
EndSplineSet
EndChar

StartChar: uacute
Encoding: 250 250 222
Width: 542
Flags: MW
HStem: -12 67<250.5 282> 0 63<453 527 453 527> 458 63<5 162 5 79 296 370> 606 134<229 381 271 299>
VStem: 79 83<170 458 458 458> 229 152<606 740> 370 83<288 458 458 458>
LayerCount: 2
Fore
SplineSet
5 458 m 1x6a
 5 521 l 1
 162 521 l 1
 162 170 l 1
 163 140 165 99 197 74 c 0
 217 58 243 55 258 55 c 0xaa
 363 55 369 198 370 288 c 1
 370 458 l 1
 296 458 l 1
 296 521 l 1
 453 521 l 1
 453 63 l 1
 527 63 l 1
 527 0 l 1
 382 0 l 1x6a
 377 72 l 1
 363 46 333 -12 231 -12 c 0
 204 -12 165 -7 131 20 c 0xaa
 80 62 79 123 79 166 c 2
 79 458 l 1
 5 458 l 1x6a
229 606 m 1x14
 271 740 l 1
 381 740 l 1
 299 606 l 1
 229 606 l 1x14
EndSplineSet
EndChar

StartChar: ucircumflex
Encoding: 251 251 223
Width: 542
Flags: MW
HStem: -12 67<250.5 282> 0 63<453 527 453 527> 458 63<5 162 5 79 296 370> 607 136<166 323 216 224 314 314 314 323 216 370>
VStem: 79 83<170 458 458 458> 166 204<288 607> 370 83<288 458 458 458>
LayerCount: 2
Fore
SplineSet
5 458 m 1x6a
 5 521 l 1
 162 521 l 1
 162 170 l 1
 163 140 165 99 197 74 c 0
 217 58 243 55 258 55 c 0xaa
 363 55 369 198 370 288 c 1
 370 458 l 1
 296 458 l 1
 296 521 l 1
 453 521 l 1
 453 63 l 1
 527 63 l 1
 527 0 l 1
 382 0 l 1x6a
 377 72 l 1
 363 46 333 -12 231 -12 c 0
 204 -12 165 -7 131 20 c 0xaa
 80 62 79 123 79 166 c 2
 79 458 l 1
 5 458 l 1x6a
166 607 m 1x14
 216 743 l 1
 323 743 l 1
 370 607 l 1
 314 607 l 1
 269 688 l 1
 224 607 l 1
 166 607 l 1x14
EndSplineSet
EndChar

StartChar: udieresis
Encoding: 252 252 224
Width: 542
Flags: MW
HStem: -12 67<250.5 282> 0 63<453 527 453 527> 458 63<5 162 5 79 296 370> 636 82<147 237 147 237 288 378 147 288>
VStem: 79 83<170 458 458 458> 147 90<636 718 636 718> 288 90<636 718 636 718> 370 83<288 458 458 458>
LayerCount: 2
Fore
SplineSet
5 458 m 1x69
 5 521 l 1
 162 521 l 1
 162 170 l 1
 163 140 165 99 197 74 c 0
 217 58 243 55 258 55 c 0xa9
 363 55 369 198 370 288 c 1
 370 458 l 1
 296 458 l 1
 296 521 l 1
 453 521 l 1
 453 63 l 1
 527 63 l 1
 527 0 l 1
 382 0 l 1x69
 377 72 l 1
 363 46 333 -12 231 -12 c 0
 204 -12 165 -7 131 20 c 0xa9
 80 62 79 123 79 166 c 2
 79 458 l 1
 5 458 l 1x69
147 636 m 1x16
 147 718 l 1
 237 718 l 1
 237 636 l 1
 147 636 l 1x16
288 636 m 1
 288 718 l 1
 378 718 l 1
 378 636 l 1
 288 636 l 1
EndSplineSet
EndChar

StartChar: ugrave
Encoding: 249 249 225
Width: 542
Flags: MW
HStem: -12 67<250.5 282> 0 63<453 527 453 527> 458 63<5 162 5 79 296 370> 607 133<242 273 163 312 242 242>
VStem: 79 83<170 458 458 458> 163 149<607 740> 370 83<288 458 458 458>
LayerCount: 2
Fore
SplineSet
5 458 m 1x6a
 5 521 l 1
 162 521 l 1
 162 170 l 1
 163 140 165 99 197 74 c 0
 217 58 243 55 258 55 c 0xaa
 363 55 369 198 370 288 c 1
 370 458 l 1
 296 458 l 1
 296 521 l 1
 453 521 l 1
 453 63 l 1
 527 63 l 1
 527 0 l 1
 382 0 l 1x6a
 377 72 l 1
 363 46 333 -12 231 -12 c 0
 204 -12 165 -7 131 20 c 0xaa
 80 62 79 123 79 166 c 2
 79 458 l 1
 5 458 l 1x6a
163 740 m 1x14
 273 740 l 1
 312 607 l 1
 242 607 l 1
 163 740 l 1x14
EndSplineSet
EndChar

StartChar: yacute
Encoding: 253 253 226
Width: 521
Flags: MW
HStem: -223 67<102.5 140 87 169.5> -211 21<34 34> 458 63<2 211 2 55 144 144 144 211 318 386 466 466 466 518> 606 134<219 371 261 289>
VStem: 2 209<458 521 458 521> 219 152<606 740> 318 200<458 521 458 521>
LayerCount: 2
Fore
SplineSet
2 458 m 1xaa
 2 521 l 1
 211 521 l 1
 211 458 l 1
 144 458 l 1
 266 96 l 1
 386 458 l 1
 318 458 l 1
 318 521 l 1
 518 521 l 1
 518 458 l 1
 466 458 l 1
 283 -63 l 2
 250 -156 221 -223 118 -223 c 0xaa
 87 -223 61 -217 34 -211 c 1x6a
 34 -137 l 1
 52 -146 72 -156 102 -156 c 0
 178 -156 198 -95 224 -9 c 1
 55 458 l 1
 2 458 l 1xaa
219 606 m 1x14
 261 740 l 1
 371 740 l 1
 289 606 l 1
 219 606 l 1x14
EndSplineSet
EndChar

StartChar: ydieresis
Encoding: 255 255 227
Width: 521
Flags: MW
HStem: -223 67<102.5 140 87 169.5> -211 21<34 34> 458 63<2 211 2 55 144 144 144 211 318 386 466 466 466 518> 633 82<146 236 146 236 287 377 146 287>
VStem: 2 209<458 521 458 521> 146 90<633 715 633 715> 287 90<633 715 633 715> 318 200<458 521 458 521>
LayerCount: 2
Fore
SplineSet
2 458 m 1xa9
 2 521 l 1
 211 521 l 1
 211 458 l 1
 144 458 l 1
 266 96 l 1
 386 458 l 1
 318 458 l 1
 318 521 l 1
 518 521 l 1
 518 458 l 1
 466 458 l 1
 283 -63 l 2
 250 -156 221 -223 118 -223 c 0xa9
 87 -223 61 -217 34 -211 c 1x69
 34 -137 l 1
 52 -146 72 -156 102 -156 c 0
 178 -156 198 -95 224 -9 c 1
 55 458 l 1
 2 458 l 1xa9
146 633 m 1x16
 146 715 l 1
 236 715 l 1
 236 633 l 1
 146 633 l 1x16
287 633 m 1
 287 715 l 1
 377 715 l 1
 377 633 l 1
 287 633 l 1
EndSplineSet
EndChar

StartChar: zcaron
Encoding: 382 382 228
Width: 437
Flags: MW
HStem: 0 63<118 335 16 16> 457 64<100 304 100 100> 606 136<168 177 266 274 168 168>
VStem: 25 75<349 457 349 521 349 521> 120 204<742 742> 335 74<63 179 0 179>
LayerCount: 2
Fore
SplineSet
25 349 m 1
 25 521 l 1
 409 521 l 1
 409 458 l 1
 118 63 l 1
 335 63 l 1
 335 179 l 1
 409 179 l 1
 409 0 l 1
 16 0 l 1
 16 63 l 1
 304 457 l 1
 100 457 l 1
 100 349 l 1
 25 349 l 1
266 742 m 1
 324 742 l 1
 274 606 l 1
 168 606 l 1
 120 742 l 1
 177 742 l 1
 221 661 l 1
 266 742 l 1
EndSplineSet
EndChar
